{"glyphs":{"0":{"ha":712,"x_min":85,"x_max":627,"o":"m 594 350 l 594 537 q 533 781 594 694 q 356 867 471 867 q 180 781 241 867 q 119 537 119 694 l 119 350 q 180 106 119 194 q 357 19 242 19 q 533 106 472 19 q 594 350 594 193 m 627 537 l 627 349 q 556 80 627 174 q 357 -14 486 -14 q 156 80 227 -14 q 85 349 85 175 l 85 537 q 156 805 85 711 q 356 900 227 900 q 556 805 486 900 q 627 537 627 711 z "},"1":{"ha":684,"x_min":126,"x_max":402,"o":"m 402 -9 l 370 -9 l 370 861 l 126 813 l 126 842 l 402 892 l 402 -9 z "},"2":{"ha":684,"x_min":72,"x_max":625,"o":"m 625 33 l 625 0 l 94 0 l 94 33 l 385 369 q 506 535 469 467 q 544 663 544 604 q 490 815 544 762 q 331 869 436 869 q 165 806 225 869 q 104 638 104 743 l 77 638 l 75 642 q 144 827 72 753 q 331 901 216 901 q 511 839 446 901 q 577 663 577 776 q 534 519 577 593 q 394 333 490 446 l 140 36 l 141 33 l 625 33 z "},"3":{"ha":684,"x_min":65,"x_max":615,"o":"m 323 469 q 498 524 433 469 q 563 661 563 578 q 507 811 563 755 q 347 867 450 867 q 180 809 244 867 q 115 654 115 751 l 87 654 l 86 659 q 157 832 83 765 q 346 900 231 900 q 528 835 460 900 q 596 659 596 770 q 552 533 596 589 q 432 454 508 478 q 568 376 520 432 q 615 234 615 319 q 543 52 615 119 q 351 -14 470 -14 q 209 15 273 -14 q 105 103 144 44 q 66 242 65 163 l 68 245 l 96 245 q 168 83 96 147 q 350 19 240 19 q 521 75 460 19 q 582 232 582 131 q 514 384 582 334 q 322 435 446 435 l 254 435 l 255 469 l 323 469 z "},"4":{"ha":684,"x_min":50,"x_max":668,"o":"m 481 275 l 481 842 l 477 844 l 430 765 l 101 275 l 481 275 m 514 888 l 514 275 l 668 275 l 668 242 l 514 242 l 514 0 l 481 0 l 481 242 l 50 242 l 50 260 l 474 888 l 514 888 z "},"5":{"ha":684,"x_min":112,"x_max":625,"o":"m 591 887 l 591 855 l 200 855 l 163 477 q 250 537 204 519 q 381 557 296 555 q 557 485 488 561 q 625 275 625 409 q 560 64 625 142 q 363 -14 494 -14 q 181 49 250 -14 q 115 229 112 112 l 116 233 l 144 233 q 202 74 144 128 q 363 19 260 19 q 536 83 481 19 q 591 281 591 148 q 536 458 591 394 q 383 522 481 522 q 229 490 285 522 q 148 393 173 458 l 123 403 l 170 887 l 591 887 z "},"6":{"ha":684,"x_min":104,"x_max":632,"o":"m 138 338 l 137 338 l 137 312 q 201 99 137 180 q 367 18 265 18 q 534 94 469 18 q 599 279 599 170 q 539 478 599 406 q 370 550 480 550 q 207 487 276 550 q 138 338 138 425 m 104 585 q 183 811 104 722 q 380 900 262 900 q 554 857 484 900 l 541 826 q 467 859 501 850 q 380 867 433 867 q 207 789 276 867 q 137 585 137 711 l 137 429 q 230 540 166 498 q 375 583 293 583 q 563 500 494 583 q 632 286 632 418 q 558 69 632 153 q 368 -14 484 -14 q 178 75 252 -14 q 104 311 104 164 l 104 585 z "},"7":{"ha":684,"x_min":47,"x_max":615,"o":"m 47 856 l 47 888 l 614 888 l 615 856 q 387 496 475 692 q 273 55 299 300 l 269 -1 l 236 -1 l 240 55 q 575 856 291 521 l 47 856 z "},"8":{"ha":684,"x_min":60,"x_max":626,"o":"m 92 225 q 92 178 92 225 q 161 75 92 130 q 342 19 231 19 q 523 75 453 19 q 592 225 592 131 q 521 378 592 320 q 341 437 450 437 q 162 379 233 437 q 92 225 92 321 m 117 666 q 117 621 117 666 q 180 523 117 576 q 341 470 242 470 q 504 523 441 470 q 567 664 567 576 q 502 810 567 752 q 340 867 437 867 q 180 812 242 867 q 117 666 117 756 m 626 230 q 548 50 626 115 q 342 -14 471 -14 q 137 50 214 -14 q 60 230 60 114 q 111 371 60 311 q 248 453 161 431 q 129 532 173 477 q 85 661 85 587 q 156 836 85 772 q 342 900 227 900 l 342 900 q 528 836 456 900 q 600 661 600 772 q 555 532 600 588 q 435 453 511 477 q 574 370 522 429 q 626 230 626 310 z "},"9":{"ha":684,"x_min":58,"x_max":594,"o":"m 132 59 l 132 58 q 131 58 131 58 l 132 59 m 329 867 q 277 867 329 867 q 161 787 226 867 q 96 598 96 707 q 158 415 96 488 q 319 341 220 341 q 468 391 406 341 q 556 518 530 441 l 556 586 q 494 793 556 720 q 329 867 431 867 m 313 18 q 491 87 426 18 q 556 277 556 156 l 556 450 q 459 346 522 383 q 319 308 397 308 q 132 391 206 308 q 58 599 58 474 q 134 812 58 724 q 328 900 209 900 q 520 818 447 900 q 594 587 594 736 l 594 279 q 518 64 594 142 q 313 -14 441 -14 q 121 24 218 -14 l 132 58 q 219 27 178 37 q 313 18 260 18 z "},"\r":{"ha":342,"x_min":0,"x_max":0,"o":""}," ":{"ha":339,"x_min":0,"x_max":0,"o":""},"!":{"ha":357,"x_min":147,"x_max":205,"o":"m 205 82 l 205 0 l 147 0 l 147 82 l 205 82 m 193 888 l 193 292 l 159 292 l 159 888 l 193 888 z "},"\"":{"ha":433,"x_min":131,"x_max":302,"o":"m 192 952 l 192 850 l 161 685 l 131 685 l 158 848 l 158 952 l 192 952 m 302 952 l 302 850 l 272 685 l 241 685 l 269 848 l 269 952 l 302 952 z "},"#":{"ha":772,"x_min":40,"x_max":721,"o":"m 40 250 l 40 282 l 211 282 l 269 602 l 86 602 l 86 635 l 275 635 l 321 888 l 355 888 l 309 635 l 532 635 l 578 888 l 612 888 l 566 635 l 721 635 l 721 602 l 559 602 l 501 282 l 675 282 l 675 250 l 496 250 l 450 0 l 416 0 l 461 250 l 239 250 l 194 0 l 160 0 l 205 250 l 40 250 m 302 602 l 245 282 l 467 282 l 526 602 l 302 602 z "},"$":{"ha":684,"x_min":76,"x_max":612,"o":"m 358 4 q 517 59 456 4 q 578 194 578 115 q 531 320 578 274 q 352 413 483 366 q 159 511 214 458 q 103 662 103 564 q 167 821 103 760 q 339 886 231 881 l 339 1000 l 372 1000 l 372 886 q 545 812 484 880 q 604 627 606 745 l 602 624 l 574 624 q 515 791 574 728 q 354 854 456 854 q 194 800 252 854 q 136 663 136 745 q 155 572 136 608 q 222 506 173 536 q 363 446 271 475 q 475 400 431 422 q 551 350 518 378 q 597 284 583 321 q 612 197 612 248 q 549 39 612 99 q 379 -26 486 -20 l 379 -141 l 345 -141 l 345 -27 q 152 38 226 -23 q 96 118 115 69 q 77 232 76 168 l 79 235 l 107 235 q 127 131 107 176 q 181 59 146 86 q 357 5 250 5 l 358 4 z "},"%":{"ha":932,"x_min":70,"x_max":863,"o":"m 565 216 l 565 169 q 600 62 565 104 q 696 20 635 20 q 793 62 758 20 q 829 169 829 104 l 829 216 q 794 325 829 283 q 697 366 759 366 q 600 325 635 366 q 565 216 565 283 m 531 169 l 531 216 q 577 347 531 294 q 697 399 624 399 q 816 347 770 399 q 863 216 863 295 l 863 169 q 816 38 863 91 q 697 -14 770 -14 q 578 38 625 -14 q 531 169 531 91 m 716 773 l 282 79 l 254 98 l 688 792 l 716 773 m 103 716 l 103 669 q 139 563 103 605 q 236 520 174 520 q 332 563 297 520 q 368 669 368 606 l 368 716 q 332 824 368 781 q 236 867 297 867 q 139 823 175 867 q 103 716 103 779 m 70 669 l 70 716 q 116 847 70 795 q 235 900 163 900 q 354 847 308 900 q 401 716 401 795 l 401 669 q 354 539 401 592 q 235 487 308 487 q 116 539 163 487 q 70 669 70 591 z "},"&":{"ha":761,"x_min":70,"x_max":726,"o":"m 159 711 q 209 851 159 802 q 341 900 258 900 q 470 857 425 900 q 514 740 514 814 q 492 656 514 691 q 424 583 470 621 l 301 485 l 591 155 q 661 384 661 254 l 694 384 q 613 130 694 242 l 726 1 l 725 -2 l 688 -2 l 593 106 q 585 99 590 104 q 468 14 528 41 q 334 -14 408 -14 q 140 47 210 -14 q 70 214 70 108 q 109 339 70 280 q 226 464 147 397 l 257 489 q 182 604 205 553 q 159 711 159 656 m 103 214 l 102 214 q 164 74 102 128 q 334 19 225 19 q 464 48 402 19 q 571 130 525 77 q 289 451 296 441 q 277 465 281 460 l 245 440 q 135 318 166 371 q 103 214 103 265 m 480 740 q 446 833 480 799 q 342 867 411 867 q 234 824 274 867 q 193 712 193 781 q 282 508 193 612 l 410 609 q 480 740 480 668 z "},"'":{"ha":323,"x_min":131,"x_max":192,"o":"m 192 952 l 192 849 l 161 685 l 131 685 l 158 848 l 158 952 l 192 952 z "},"(":{"ha":486,"x_min":148,"x_max":412,"o":"m 148 345 l 148 358 q 221 744 148 564 q 399 987 294 924 l 402 987 l 412 965 q 249 727 317 902 q 181 360 181 551 l 181 345 q 249 -23 181 152 q 412 -260 317 -197 l 402 -283 l 399 -283 q 219 -42 291 -217 q 148 345 148 133 z "},")":{"ha":496,"x_min":75,"x_max":339,"o":"m 339 357 l 339 345 q 267 -42 339 133 q 88 -283 195 -218 l 85 -283 l 75 -261 q 238 -23 170 -198 q 306 344 306 152 l 306 359 q 238 726 306 551 q 75 964 170 901 l 85 986 l 88 986 q 214 849 157 945 q 305 624 271 754 q 339 357 339 493 z "},"*":{"ha":522,"x_min":18,"x_max":508,"o":"m 97 468 l 240 665 l 18 741 l 29 774 l 250 693 l 251 934 l 285 934 l 281 692 l 496 780 l 508 747 l 288 664 l 440 470 l 412 450 l 264 647 l 125 448 l 97 468 z "},"+":{"ha":703,"x_min":45,"x_max":654,"o":"m 360 746 l 360 438 l 654 438 l 654 406 l 360 406 l 360 99 l 327 99 l 327 406 l 45 406 l 45 438 l 327 438 l 327 746 l 360 746 z "},",":{"ha":234,"x_min":70,"x_max":144,"o":"m 144 79 l 144 -22 l 101 -175 l 70 -175 l 111 -25 l 111 79 l 144 79 z "},"-":{"ha":370,"x_min":37,"x_max":324,"o":"m 324 439 l 324 406 l 37 406 l 37 439 l 324 439 z "},".":{"ha":268,"x_min":106,"x_max":158,"o":"m 158 79 l 158 0 l 106 0 l 106 79 l 158 79 z "},"/":{"ha":477,"x_min":26,"x_max":433,"o":"m 433 880 l 62 -85 l 26 -85 l 397 880 l 433 880 z "},":":{"ha":222,"x_min":79,"x_max":126,"o":"m 126 71 l 126 0 l 79 0 l 79 71 l 126 71 m 126 650 l 126 579 l 79 579 l 79 650 l 126 650 z "},";":{"ha":222,"x_min":64,"x_max":130,"o":"m 130 54 l 130 -38 l 92 -175 l 64 -175 l 100 -40 l 100 54 l 130 54 m 130 635 l 130 564 l 83 564 l 83 635 l 130 635 z "},"<":{"ha":643,"x_min":50,"x_max":561,"o":"m 561 549 l 157 361 l 85 339 l 85 335 l 157 313 l 561 128 l 561 92 l 50 323 l 50 354 l 561 585 l 561 549 z "},"=":{"ha":697,"x_min":90,"x_max":599,"o":"m 599 329 l 599 296 l 90 296 l 90 329 l 599 329 m 599 577 l 599 544 l 90 544 l 90 577 l 599 577 z "},">":{"ha":643,"x_min":70,"x_max":580,"o":"m 473 365 l 70 550 l 70 585 l 580 355 l 580 324 l 70 93 l 70 129 l 473 316 l 545 338 l 545 342 l 473 365 z "},"?":{"ha":633,"x_min":103,"x_max":533,"o":"m 334 65 l 334 1 l 284 1 l 284 65 l 334 65 m 500 680 q 453 820 500 770 q 319 870 406 870 q 184 819 232 870 q 134 681 136 768 l 106 681 l 104 685 q 162 844 103 787 q 319 901 220 901 q 475 840 417 901 q 533 677 533 779 q 497 533 533 595 q 378 397 461 471 q 328 338 338 366 q 318 244 318 310 l 286 245 q 299 348 287 318 q 362 424 311 377 q 426 488 404 464 q 468 543 448 513 q 494 605 487 574 q 500 680 500 637 z "},"@":{"ha":1161,"x_min":67,"x_max":1090,"o":"m 829 -44 q 747 -7 779 -44 q 709 96 715 31 q 507 -44 642 -44 q 383 28 424 -44 q 354 222 342 100 q 441 468 368 376 q 621 560 515 560 q 699 545 668 560 q 773 493 730 530 l 743 148 q 763 26 737 63 q 831 -10 788 -10 q 981 70 926 -10 q 1044 288 1037 151 q 948 666 1056 536 q 608 795 841 795 q 417 757 506 795 q 263 650 329 719 q 158 481 198 581 q 113 261 119 381 q 154 -16 104 104 q 308 -205 204 -137 q 555 -274 412 -274 q 663 -260 608 -274 q 757 -225 718 -247 l 772 -253 q 672 -292 734 -277 q 553 -307 610 -307 q 194 -156 320 -307 q 78 259 67 -4 q 234 677 90 523 q 611 831 378 831 l 612 830 q 972 690 855 830 q 1079 288 1090 549 q 961 2 1070 92 q 829 -44 905 -44 m 387 222 q 406 53 374 118 q 507 -12 437 -12 q 626 32 576 -12 q 711 179 677 75 l 736 476 q 619 526 694 526 q 465 447 528 526 q 387 222 402 368 z "},"A":{"ha":747,"x_min":21,"x_max":726,"o":"m 690 0 l 590 266 l 156 266 l 57 0 l 21 0 l 353 888 l 393 888 l 726 0 l 690 0 m 355 799 l 168 298 l 578 298 l 392 799 l 375 849 l 371 849 l 355 799 z "},"B":{"ha":754,"x_min":122,"x_max":687,"o":"m 418 438 l 155 438 l 155 33 l 412 33 q 590 88 526 33 q 654 243 654 143 q 591 383 654 328 q 418 438 528 438 m 155 855 l 155 471 l 368 471 q 552 518 491 471 q 613 663 613 566 q 356 855 613 855 l 155 855 m 122 888 l 356 888 q 571 831 496 888 q 646 661 646 774 q 605 526 646 580 q 490 459 564 473 q 630 387 574 448 q 687 245 687 326 q 613 65 687 130 q 412 0 538 0 l 122 -1 l 122 888 z "},"C":{"ha":810,"x_min":88,"x_max":719,"o":"m 687 271 l 715 271 l 717 267 q 636 59 719 132 q 408 -14 553 -14 q 176 93 264 -14 q 88 376 88 200 l 88 509 q 176 793 88 686 q 408 900 264 900 q 635 827 552 900 q 717 620 719 753 l 715 616 l 687 616 q 613 802 687 736 q 409 867 539 867 q 200 769 279 867 q 121 511 121 671 l 121 376 q 200 117 121 214 q 410 19 279 19 q 614 83 541 19 q 687 271 687 146 z "},"D":{"ha":818,"x_min":122,"x_max":735,"o":"m 155 33 l 368 33 q 605 134 509 33 q 702 389 702 235 l 702 500 q 657 682 702 600 q 536 810 612 764 q 368 856 460 856 l 155 855 l 155 33 m 368 0 l 122 0 l 122 888 l 368 888 q 554 839 470 888 q 686 700 637 789 q 735 498 735 610 l 735 390 q 686 188 735 277 q 554 49 637 98 q 368 0 470 0 z "},"E":{"ha":711,"x_min":122,"x_max":663,"o":"m 601 479 l 601 447 l 155 447 l 155 33 l 663 33 l 663 0 l 122 0 l 122 888 l 663 888 l 663 856 l 155 856 l 155 479 l 601 479 z "},"F":{"ha":715,"x_min":122,"x_max":673,"o":"m 610 471 l 610 437 l 155 437 l 155 0 l 122 0 l 122 888 l 673 888 l 673 856 l 155 856 l 155 471 l 610 471 z "},"G":{"ha":858,"x_min":101,"x_max":748,"o":"m 444 -14 q 196 94 291 -14 q 101 377 101 202 l 101 522 q 193 795 101 690 q 429 900 285 900 q 657 828 574 900 q 742 639 741 756 l 741 635 l 713 635 q 636 805 709 742 q 432 867 564 867 q 218 772 300 867 q 136 524 136 677 l 136 377 q 220 118 136 217 q 445 19 305 19 q 613 46 538 19 q 715 109 688 73 l 715 368 l 444 368 l 444 401 l 748 401 l 747 94 q 634 18 716 51 q 444 -14 553 -14 z "},"H":{"ha":878,"x_min":122,"x_max":755,"o":"m 755 888 l 755 0 l 723 0 l 723 425 l 155 425 l 155 0 l 122 0 l 122 888 l 155 888 l 155 457 l 723 457 l 723 888 l 755 888 z "},"I":{"ha":326,"x_min":146,"x_max":180,"o":"m 180 888 l 180 0 l 146 0 l 146 888 l 180 888 z "},"J":{"ha":687,"x_min":56,"x_max":568,"o":"m 534 256 l 534 887 l 568 887 l 568 256 q 498 59 568 133 q 318 -14 429 -14 q 124 51 193 -14 q 58 239 56 117 l 60 243 l 88 243 q 147 77 88 134 q 318 19 206 19 q 474 83 414 19 q 534 256 534 148 z "},"K":{"ha":793,"x_min":122,"x_max":746,"o":"m 155 434 l 155 0 l 122 0 l 122 888 l 155 888 l 155 467 l 300 467 l 677 888 l 717 888 l 718 886 l 328 446 l 746 3 l 744 0 l 705 0 l 291 434 l 155 434 z "},"L":{"ha":645,"x_min":122,"x_max":612,"o":"m 156 888 l 156 33 l 612 33 l 612 0 l 122 0 l 122 888 l 156 888 z "},"M":{"ha":1072,"x_min":122,"x_max":949,"o":"m 122 888 l 169 888 l 533 52 l 536 52 l 901 888 l 949 888 l 949 0 l 917 0 l 917 831 l 913 832 l 548 0 l 522 0 l 159 827 l 155 827 l 155 0 l 122 0 l 122 888 z "},"N":{"ha":884,"x_min":122,"x_max":762,"o":"m 762 888 l 762 0 l 730 0 l 159 827 l 156 827 l 156 0 l 122 0 l 122 888 l 156 888 l 726 63 l 730 64 l 730 888 l 762 888 z "},"O":{"ha":833,"x_min":81,"x_max":751,"o":"m 718 376 l 718 511 q 639 772 718 677 q 416 867 560 867 q 193 772 272 867 q 115 511 115 677 l 115 376 q 194 114 115 209 q 417 19 273 19 q 640 114 562 19 q 718 376 718 208 m 751 509 l 751 376 q 662 91 751 195 q 416 -14 573 -14 q 171 90 260 -14 q 81 376 81 195 l 81 509 q 170 795 81 691 q 415 900 259 900 q 662 795 572 900 q 751 509 751 690 z "},"P":{"ha":751,"x_min":122,"x_max":687,"o":"m 155 856 l 155 414 l 400 414 q 588 475 523 414 q 654 635 654 536 q 589 795 654 734 q 400 856 524 856 l 155 856 m 400 382 l 155 382 l 155 0 l 122 0 l 122 888 l 400 888 q 612 820 536 888 q 687 635 687 752 q 612 450 687 517 q 400 382 537 382 z "},"Q":{"ha":833,"x_min":81,"x_max":771,"o":"m 718 364 l 718 498 q 639 760 718 665 q 416 854 560 854 q 193 760 272 854 q 115 498 115 665 l 115 364 q 194 101 115 197 q 417 6 273 6 q 640 101 562 6 q 718 364 718 196 m 751 497 l 751 364 q 716 169 751 253 q 616 35 682 84 l 771 -117 l 747 -138 l 587 16 q 417 -26 516 -26 q 171 78 260 -26 q 81 364 81 182 l 81 497 q 170 783 81 679 q 415 888 259 888 q 662 783 572 888 q 751 497 751 678 z "},"R":{"ha":818,"x_min":119,"x_max":737,"o":"m 152 -2 l 119 -2 l 119 886 l 402 886 q 619 826 544 886 q 694 648 694 765 q 645 511 694 572 q 515 433 597 451 q 651 365 609 418 q 694 226 694 313 l 694 142 q 737 14 694 52 l 737 -1 l 705 -1 q 661 144 661 49 l 661 225 q 599 367 661 316 q 422 417 537 417 l 152 416 l 152 -2 m 152 855 l 152 450 l 396 450 q 594 505 528 450 q 661 655 661 559 q 596 803 661 751 q 402 855 531 855 l 152 855 z "},"S":{"ha":747,"x_min":62,"x_max":688,"o":"m 387 20 q 580 73 505 20 q 655 211 655 127 q 594 346 655 296 q 381 437 534 395 q 248 480 300 458 q 158 530 196 501 q 104 595 121 558 q 87 682 87 632 q 169 841 87 781 q 382 900 251 900 q 595 827 513 900 q 674 641 677 755 l 673 637 l 645 637 q 572 803 645 738 q 381 867 498 867 q 192 814 263 867 q 120 684 120 762 q 180 556 120 606 q 390 469 239 507 q 520 426 467 448 q 613 373 574 404 q 688 212 688 315 q 604 47 688 109 q 387 -14 519 -14 q 157 47 248 -14 q 87 130 112 79 q 64 245 62 180 l 65 249 l 93 249 q 117 145 93 190 q 182 73 140 100 q 388 19 266 19 l 387 20 z "},"T":{"ha":747,"x_min":34,"x_max":713,"o":"m 713 888 l 713 856 l 390 856 l 390 0 l 357 0 l 357 856 l 34 856 l 34 888 l 713 888 z "},"U":{"ha":833,"x_min":113,"x_max":720,"o":"m 687 887 l 720 887 l 720 285 q 637 64 720 142 q 416 -14 555 -14 q 195 64 277 -14 q 113 285 113 142 l 113 887 l 145 887 l 145 285 q 220 90 145 161 q 416 19 294 19 q 612 90 538 19 q 687 285 687 161 l 687 887 z "},"V":{"ha":747,"x_min":22,"x_max":726,"o":"m 58 888 l 356 87 l 372 39 l 376 39 l 391 87 l 690 888 l 726 888 l 394 0 l 353 0 l 22 888 l 58 888 z "},"W":{"ha":1133,"x_min":37,"x_max":1095,"o":"m 74 888 l 296 62 l 300 62 l 339 201 l 549 888 l 585 888 l 794 201 l 832 62 l 836 62 l 876 201 l 1059 888 l 1095 888 l 855 0 l 818 0 l 597 741 l 568 829 l 565 829 l 536 741 l 315 0 l 277 0 l 37 888 l 74 888 z "},"X":{"ha":747,"x_min":33,"x_max":713,"o":"m 86 888 l 372 479 l 660 888 l 701 888 l 394 454 l 713 0 l 673 0 l 372 428 l 73 0 l 33 0 l 352 454 l 45 888 l 86 888 z "},"Y":{"ha":747,"x_min":22,"x_max":724,"o":"m 389 0 l 356 0 l 356 338 l 22 888 l 62 888 l 356 395 l 372 364 l 388 395 l 683 888 l 724 888 l 389 338 l 389 0 z "},"Z":{"ha":747,"x_min":58,"x_max":690,"o":"m 690 33 l 690 0 l 58 0 l 58 27 l 625 857 l 82 857 l 82 888 l 670 888 l 670 865 l 102 33 l 690 33 z "},"[":{"ha":383,"x_min":168,"x_max":341,"o":"m 341 1016 l 341 983 l 201 983 l 201 -157 l 341 -157 l 341 -191 l 168 -191 l 168 1016 l 341 1016 z "},"\\":{"ha":473,"x_min":35,"x_max":441,"o":"m 406 -85 l 35 880 l 71 880 l 441 -85 l 406 -85 z "},"]":{"ha":383,"x_min":53,"x_max":225,"o":"m 53 983 l 53 1016 l 225 1016 l 225 -191 l 53 -191 l 53 -157 l 192 -157 l 192 983 l 53 983 z "},"^":{"ha":518,"x_min":56,"x_max":452,"o":"m 225 826 l 92 494 l 56 494 l 238 938 l 270 938 l 452 494 l 415 494 l 279 826 l 255 895 l 252 895 l 225 826 z "},"_":{"ha":516,"x_min":-1,"x_max":516,"o":"m 516 -3 l 516 -37 l -1 -37 l -1 -3 l 516 -3 z "},"`":{"ha":328,"x_min":63,"x_max":253,"o":"m 119 983 l 253 824 l 252 821 l 205 821 l 63 980 l 64 983 l 119 983 z "},"a":{"ha":660,"x_min":57,"x_max":570,"o":"m 520 119 q 416 21 485 57 q 255 -16 348 -16 q 110 35 162 -16 q 57 170 57 85 q 135 310 57 254 q 332 366 214 366 l 520 366 l 520 463 q 467 591 520 545 q 322 637 414 637 q 175 594 229 637 q 120 482 120 551 l 92 483 l 91 486 q 151 617 87 564 q 321 670 215 670 q 490 616 427 670 q 553 461 553 562 l 553 130 q 570 -2 553 55 l 533 -2 q 519 111 519 71 l 520 119 m 333 334 q 159 287 229 334 q 89 171 89 239 q 134 60 89 102 q 254 18 180 18 q 419 61 351 18 q 519 185 487 104 l 519 334 l 333 334 z "},"b":{"ha":684,"x_min":104,"x_max":610,"o":"m 576 317 l 576 330 q 520 555 576 471 q 361 639 464 639 q 137 472 190 639 l 137 163 q 220 58 162 96 q 363 20 277 20 q 521 99 466 20 q 576 317 576 178 m 610 330 l 610 317 q 544 75 610 163 q 362 -14 478 -14 q 227 17 286 -14 q 136 102 169 47 l 132 -1 l 104 -1 l 104 951 l 137 951 l 137 541 q 228 637 170 603 q 361 671 285 671 q 544 580 477 671 q 610 330 610 488 z "},"c":{"ha":634,"x_min":59,"x_max":572,"o":"m 92 316 q 153 99 92 180 q 329 19 214 19 q 479 67 418 19 q 541 202 541 115 l 569 202 l 570 198 q 501 45 572 104 q 329 -14 429 -14 q 131 76 203 -14 q 59 316 59 165 l 59 342 q 131 582 59 492 q 328 671 203 671 q 504 610 435 671 q 570 441 572 548 l 569 438 l 541 438 q 480 585 541 532 q 328 638 420 638 q 153 557 214 638 q 92 342 92 477 l 92 316 z "},"d":{"ha":684,"x_min":75,"x_max":581,"o":"m 323 671 q 456 636 399 671 q 548 541 513 602 l 548 950 l 581 950 l 581 -2 l 549 -2 l 548 100 q 457 16 515 46 q 323 -15 399 -15 q 141 74 206 -15 q 75 317 75 162 l 75 329 q 140 579 75 488 q 323 671 206 671 m 322 19 q 464 57 407 19 q 548 162 522 95 l 548 471 q 323 638 492 638 q 164 555 220 638 q 109 330 109 471 l 109 317 q 164 98 109 177 q 322 19 219 19 z "},"e":{"ha":630,"x_min":53,"x_max":581,"o":"m 548 404 l 547 404 q 486 572 547 506 q 328 638 425 638 q 165 568 230 638 q 91 387 100 497 l 93 384 l 548 384 l 548 404 m 330 -14 q 134 77 215 -14 q 53 304 53 169 l 53 343 q 132 578 53 485 q 326 671 211 671 q 511 598 441 671 q 581 401 581 525 l 581 351 l 86 351 l 86 304 q 156 101 86 183 q 330 19 227 19 q 453 39 404 19 q 539 99 503 58 l 557 74 q 330 -14 477 -14 z "},"f":{"ha":394,"x_min":41,"x_max":407,"o":"m 188 0 l 156 0 l 156 627 l 41 627 l 41 661 l 156 661 l 156 769 q 201 914 156 863 q 328 965 246 965 q 407 955 374 965 l 401 923 q 328 932 364 932 q 225 889 262 932 q 188 769 188 846 l 188 661 l 363 661 l 363 627 l 188 627 l 188 0 z "},"g":{"ha":684,"x_min":73,"x_max":580,"o":"m 322 642 q 547 512 475 642 l 552 630 l 580 630 l 580 -34 q 514 -229 580 -160 q 336 -297 449 -297 q 138 -259 223 -297 l 149 -227 q 329 -264 235 -264 q 491 -205 436 -264 q 547 -34 547 -146 l 547 71 q 454 -13 512 17 q 321 -43 397 -43 q 139 45 205 -43 q 74 288 74 134 l 73 300 q 139 551 73 459 q 322 642 205 642 m 107 301 l 107 288 q 162 70 107 149 q 321 -9 218 -9 q 463 28 406 -9 q 547 133 520 66 l 547 446 q 322 610 489 610 q 163 527 218 610 q 107 301 107 443 z "},"h":{"ha":684,"x_min":105,"x_max":583,"o":"m 138 952 l 138 522 q 228 634 169 595 q 372 673 288 673 q 530 607 477 673 q 583 401 583 541 l 583 0 l 549 0 l 549 403 q 503 584 549 528 q 373 640 458 640 q 212 579 270 640 q 138 412 153 518 l 138 0 l 105 0 l 105 952 l 138 952 z "},"i":{"ha":258,"x_min":113,"x_max":146,"o":"m 146 661 l 146 0 l 113 0 l 113 661 l 146 661 m 146 952 l 146 868 l 113 868 l 113 952 l 146 952 z "},"j":{"ha":272,"x_min":-96,"x_max":147,"o":"m 113 631 l 147 631 l 147 -84 q 102 -241 147 -186 q -27 -296 56 -296 q -96 -284 -57 -296 l -88 -252 q -28 -263 -57 -263 q 77 -217 40 -263 q 113 -84 113 -170 l 113 631 m 143 922 l 143 841 l 110 841 l 110 922 l 143 922 z "},"k":{"ha":591,"x_min":105,"x_max":578,"o":"m 138 338 l 138 0 l 105 0 l 105 952 l 138 952 l 138 370 l 216 370 l 516 661 l 554 661 l 555 656 l 253 359 l 578 3 l 577 0 l 539 0 l 229 338 l 138 338 z "},"l":{"ha":258,"x_min":113,"x_max":146,"o":"m 146 952 l 146 0 l 113 0 l 113 952 l 146 952 z "},"m":{"ha":1120,"x_min":98,"x_max":1023,"o":"m 576 414 l 576 376 l 576 0 l 543 0 l 543 378 q 494 578 543 517 q 351 640 446 640 q 202 583 256 640 q 132 424 147 526 l 132 0 l 98 0 l 98 661 l 126 661 l 131 524 q 353 673 194 673 q 566 494 527 673 q 652 627 593 581 q 800 673 711 673 q 967 601 911 673 q 1023 377 1023 529 l 1023 1 l 989 1 l 989 378 q 941 578 989 517 q 796 640 892 640 q 645 580 700 640 q 576 414 589 519 z "},"n":{"ha":684,"x_min":105,"x_max":583,"o":"m 105 661 l 133 661 l 138 524 q 366 673 200 673 q 529 604 476 673 q 583 389 583 536 l 583 0 l 549 0 l 549 390 q 503 581 549 523 q 367 640 456 640 q 208 579 264 640 q 138 412 152 519 l 138 0 l 105 0 l 105 661 z "},"o":{"ha":684,"x_min":53,"x_max":631,"o":"m 86 342 l 86 316 q 157 103 86 188 q 343 19 227 19 q 478 59 419 19 q 567 165 536 98 q 598 316 598 233 l 598 342 q 527 552 598 467 q 342 638 456 638 q 207 598 266 638 q 117 490 148 557 q 86 342 86 423 m 53 316 l 53 342 q 133 580 53 488 q 342 671 214 671 q 551 580 471 671 q 631 342 631 488 l 631 316 q 551 78 631 170 q 342 -14 471 -14 q 133 78 214 -14 q 53 316 53 170 z "},"p":{"ha":684,"x_min":104,"x_max":610,"o":"m 610 302 l 610 290 q 544 48 610 136 q 362 -41 478 -41 q 227 -11 285 -41 q 137 75 170 20 l 137 -282 l 104 -282 l 104 632 l 130 632 l 136 514 q 361 644 205 644 q 544 553 477 644 q 610 302 610 461 m 576 290 l 576 302 q 520 528 576 444 q 361 612 464 612 q 216 567 271 612 q 137 445 161 522 l 137 136 q 220 30 162 68 q 363 -8 277 -8 q 521 71 466 -8 q 576 290 576 151 z "},"q":{"ha":684,"x_min":75,"x_max":581,"o":"m 322 -9 q 465 29 407 -9 q 548 135 522 67 l 548 444 q 323 611 492 611 q 164 527 219 611 q 109 302 109 444 l 109 289 q 164 71 109 150 q 322 -9 219 -9 m 75 290 l 75 302 q 140 552 75 461 q 323 644 206 644 q 548 513 477 644 l 551 631 l 581 631 l 581 -283 l 548 -283 l 548 74 q 456 -11 514 19 q 322 -41 399 -41 q 140 47 205 -41 q 75 290 75 135 z "},"r":{"ha":415,"x_min":106,"x_max":400,"o":"m 138 0 l 106 0 l 106 661 l 132 661 l 138 546 l 138 523 q 354 673 197 673 q 400 666 377 673 l 397 637 l 354 640 q 212 585 267 640 q 138 433 156 529 l 138 0 z "},"s":{"ha":622,"x_min":64,"x_max":543,"o":"m 509 159 q 308 323 509 279 q 135 389 186 349 q 84 503 84 429 q 145 624 84 576 q 310 671 205 671 q 477 621 414 671 q 538 486 541 570 l 536 483 l 509 483 q 453 594 509 549 q 307 638 397 638 q 167 600 216 638 q 118 506 118 562 q 161 415 118 450 q 318 353 203 380 q 488 282 433 326 q 543 159 543 237 q 479 34 543 81 q 307 -14 416 -14 q 131 36 197 -14 q 68 163 64 87 l 70 166 l 96 166 q 130 82 99 116 q 311 19 186 19 l 310 18 q 454 60 399 18 q 509 159 509 101 z "},"t":{"ha":387,"x_min":18,"x_max":345,"o":"m 140 838 l 174 838 l 174 659 l 336 659 l 336 625 l 174 625 l 174 169 q 273 19 174 19 q 339 24 303 19 l 345 -5 q 275 -14 320 -14 q 174 30 208 -14 q 140 169 140 74 l 140 625 l 18 625 l 18 659 l 140 659 l 140 838 z "},"u":{"ha":684,"x_min":102,"x_max":581,"o":"m 320 -14 q 159 59 215 -14 q 102 282 102 133 l 102 659 l 136 659 l 136 281 q 184 84 136 150 q 319 19 232 19 q 475 67 419 19 q 547 203 532 116 l 547 659 l 581 659 l 581 -1 l 553 -1 l 549 117 q 320 -14 484 -14 z "},"v":{"ha":597,"x_min":26,"x_max":571,"o":"m 62 661 l 266 140 l 296 51 l 300 51 l 332 140 l 535 661 l 571 661 l 314 1 l 315 0 l 283 0 l 26 661 l 62 661 z "},"w":{"ha":946,"x_min":51,"x_max":888,"o":"m 89 661 l 223 191 l 258 56 l 261 55 l 453 661 l 486 661 l 677 55 l 681 56 l 716 191 l 850 661 l 888 661 l 696 0 l 663 0 l 500 496 l 471 608 l 467 608 l 436 496 l 275 0 l 242 0 l 51 661 l 89 661 z "},"x":{"ha":597,"x_min":34,"x_max":563,"o":"m 87 661 l 298 368 l 509 661 l 551 661 l 319 339 l 563 0 l 522 0 l 298 310 l 75 0 l 34 0 l 278 339 l 46 661 l 87 661 z "},"y":{"ha":597,"x_min":26,"x_max":576,"o":"m 220 -252 q 210 -264 220 -252 q 172 -286 200 -275 q 111 -296 144 -296 q 60 -290 77 -296 l 65 -258 q 106 -264 83 -264 q 192 -233 160 -264 q 250 -134 224 -202 l 290 -26 l 26 631 l 62 631 l 279 90 l 304 24 l 308 24 l 540 631 l 576 631 l 283 -140 q 254 -204 267 -180 q 220 -252 241 -229 z "},"z":{"ha":597,"x_min":53,"x_max":568,"o":"m 568 33 l 568 0 l 53 0 l 53 27 l 487 627 l 72 627 l 72 661 l 532 661 l 532 631 l 98 33 l 568 33 z "},"{":{"ha":518,"x_min":102,"x_max":462,"o":"m 255 11 l 255 160 q 102 330 255 330 l 102 370 q 255 538 255 370 l 255 690 q 301 870 255 799 q 450 973 347 941 l 458 946 q 330 852 372 918 q 288 690 288 787 l 288 539 q 255 415 288 464 q 159 351 223 366 q 255 286 223 335 q 288 161 288 237 l 288 12 q 462 -241 288 -181 l 450 -271 q 301 -168 347 -237 q 255 11 255 -98 z "},"|":{"ha":363,"x_min":168,"x_max":201,"o":"m 201 888 l 201 -165 l 168 -165 l 168 888 l 201 888 z "},"}":{"ha":518,"x_min":58,"x_max":416,"o":"m 231 13 l 231 162 q 263 287 231 238 q 359 352 295 336 q 231 541 231 382 l 231 692 q 189 854 231 788 q 60 947 146 920 l 69 975 q 218 871 172 942 q 264 691 264 800 l 264 540 q 416 372 264 372 l 416 332 q 302 288 340 332 q 264 161 264 243 l 264 12 q 218 -166 264 -96 q 69 -269 172 -236 l 58 -240 q 231 13 231 -180 z "},"~":{"ha":862,"x_min":95,"x_max":765,"o":"m 604 300 q 508 322 551 300 q 407 397 465 345 q 255 469 324 469 q 165 427 199 469 q 132 312 132 385 l 95 319 q 140 450 95 398 q 255 503 185 503 q 349 480 306 503 q 452 405 393 458 q 602 333 529 333 q 691 376 656 333 q 726 490 726 420 l 765 481 q 719 353 765 406 q 604 300 673 300 z "}," ":{"ha":339,"x_min":0,"x_max":0,"o":""},"¡":{"ha":248,"x_min":87,"x_max":155,"o":"m 109 -243 l 109 401 l 142 401 l 142 -243 l 109 -243 m 87 615 q 87 622 87 615 q 97 639 87 629 q 121 649 107 649 q 145 639 135 649 q 155 615 155 629 q 145 591 155 602 q 121 581 135 581 q 97 591 107 581 q 87 615 87 602 z "},"¢":{"ha":677,"x_min":81,"x_max":595,"o":"m 115 301 l 113 301 q 176 83 113 161 q 350 4 239 4 q 499 52 441 4 q 562 184 557 100 l 595 184 q 527 35 590 93 q 368 -28 464 -23 l 368 -166 l 334 -166 l 334 -28 q 149 66 217 -22 q 81 304 81 155 l 81 326 q 149 561 81 473 q 334 655 217 649 l 334 788 l 368 788 l 368 655 q 530 587 469 649 q 595 426 591 526 l 563 426 q 500 569 558 515 q 351 623 443 623 q 177 544 239 623 q 115 322 115 465 l 115 301 z "},"£":{"ha":702,"x_min":58,"x_max":648,"o":"m 444 407 l 220 407 l 226 205 q 185 33 229 86 l 647 33 l 648 0 l 60 0 l 60 33 l 134 33 q 178 90 163 41 q 193 205 194 138 l 186 407 l 58 407 l 58 440 l 186 440 l 180 634 q 240 830 180 759 q 405 901 300 901 q 571 838 510 901 q 632 665 632 774 l 599 665 q 547 815 599 762 q 405 868 496 868 q 263 807 313 868 q 213 634 213 746 l 218 440 l 444 440 l 444 407 z "},"¤":{"ha":917,"x_min":71,"x_max":842,"o":"m 169 545 q 147 505 169 545 q 125 370 125 465 q 169 195 125 276 q 290 66 214 113 q 454 20 366 20 q 618 66 543 20 q 740 196 694 113 q 785 372 785 279 q 740 545 785 465 q 619 673 696 626 q 455 720 543 720 q 291 673 368 720 l 290 672 q 169 545 213 625 m 708 95 q 455 -14 603 -14 q 202 93 307 -14 l 95 -17 l 71 7 l 180 118 q 92 373 92 225 q 186 628 92 521 l 71 746 l 95 770 l 210 652 q 456 751 313 751 q 701 651 598 751 l 817 770 l 842 746 l 724 626 q 817 372 817 518 q 731 119 817 226 l 842 6 l 817 -18 l 708 95 z "},"¥":{"ha":736,"x_min":35,"x_max":699,"o":"m 659 412 l 659 379 l 383 379 l 383 233 l 659 233 l 659 199 l 383 199 l 383 0 l 351 0 l 351 199 l 76 199 l 76 233 l 351 233 l 351 379 l 76 379 l 76 412 l 333 412 l 35 888 l 75 888 l 351 450 l 366 419 l 369 419 l 383 450 l 659 888 l 699 888 l 400 412 l 659 412 z "},"¦":{"ha":243,"x_min":105,"x_max":138,"o":"m 138 -183 l 105 -183 l 105 276 l 138 276 l 138 -183 m 138 870 l 138 408 l 105 408 l 105 870 l 138 870 z "},"§":{"ha":747,"x_min":71,"x_max":668,"o":"m 641 327 q 668 225 668 287 q 618 121 668 164 q 482 65 568 77 q 605 -11 568 33 q 641 -125 641 -56 q 567 -280 641 -223 q 360 -336 493 -336 q 149 -268 227 -336 q 71 -73 71 -199 l 103 -72 q 173 -242 103 -182 q 361 -303 243 -303 q 543 -255 478 -303 q 608 -126 608 -207 q 586 -40 608 -73 q 511 19 564 -7 q 370 68 458 45 q 140 161 207 107 q 74 302 74 214 q 120 412 74 369 q 248 468 167 456 q 136 544 170 499 q 101 656 101 589 q 176 810 101 752 q 380 867 251 867 q 582 799 509 867 q 654 604 654 730 l 621 604 q 555 771 621 707 q 376 834 488 834 q 199 787 264 834 q 134 657 134 741 q 156 569 134 602 q 229 510 178 536 q 376 457 285 483 q 556 398 500 426 q 641 328 612 370 l 641 327 m 295 452 q 157 410 207 449 q 108 309 108 370 q 131 214 108 248 q 214 155 155 181 q 423 86 273 128 q 577 126 519 87 q 635 228 635 165 q 610 313 635 279 q 530 375 585 347 q 360 434 474 402 q 295 452 319 443 z "},"¨":{"ha":553,"x_min":113,"x_max":452,"o":"m 170 936 q 165 931 170 936 q 146 926 160 926 q 122 936 132 926 q 113 960 113 946 q 122 984 113 975 q 146 994 132 994 q 170 984 160 994 q 180 960 180 974 q 170 936 180 946 m 452 960 q 452 953 452 960 q 441 936 452 946 q 417 926 431 926 q 394 936 404 926 q 384 960 384 946 q 394 984 384 974 q 417 994 404 994 q 441 984 431 994 q 452 960 452 974 z "},"©":{"ha":1017,"x_min":75,"x_max":942,"o":"m 654 362 l 681 362 l 683 359 q 638 219 685 268 q 503 171 591 171 q 362 236 416 171 q 309 407 309 300 l 309 479 q 362 650 309 585 q 504 715 416 715 q 638 667 591 715 q 684 528 686 618 l 682 525 l 655 525 q 616 644 655 604 q 504 684 578 684 q 386 627 430 684 q 342 480 342 570 l 342 407 q 386 260 342 317 q 504 204 429 204 q 654 362 654 204 m 709 810 q 664 838 709 810 q 509 866 618 866 q 308 810 399 866 q 162 657 216 754 q 109 444 109 559 q 141 277 109 356 q 225 142 172 199 q 353 53 279 86 q 509 20 427 20 q 709 76 617 20 q 854 229 800 132 q 907 443 907 327 q 854 657 907 559 q 709 810 801 754 m 677 21 q 637 4 677 21 q 509 -14 597 -14 q 339 21 420 -14 q 201 118 259 57 q 109 263 143 178 q 75 444 75 349 q 133 675 75 570 q 289 840 190 780 q 508 899 389 899 q 727 840 627 899 q 884 675 827 780 q 942 444 942 570 q 908 263 942 349 q 815 118 873 178 q 677 21 758 57 z "},"ª":{"ha":548,"x_min":102,"x_max":451,"o":"m 255 468 q 142 502 182 468 q 103 600 103 536 q 154 700 103 663 q 298 737 205 737 l 401 737 l 401 779 q 371 879 401 844 q 276 914 340 914 q 174 887 212 914 q 136 805 136 860 l 102 805 q 152 907 102 867 q 277 947 201 947 q 394 903 353 947 q 435 779 435 859 l 435 586 q 451 477 435 532 l 416 477 q 402 549 405 509 q 338 490 378 512 q 255 468 298 468 m 136 599 l 136 599 q 256 503 136 503 q 343 531 298 503 q 401 595 389 559 l 401 705 l 299 705 q 136 599 136 705 z "},"«":{"ha":553,"x_min":82,"x_max":500,"o":"m 305 562 l 125 330 l 305 99 l 262 99 l 82 325 l 82 336 l 262 562 l 305 562 m 500 562 l 320 330 l 500 99 l 457 99 l 277 325 l 277 336 l 457 562 l 500 562 z "},"¬":{"ha":672,"x_min":75,"x_max":559,"o":"m 559 486 l 559 269 l 526 269 l 526 454 l 75 454 l 75 486 l 559 486 z "},"­":{"ha":370,"x_min":33,"x_max":320,"o":"m 320 439 l 320 406 l 33 406 l 33 439 l 320 439 z "},"®":{"ha":1022,"x_min":71,"x_max":938,"o":"m 395 198 l 362 198 l 362 705 l 508 705 q 684 558 684 705 q 591 432 684 471 q 671 305 671 408 q 682 208 671 240 l 682 197 l 646 197 q 637 305 637 220 q 614 387 637 362 q 533 412 590 411 l 395 413 l 395 198 m 395 671 l 395 447 l 521 447 q 615 477 579 447 q 650 563 650 508 q 620 644 650 618 q 516 671 589 669 l 395 671 m 157 655 q 104 444 104 557 q 157 232 104 330 q 302 77 210 135 q 504 20 396 20 q 704 77 611 20 q 849 232 796 134 q 903 444 903 330 q 850 655 903 558 q 704 809 798 751 q 503 866 610 866 q 303 809 396 866 q 157 655 211 753 m 282 48 q 232 80 282 48 q 126 216 181 112 q 71 445 71 321 q 127 674 71 569 q 286 840 184 779 q 504 901 387 901 q 722 840 621 901 q 881 673 824 779 q 938 445 938 568 q 882 217 938 321 q 725 48 827 112 q 504 -15 624 -15 q 282 48 384 -15 z "},"¯":{"ha":495,"x_min":56,"x_max":439,"o":"m 439 984 l 439 951 l 56 951 l 56 984 l 439 984 z "},"°":{"ha":478,"x_min":95,"x_max":381,"o":"m 347 823 q 347 847 347 823 q 316 904 347 872 q 239 935 286 935 q 160 903 192 935 q 129 822 129 870 q 160 743 129 774 q 239 711 191 711 q 316 742 286 711 q 347 823 347 773 m 381 822 q 381 792 381 822 q 339 720 381 762 q 238 677 298 677 q 137 720 179 677 q 95 822 95 762 q 137 925 95 882 q 239 968 180 968 q 339 925 298 968 q 381 822 381 882 z "},"±":{"ha":657,"x_min":44,"x_max":603,"o":"m 584 33 l 584 -1 l 75 -1 l 75 33 l 584 33 m 347 773 l 347 491 l 603 491 l 603 458 l 347 458 l 347 176 l 315 176 l 315 458 l 44 458 l 44 491 l 315 491 l 315 773 l 347 773 z "},"´":{"ha":312,"x_min":77,"x_max":233,"o":"m 77 848 l 193 1010 l 233 1010 l 113 848 l 77 848 z "},"µ":{"ha":684,"x_min":104,"x_max":582,"o":"m 104 632 l 136 632 l 136 229 q 323 -7 140 -7 q 486 48 431 -7 q 549 224 540 103 l 549 632 l 582 632 l 582 -28 l 551 -28 l 549 96 q 328 -41 490 -41 q 136 76 191 -41 l 136 -282 l 104 -282 l 104 632 z "},"¶":{"ha":577,"x_min":60,"x_max":470,"o":"m 470 0 l 437 0 l 437 317 l 359 317 q 200 352 268 317 q 96 453 132 387 q 60 603 60 519 q 141 811 60 734 q 362 888 222 888 l 470 888 l 470 0 z "},"·":{"ha":288,"x_min":109,"x_max":177,"o":"m 177 475 q 177 468 177 475 q 167 451 177 461 q 143 441 157 441 q 119 451 129 441 q 109 475 109 461 q 119 499 109 489 q 143 509 129 509 q 167 499 157 509 q 177 475 177 489 z "},"¸":{"ha":299,"x_min":50,"x_max":228,"o":"m 228 -179 q 181 -263 228 -232 q 54 -295 135 -295 l 50 -265 q 153 -241 112 -265 q 194 -180 194 -217 q 170 -127 194 -144 q 79 -103 146 -111 l 94 -30 l 126 -31 l 119 -77 q 228 -179 228 -85 z "},"º":{"ha":558,"x_min":90,"x_max":462,"o":"m 123 740 l 123 672 q 164 546 123 591 q 276 501 205 501 q 389 548 348 501 q 430 674 430 594 l 430 743 q 388 868 430 821 q 276 915 347 915 q 164 868 205 915 q 123 740 123 822 m 90 675 l 90 743 q 141 891 90 836 q 276 947 192 947 q 411 891 361 947 q 462 740 462 836 l 462 672 q 411 524 462 580 q 277 468 361 468 q 141 524 193 468 q 90 675 90 579 z "},"»":{"ha":547,"x_min":71,"x_max":490,"o":"m 71 585 l 113 585 l 293 353 l 293 342 l 113 116 l 71 116 l 250 347 l 71 585 m 267 585 l 310 585 l 490 353 l 490 342 l 310 116 l 267 116 l 446 347 l 267 585 z "},"¼":{"ha":895,"x_min":204,"x_max":665,"o":"m 665 789 l 231 94 l 204 113 l 637 808 l 665 789 z "},"½":{"ha":920,"x_min":178,"x_max":639,"o":"m 639 789 l 205 94 l 178 113 l 611 808 l 639 789 z "},"¾":{"ha":968,"x_min":303,"x_max":764,"o":"m 764 789 l 330 94 l 303 113 l 736 808 l 764 789 z "},"¿":{"ha":557,"x_min":65,"x_max":497,"o":"m 99 -35 q 147 -176 99 -126 q 280 -225 195 -225 q 414 -176 366 -225 q 465 -38 462 -126 l 497 -38 q 438 -199 496 -140 q 280 -258 380 -258 q 123 -197 180 -258 q 65 -35 65 -136 q 98 103 65 42 q 220 245 131 165 q 265 295 251 270 q 280 356 279 320 l 281 398 l 315 399 q 308 316 313 339 q 288 274 302 294 q 237 221 273 254 l 190 174 q 120 77 142 126 q 99 -35 99 27 m 260 613 q 260 620 260 613 q 271 636 260 627 q 295 646 281 646 q 318 636 309 646 q 328 613 328 627 q 318 589 328 599 q 295 578 309 578 q 271 589 281 578 q 260 613 260 599 z "},"À":{"ha":747,"x_min":19,"x_max":724,"o":"m 688 0 l 588 266 l 154 266 l 55 0 l 19 0 l 351 888 l 391 888 l 724 0 l 688 0 m 353 799 l 166 298 l 576 298 l 390 799 l 373 849 l 369 849 l 353 799 m 288 1199 l 422 1040 l 420 1037 l 374 1037 l 232 1196 l 233 1199 l 288 1199 z "},"Á":{"ha":747,"x_min":19,"x_max":724,"o":"m 688 0 l 588 266 l 154 266 l 55 0 l 19 0 l 351 888 l 391 888 l 724 0 l 688 0 m 353 799 l 166 298 l 576 298 l 390 799 l 373 849 l 369 849 l 353 799 m 377 1064 l 493 1226 l 533 1226 l 414 1064 l 377 1064 z "},"Â":{"ha":747,"x_min":19,"x_max":724,"o":"m 688 0 l 588 266 l 154 266 l 55 0 l 19 0 l 351 888 l 391 888 l 724 0 l 688 0 m 353 799 l 166 298 l 576 298 l 390 799 l 373 849 l 369 849 l 353 799 m 541 1074 l 499 1074 l 385 1193 l 272 1074 l 233 1074 l 233 1082 l 374 1228 l 398 1228 l 541 1080 l 541 1074 z "},"Ã":{"ha":747,"x_min":19,"x_max":724,"o":"m 688 0 l 588 266 l 154 266 l 55 0 l 19 0 l 351 888 l 391 888 l 724 0 l 688 0 m 353 799 l 166 298 l 576 298 l 390 799 l 373 849 l 369 849 l 353 799 m 553 1212 l 586 1212 q 555 1131 586 1162 q 479 1099 525 1099 q 418 1118 451 1099 q 354 1156 385 1137 q 303 1175 324 1175 q 250 1154 269 1175 q 230 1099 230 1133 l 196 1099 q 226 1177 196 1147 q 303 1208 256 1208 q 397 1170 342 1208 q 482 1133 452 1133 q 532 1154 511 1133 q 553 1212 553 1176 z "},"Ä":{"ha":747,"x_min":19,"x_max":724,"o":"m 688 0 l 588 266 l 154 266 l 55 0 l 19 0 l 351 888 l 391 888 l 724 0 l 688 0 m 353 799 l 166 298 l 576 298 l 390 799 l 373 849 l 369 849 l 353 799 m 278 1153 q 273 1148 278 1153 q 254 1143 268 1143 q 230 1153 239 1143 q 220 1177 220 1162 q 230 1201 220 1191 q 254 1211 239 1211 q 278 1200 268 1211 q 288 1176 288 1190 q 278 1153 288 1162 m 559 1176 q 559 1169 559 1176 q 549 1153 559 1162 q 525 1143 539 1143 q 502 1153 511 1143 q 492 1176 492 1162 q 502 1200 492 1190 q 525 1211 511 1211 q 549 1200 539 1211 q 559 1176 559 1190 z "},"Å":{"ha":747,"x_min":19,"x_max":724,"o":"m 688 0 l 588 266 l 154 266 l 55 0 l 19 0 l 351 888 l 391 888 l 724 0 l 688 0 m 353 799 l 166 298 l 576 298 l 390 799 l 373 849 l 369 849 l 353 799 m 467 1143 q 467 1159 467 1143 q 447 1195 467 1175 q 395 1215 427 1215 q 343 1195 363 1215 q 323 1143 323 1175 q 343 1091 323 1110 q 395 1072 363 1072 q 447 1091 427 1072 q 467 1143 467 1110 m 396 1038 q 374 1038 396 1038 q 321 1068 352 1038 q 291 1142 291 1097 q 321 1218 291 1187 q 395 1249 352 1249 q 469 1217 439 1249 q 499 1142 499 1186 q 469 1068 499 1098 q 396 1038 439 1038 z "},"Æ":{"ha":1108,"x_min":31,"x_max":1079,"o":"m 1079 33 l 1079 0 l 620 0 l 609 260 l 227 260 l 71 0 l 31 0 l 568 888 l 1042 888 l 1042 856 l 617 856 l 633 479 l 992 479 l 992 447 l 634 447 l 651 33 l 1079 33 m 584 853 l 246 292 l 608 292 l 584 853 z "},"Ç":{"ha":810,"x_min":79,"x_max":709,"o":"m 557 -185 q 510 -270 557 -238 q 382 -301 464 -301 l 378 -271 q 482 -247 441 -271 q 523 -186 523 -223 q 499 -133 523 -150 q 408 -109 475 -117 l 423 -36 l 455 -37 l 448 -83 q 557 -185 557 -92 m 677 271 l 706 271 l 707 267 q 626 59 709 132 q 399 -14 543 -14 q 166 93 254 -14 q 79 376 79 200 l 79 509 q 166 793 79 686 q 398 900 254 900 q 626 827 543 900 q 707 620 709 753 l 706 616 l 677 616 q 604 802 677 736 q 399 867 530 867 q 190 769 269 867 q 111 511 111 671 l 111 376 q 190 117 111 214 q 400 19 269 19 q 605 83 532 19 q 677 271 677 146 z "},"È":{"ha":711,"x_min":110,"x_max":650,"o":"m 589 479 l 589 447 l 143 447 l 143 33 l 650 33 l 650 0 l 110 0 l 110 888 l 650 888 l 650 856 l 143 856 l 143 479 l 589 479 m 282 1199 l 416 1040 l 415 1037 l 369 1037 l 227 1196 l 228 1199 l 282 1199 z "},"É":{"ha":711,"x_min":110,"x_max":650,"o":"m 589 479 l 589 447 l 143 447 l 143 33 l 650 33 l 650 0 l 110 0 l 110 888 l 650 888 l 650 856 l 143 856 l 143 479 l 589 479 m 372 1064 l 488 1226 l 528 1226 l 408 1064 l 372 1064 z "},"Ê":{"ha":711,"x_min":110,"x_max":650,"o":"m 589 479 l 589 447 l 143 447 l 143 33 l 650 33 l 650 0 l 110 0 l 110 888 l 650 888 l 650 856 l 143 856 l 143 479 l 589 479 m 535 1074 l 494 1074 l 380 1193 l 267 1074 l 228 1074 l 228 1082 l 368 1228 l 393 1228 l 535 1080 l 535 1074 z "},"Ë":{"ha":711,"x_min":110,"x_max":650,"o":"m 589 479 l 589 447 l 143 447 l 143 33 l 650 33 l 650 0 l 110 0 l 110 888 l 650 888 l 650 856 l 143 856 l 143 479 l 589 479 m 273 1153 q 268 1148 273 1153 q 248 1143 262 1143 q 224 1153 234 1143 q 215 1177 215 1162 q 224 1201 215 1191 q 248 1211 234 1211 q 273 1200 262 1211 q 283 1176 283 1190 q 273 1153 283 1162 m 554 1176 q 554 1169 554 1176 q 544 1153 554 1162 q 520 1143 534 1143 q 496 1153 506 1143 q 486 1176 486 1162 q 496 1200 486 1190 q 520 1211 506 1211 q 544 1200 534 1211 q 554 1176 554 1190 z "},"Ì":{"ha":326,"x_min":-1,"x_max":189,"o":"m 177 888 l 177 0 l 144 0 l 144 888 l 177 888 m 54 1199 l 189 1040 l 187 1037 l 141 1037 l -1 1196 l 0 1199 l 54 1199 z "},"Í":{"ha":326,"x_min":132,"x_max":288,"o":"m 165 888 l 165 0 l 132 0 l 132 888 l 165 888 m 132 1064 l 248 1226 l 288 1226 l 168 1064 l 132 1064 z "},"Î":{"ha":326,"x_min":1,"x_max":309,"o":"m 178 888 l 178 0 l 145 0 l 145 888 l 178 888 m 309 1074 l 267 1074 l 153 1193 l 40 1074 l 1 1074 l 1 1082 l 142 1228 l 166 1228 l 309 1080 l 309 1074 z "},"Ï":{"ha":326,"x_min":-10,"x_max":329,"o":"m 180 888 l 180 0 l 146 0 l 146 888 l 180 888 m 47 1153 q 42 1148 47 1153 q 23 1143 37 1143 q -1 1153 9 1143 q -10 1177 -10 1162 q -1 1201 -10 1191 q 23 1211 9 1211 q 47 1200 37 1211 q 58 1176 58 1190 q 47 1153 58 1162 m 329 1176 q 329 1169 329 1176 q 319 1153 329 1162 q 295 1143 309 1143 q 271 1153 281 1143 q 261 1176 261 1162 q 271 1200 261 1190 q 295 1211 281 1211 q 319 1200 309 1211 q 329 1176 329 1190 z "},"Ð":{"ha":836,"x_min":37,"x_max":753,"o":"m 395 468 l 395 435 l 174 435 l 174 33 l 380 33 q 626 134 532 33 q 720 395 720 235 l 720 500 q 678 682 720 601 q 559 808 636 762 q 391 856 484 855 l 174 856 l 174 468 l 395 468 m 389 0 l 140 0 l 140 435 l 37 435 l 37 468 l 140 468 l 140 888 l 387 888 q 573 840 490 888 q 705 703 656 791 q 753 505 753 614 l 753 390 q 707 190 753 279 q 576 51 661 101 q 389 0 492 0 z "},"Ñ":{"ha":884,"x_min":109,"x_max":749,"o":"m 749 888 l 749 0 l 716 0 l 146 827 l 142 827 l 142 0 l 109 0 l 109 888 l 142 888 l 712 63 l 716 64 l 716 888 l 749 888 m 618 1212 l 652 1212 q 621 1131 652 1162 q 545 1099 591 1099 q 484 1118 517 1099 q 420 1156 450 1137 q 369 1175 390 1175 q 315 1154 335 1175 q 296 1099 296 1133 l 262 1099 q 292 1177 262 1147 q 369 1208 322 1208 q 463 1170 408 1208 q 548 1133 518 1133 q 598 1154 577 1133 q 618 1212 618 1176 z "},"Ò":{"ha":833,"x_min":73,"x_max":743,"o":"m 710 376 l 710 511 q 631 772 710 677 q 408 867 552 867 q 185 772 264 867 q 106 511 106 677 l 106 376 q 185 114 106 209 q 409 19 264 19 q 632 114 553 19 q 710 376 710 208 m 743 509 l 743 376 q 654 91 743 195 q 408 -14 565 -14 q 162 90 252 -14 q 73 376 73 195 l 73 509 q 162 795 73 691 q 407 900 251 900 q 653 795 564 900 q 743 509 743 690 m 325 1213 l 459 1055 l 458 1051 l 412 1051 l 269 1211 l 271 1213 l 325 1213 z "},"Ó":{"ha":833,"x_min":73,"x_max":743,"o":"m 709 376 l 709 511 q 630 772 709 677 q 407 867 551 867 q 184 772 263 867 q 106 511 106 677 l 106 376 q 185 114 106 209 q 408 19 264 19 q 631 114 553 19 q 709 376 709 208 m 743 509 l 743 376 q 653 91 743 195 q 408 -14 564 -14 q 162 90 251 -14 q 73 376 73 195 l 73 509 q 161 795 73 691 q 407 900 250 900 q 653 795 563 900 q 743 509 743 690 m 414 1078 l 530 1240 l 570 1240 l 450 1078 l 414 1078 z "},"Ô":{"ha":833,"x_min":73,"x_max":743,"o":"m 709 376 l 709 511 q 630 772 709 677 q 407 867 551 867 q 184 772 263 867 q 106 511 106 677 l 106 376 q 185 114 106 209 q 408 19 264 19 q 631 114 553 19 q 709 376 709 208 m 743 509 l 743 376 q 653 91 743 195 q 408 -14 564 -14 q 162 90 251 -14 q 73 376 73 195 l 73 509 q 161 795 73 691 q 407 900 250 900 q 653 795 563 900 q 743 509 743 690 m 577 1074 l 536 1074 l 422 1193 l 309 1074 l 270 1074 l 270 1082 l 410 1228 l 435 1228 l 577 1080 l 577 1074 z "},"Õ":{"ha":833,"x_min":73,"x_max":743,"o":"m 709 376 l 709 511 q 630 772 709 677 q 407 867 551 867 q 184 772 263 867 q 106 511 106 677 l 106 376 q 185 114 106 209 q 408 19 264 19 q 631 114 553 19 q 709 376 709 208 m 743 509 l 743 376 q 653 91 743 195 q 408 -14 564 -14 q 162 90 251 -14 q 73 376 73 195 l 73 509 q 161 795 73 691 q 407 900 250 900 q 653 795 563 900 q 743 509 743 690 m 589 1226 l 623 1226 q 592 1145 623 1177 q 515 1113 562 1113 q 467 1125 493 1113 q 422 1152 441 1137 q 338 1190 370 1190 q 286 1168 306 1190 q 267 1113 267 1147 l 233 1113 q 263 1192 233 1161 q 340 1222 293 1222 q 401 1203 367 1222 q 466 1165 435 1184 q 515 1147 496 1147 q 569 1168 548 1147 q 589 1226 589 1190 z "},"Ö":{"ha":833,"x_min":73,"x_max":743,"o":"m 709 376 l 709 511 q 630 772 709 677 q 407 867 551 867 q 184 772 263 867 q 106 511 106 677 l 106 376 q 185 114 106 209 q 408 19 264 19 q 631 114 553 19 q 709 376 709 208 m 743 509 l 743 376 q 653 91 743 195 q 408 -14 564 -14 q 162 90 251 -14 q 73 376 73 195 l 73 509 q 161 795 73 691 q 407 900 250 900 q 653 795 563 900 q 743 509 743 690 m 315 1167 q 310 1162 315 1167 q 290 1157 304 1157 q 267 1167 276 1157 q 257 1191 257 1177 q 267 1215 257 1205 q 290 1225 276 1225 q 315 1215 304 1225 q 325 1191 325 1204 q 315 1167 325 1177 m 596 1191 q 596 1184 596 1191 q 586 1167 596 1177 q 562 1157 576 1157 q 538 1167 548 1157 q 528 1191 528 1177 q 538 1215 528 1204 q 562 1225 548 1225 q 586 1215 576 1225 q 596 1191 596 1204 z "},"×":{"ha":642,"x_min":60,"x_max":576,"o":"m 83 171 l 60 193 l 294 433 l 77 656 l 100 680 l 317 457 l 535 680 l 559 656 l 341 433 l 576 193 l 553 171 l 318 410 l 83 171 z "},"Ø":{"ha":833,"x_min":81,"x_max":757,"o":"m 751 373 q 710 169 751 257 q 593 31 669 80 q 417 -18 517 -18 q 213 51 299 -18 l 149 -51 l 108 -51 l 187 75 q 81 380 81 181 l 81 507 q 122 710 81 622 q 240 847 163 799 q 416 896 317 896 q 649 800 556 896 l 717 907 l 757 907 l 671 773 q 751 507 750 670 l 751 373 m 718 378 l 718 507 q 653 744 718 652 l 231 79 q 417 16 306 16 q 637 112 557 16 q 718 378 718 209 m 115 503 l 115 373 q 205 102 115 198 l 631 772 q 413 863 550 863 q 196 766 277 863 q 115 503 115 670 z "},"Ù":{"ha":833,"x_min":101,"x_max":708,"o":"m 675 887 l 708 887 l 708 285 q 626 64 708 142 q 405 -14 544 -14 q 183 64 265 -14 q 101 285 101 142 l 101 887 l 134 887 l 134 285 q 208 90 134 161 q 405 19 283 19 q 601 90 526 19 q 675 285 675 161 l 675 887 m 336 1199 l 470 1040 l 469 1037 l 422 1037 l 280 1196 l 281 1199 l 336 1199 z "},"Ú":{"ha":833,"x_min":100,"x_max":707,"o":"m 674 887 l 707 887 l 707 285 q 625 64 707 142 q 403 -14 543 -14 q 182 64 264 -14 q 100 285 100 142 l 100 887 l 132 887 l 132 285 q 207 90 132 161 q 403 19 281 19 q 600 90 525 19 q 674 285 674 161 l 674 887 m 425 1064 l 541 1226 l 581 1226 l 461 1064 l 425 1064 z "},"Û":{"ha":833,"x_min":100,"x_max":707,"o":"m 674 887 l 707 887 l 707 285 q 625 64 707 142 q 403 -14 543 -14 q 182 64 264 -14 q 100 285 100 142 l 100 887 l 132 887 l 132 285 q 207 90 132 161 q 403 19 281 19 q 600 90 525 19 q 674 285 674 161 l 674 887 m 588 1074 l 547 1074 l 433 1193 l 319 1074 l 281 1074 l 281 1082 l 421 1228 l 446 1228 l 588 1080 l 588 1074 z "},"Ü":{"ha":833,"x_min":100,"x_max":707,"o":"m 674 887 l 707 887 l 707 285 q 625 64 707 142 q 403 -14 543 -14 q 182 64 264 -14 q 100 285 100 142 l 100 887 l 132 887 l 132 285 q 207 90 132 161 q 403 19 281 19 q 600 90 525 19 q 674 285 674 161 l 674 887 m 326 1153 q 320 1148 326 1153 q 301 1143 315 1143 q 277 1153 287 1143 q 268 1177 268 1162 q 277 1201 268 1191 q 301 1211 287 1211 q 326 1200 315 1211 q 336 1176 336 1190 q 326 1153 336 1162 m 607 1176 q 607 1169 607 1176 q 597 1153 607 1162 q 573 1143 587 1143 q 549 1153 559 1143 q 539 1176 539 1162 q 549 1200 539 1190 q 573 1211 559 1211 q 597 1200 587 1211 q 607 1176 607 1190 z "},"Ý":{"ha":747,"x_min":20,"x_max":722,"o":"m 387 0 l 354 0 l 354 338 l 20 888 l 60 888 l 354 395 l 370 364 l 386 395 l 681 888 l 722 888 l 387 338 l 387 0 m 374 1057 l 490 1219 l 530 1219 l 411 1057 l 374 1057 z "},"Þ":{"ha":744,"x_min":122,"x_max":656,"o":"m 155 665 l 155 237 l 382 237 q 557 296 491 237 q 623 450 623 355 q 560 603 623 544 q 391 665 496 663 l 155 665 m 122 888 l 155 888 l 155 698 l 385 698 q 584 629 511 696 q 656 451 656 562 q 585 273 656 340 q 390 204 513 206 l 155 204 l 155 0 l 122 0 l 122 888 z "},"ß":{"ha":722,"x_min":101,"x_max":649,"o":"m 101 -1 l 101 697 q 152 875 101 814 q 302 936 203 936 q 436 887 380 936 q 492 766 492 838 q 474 687 492 732 q 437 593 456 641 q 419 507 419 545 q 444 438 419 470 q 532 359 469 406 q 622 271 595 313 q 649 178 649 230 q 618 82 649 127 q 532 12 587 38 q 425 -14 478 -14 q 315 3 371 -14 q 234 41 258 20 l 249 71 q 326 34 277 49 q 419 19 375 19 q 558 67 502 19 q 615 186 615 115 q 590 260 615 226 q 501 341 565 294 q 411 425 437 387 q 385 508 385 462 q 420 643 385 553 q 454 767 454 732 q 410 862 454 822 q 307 903 366 903 q 133 703 136 903 l 134 -1 l 101 -1 z "},"à":{"ha":660,"x_min":52,"x_max":564,"o":"m 515 119 q 411 21 479 57 q 250 -16 342 -16 q 104 35 157 -16 q 52 170 52 85 q 130 310 52 254 q 326 366 208 366 l 515 366 l 515 463 q 462 591 515 545 q 316 637 409 637 q 169 594 224 637 q 115 482 115 551 l 87 483 l 85 486 q 146 617 82 564 q 315 670 210 670 q 484 616 421 670 q 547 461 547 562 l 547 130 q 564 -2 547 55 l 528 -2 q 514 111 514 71 l 515 119 m 328 334 q 154 287 224 334 q 83 171 83 239 q 129 60 83 102 q 248 18 174 18 q 414 61 346 18 q 514 185 481 104 l 514 334 l 328 334 m 260 983 l 395 824 l 393 821 l 347 821 l 205 980 l 206 983 l 260 983 z "},"á":{"ha":660,"x_min":52,"x_max":564,"o":"m 515 119 q 411 21 479 57 q 250 -16 342 -16 q 104 35 157 -16 q 52 170 52 85 q 130 310 52 254 q 326 366 208 366 l 515 366 l 515 463 q 462 591 515 545 q 316 637 409 637 q 169 594 224 637 q 115 482 115 551 l 87 483 l 85 486 q 146 617 82 564 q 315 670 210 670 q 484 616 421 670 q 547 461 547 562 l 547 130 q 564 -2 547 55 l 528 -2 q 514 111 514 71 l 515 119 m 328 334 q 154 287 224 334 q 83 171 83 239 q 129 60 83 102 q 248 18 174 18 q 414 61 346 18 q 514 185 481 104 l 514 334 l 328 334 m 350 848 l 466 1010 l 506 1010 l 387 848 l 350 848 z "},"â":{"ha":660,"x_min":52,"x_max":564,"o":"m 515 119 q 411 21 479 57 q 250 -16 342 -16 q 104 35 157 -16 q 52 170 52 85 q 130 310 52 254 q 326 366 208 366 l 515 366 l 515 463 q 462 591 515 545 q 316 637 409 637 q 169 594 224 637 q 115 482 115 551 l 87 483 l 85 486 q 146 617 82 564 q 315 670 210 670 q 484 616 421 670 q 547 461 547 562 l 547 130 q 564 -2 547 55 l 528 -2 q 514 111 514 71 l 515 119 m 328 334 q 154 287 224 334 q 83 171 83 239 q 129 60 83 102 q 248 18 174 18 q 414 61 346 18 q 514 185 481 104 l 514 334 l 328 334 m 513 857 l 472 857 l 358 977 l 245 857 l 206 857 l 206 866 l 347 1012 l 371 1012 l 513 863 l 513 857 z "},"ã":{"ha":660,"x_min":52,"x_max":564,"o":"m 515 119 q 411 21 479 57 q 250 -16 342 -16 q 104 35 157 -16 q 52 170 52 85 q 130 310 52 254 q 326 366 208 366 l 515 366 l 515 463 q 462 591 515 545 q 316 637 409 637 q 169 594 224 637 q 115 482 115 551 l 87 483 l 85 486 q 146 617 82 564 q 315 670 210 670 q 484 616 421 670 q 547 461 547 562 l 547 130 q 564 -2 547 55 l 528 -2 q 514 111 514 71 l 515 119 m 328 334 q 154 287 224 334 q 83 171 83 239 q 129 60 83 102 q 248 18 174 18 q 414 61 346 18 q 514 185 481 104 l 514 334 l 328 334 m 526 995 l 559 995 q 528 913 559 945 q 452 882 498 882 q 391 901 424 882 q 327 939 357 920 q 276 958 297 958 q 222 937 242 958 q 203 882 203 916 l 169 882 q 199 960 169 930 q 276 991 229 991 q 370 953 315 991 q 455 916 425 916 q 505 937 484 916 q 526 995 526 959 z "},"ä":{"ha":660,"x_min":52,"x_max":564,"o":"m 515 119 q 411 21 479 57 q 250 -16 342 -16 q 104 35 157 -16 q 52 170 52 85 q 130 310 52 254 q 326 366 208 366 l 515 366 l 515 463 q 462 591 515 545 q 316 637 409 637 q 169 594 224 637 q 115 482 115 551 l 87 483 l 85 486 q 146 617 82 564 q 315 670 210 670 q 484 616 421 670 q 547 461 547 562 l 547 130 q 564 -2 547 55 l 528 -2 q 514 111 514 71 l 515 119 m 328 334 q 154 287 224 334 q 83 171 83 239 q 129 60 83 102 q 248 18 174 18 q 414 61 346 18 q 514 185 481 104 l 514 334 l 328 334 m 251 936 q 246 931 251 936 q 227 926 241 926 q 203 936 212 926 q 193 960 193 946 q 203 984 193 975 q 227 994 212 994 q 251 984 241 994 q 261 960 261 974 q 251 936 261 946 m 532 960 q 532 953 532 960 q 522 936 532 946 q 498 926 512 926 q 474 936 484 926 q 465 960 465 946 q 474 984 465 974 q 498 994 484 994 q 522 984 512 994 q 532 960 532 974 z "},"å":{"ha":660,"x_min":51,"x_max":564,"o":"m 514 119 q 410 21 479 57 q 249 -16 342 -16 q 103 35 156 -16 q 51 170 51 85 q 129 310 51 254 q 326 366 208 366 l 514 366 l 514 463 q 461 591 514 545 q 316 637 408 637 q 169 594 223 637 q 114 482 114 551 l 86 483 l 85 486 q 145 617 81 564 q 315 670 209 670 q 484 616 420 670 q 547 461 547 562 l 547 130 q 564 -2 547 55 l 527 -2 q 513 111 513 71 l 514 119 m 327 334 q 153 287 223 334 q 83 171 83 239 q 128 60 83 102 q 248 18 174 18 q 413 61 345 18 q 513 185 481 104 l 513 334 l 327 334 m 439 926 q 439 943 439 926 q 419 979 439 959 q 367 999 399 999 q 316 979 336 999 q 296 926 296 959 q 316 874 296 894 q 367 855 336 855 q 419 874 399 855 q 439 926 439 894 m 368 822 q 346 822 368 822 q 294 851 324 822 q 263 926 263 881 q 294 1002 263 971 q 368 1032 324 1032 q 441 1001 411 1032 q 471 926 471 970 q 441 852 471 882 q 368 822 412 822 z "},"æ":{"ha":1059,"x_min":57,"x_max":1011,"o":"m 979 404 q 921 575 979 511 q 767 638 864 638 q 608 569 671 638 q 533 385 545 500 l 979 385 l 979 404 m 774 -14 q 625 26 686 -14 q 530 139 563 66 l 530 132 l 530 132 q 431 26 500 66 q 266 -14 361 -14 q 114 36 171 -14 q 57 178 57 85 q 124 326 57 270 q 315 383 192 382 l 496 383 l 496 438 q 452 587 496 535 q 315 638 408 638 q 164 592 222 638 q 106 469 106 546 l 74 473 q 142 617 74 562 q 318 671 210 671 q 458 627 405 671 q 525 496 511 582 q 622 625 559 579 q 765 671 685 671 q 945 600 880 671 q 1011 399 1011 528 l 1011 351 l 531 351 l 531 304 q 595 95 531 170 q 778 20 659 20 q 977 99 898 20 l 995 73 q 896 6 947 26 q 774 -14 844 -14 m 496 350 l 313 350 q 150 299 210 348 q 90 170 90 251 q 172 37 90 73 q 268 19 214 19 q 369 36 321 19 q 452 82 417 53 q 496 136 488 111 l 496 350 z "},"ç":{"ha":634,"x_min":52,"x_max":566,"o":"m 471 -185 q 424 -270 471 -238 q 296 -301 378 -301 l 292 -271 q 396 -247 355 -271 q 437 -186 437 -223 q 413 -133 437 -150 q 321 -109 389 -117 l 337 -36 l 369 -37 l 362 -83 q 471 -185 471 -92 m 85 316 q 146 99 85 180 q 322 19 207 19 q 473 67 412 19 q 534 202 534 115 l 562 202 l 564 198 q 494 45 566 104 q 322 -14 422 -14 q 124 76 197 -14 q 52 316 52 165 l 52 342 q 124 582 52 492 q 321 671 196 671 q 497 610 428 671 q 564 441 566 548 l 562 438 l 534 438 q 474 585 534 532 q 321 638 414 638 q 146 557 208 638 q 85 342 85 477 l 85 316 z "},"è":{"ha":630,"x_min":47,"x_max":575,"o":"m 542 404 l 541 404 q 480 572 541 506 q 321 638 419 638 q 159 568 224 638 q 85 387 94 497 l 87 384 l 542 384 l 542 404 m 324 -14 q 128 77 209 -14 q 47 304 47 169 l 47 343 q 126 578 47 485 q 320 671 205 671 q 505 598 435 671 q 575 401 575 525 l 575 351 l 80 351 l 80 304 q 150 101 80 183 q 324 19 220 19 q 447 39 397 19 q 533 99 497 58 l 551 74 q 324 -14 471 -14 m 253 982 l 387 823 l 386 820 l 340 820 l 197 979 l 199 982 l 253 982 z "},"é":{"ha":630,"x_min":47,"x_max":575,"o":"m 542 404 l 541 404 q 480 572 541 506 q 321 638 419 638 q 159 568 224 638 q 85 387 94 497 l 87 384 l 542 384 l 542 404 m 324 -14 q 128 77 209 -14 q 47 304 47 169 l 47 343 q 126 578 47 485 q 320 671 205 671 q 505 598 435 671 q 575 401 575 525 l 575 351 l 80 351 l 80 304 q 150 101 80 183 q 324 19 220 19 q 447 39 397 19 q 533 99 497 58 l 551 74 q 324 -14 471 -14 m 342 847 l 458 1009 l 498 1009 l 379 847 l 342 847 z "},"ê":{"ha":630,"x_min":47,"x_max":575,"o":"m 542 404 l 541 404 q 480 572 541 506 q 321 638 419 638 q 159 568 224 638 q 85 387 94 497 l 87 384 l 542 384 l 542 404 m 324 -14 q 128 77 209 -14 q 47 304 47 169 l 47 343 q 126 578 47 485 q 320 671 205 671 q 505 598 435 671 q 575 401 575 525 l 575 351 l 80 351 l 80 304 q 150 101 80 183 q 324 19 220 19 q 447 39 397 19 q 533 99 497 58 l 551 74 q 324 -14 471 -14 m 506 857 l 465 857 l 351 977 l 237 857 l 199 857 l 199 866 l 339 1012 l 363 1012 l 506 863 l 506 857 z "},"ë":{"ha":630,"x_min":47,"x_max":575,"o":"m 542 404 l 541 404 q 480 572 541 506 q 321 638 419 638 q 159 568 224 638 q 85 387 94 497 l 87 384 l 542 384 l 542 404 m 324 -14 q 128 77 209 -14 q 47 304 47 169 l 47 343 q 126 578 47 485 q 320 671 205 671 q 505 598 435 671 q 575 401 575 525 l 575 351 l 80 351 l 80 304 q 150 101 80 183 q 324 19 220 19 q 447 39 397 19 q 533 99 497 58 l 551 74 q 324 -14 471 -14 m 243 936 q 238 931 243 936 q 219 926 233 926 q 195 936 205 926 q 186 960 186 945 q 195 984 186 974 q 219 994 205 994 q 243 983 233 994 q 254 959 254 973 q 243 936 254 945 m 525 959 q 525 952 525 959 q 515 936 525 945 q 491 926 505 926 q 467 936 477 926 q 457 959 457 945 q 467 983 457 973 q 491 994 477 994 q 515 983 505 994 q 525 959 525 973 z "},"ì":{"ha":248,"x_min":-37,"x_max":153,"o":"m 145 661 l 145 0 l 112 0 l 112 661 l 145 661 m 18 967 l 153 808 l 151 805 l 105 805 l -37 964 l -36 967 l 18 967 z "},"í":{"ha":248,"x_min":95,"x_max":251,"o":"m 133 661 l 133 0 l 100 0 l 100 661 l 133 661 m 95 832 l 211 994 l 251 994 l 132 832 l 95 832 z "},"î":{"ha":248,"x_min":-34,"x_max":273,"o":"m 148 661 l 148 0 l 115 0 l 115 661 l 148 661 m 273 857 l 232 857 l 118 977 l 5 857 l -34 857 l -34 866 l 106 1012 l 131 1012 l 273 863 l 273 857 z "},"ï":{"ha":248,"x_min":-46,"x_max":293,"o":"m 148 661 l 148 0 l 115 0 l 115 661 l 148 661 m 12 921 q 6 916 12 921 q -13 911 1 911 q -37 921 -27 911 q -46 945 -46 930 q -37 969 -46 959 q -13 979 -27 979 q 12 968 1 979 q 22 944 22 958 q 12 921 22 930 m 293 944 q 293 937 293 944 q 283 921 293 930 q 259 911 273 911 q 235 921 245 911 q 225 944 225 930 q 235 968 225 958 q 259 979 245 979 q 283 968 273 979 q 293 944 293 958 z "},"ð":{"ha":722,"x_min":106,"x_max":635,"o":"m 367 545 q 199 476 258 545 q 139 283 139 407 q 171 151 139 212 q 258 56 202 90 q 387 22 313 22 q 541 103 482 22 q 602 316 600 184 l 602 375 l 602 409 q 511 509 574 473 q 367 545 449 545 m 635 374 l 635 326 q 604 151 635 227 q 515 30 573 74 q 381 -14 456 -14 q 241 25 305 -14 q 142 131 178 63 q 106 283 106 199 q 174 502 106 424 q 367 581 243 581 q 499 553 438 581 q 596 475 560 526 q 459 780 574 663 l 315 700 l 298 729 l 433 804 q 206 930 345 880 l 218 961 q 464 821 372 905 l 587 890 l 605 861 l 490 797 q 600 617 564 720 q 635 374 635 514 z "},"ñ":{"ha":684,"x_min":94,"x_max":571,"o":"m 94 661 l 121 661 l 126 524 q 355 673 189 673 q 518 604 465 673 q 571 389 571 536 l 571 0 l 538 0 l 538 390 q 491 581 538 523 q 355 640 444 640 q 196 579 252 640 q 126 412 140 519 l 126 0 l 94 0 l 94 661 m 520 994 l 553 994 q 523 912 553 944 q 446 880 492 880 q 385 899 418 880 q 322 938 352 918 q 271 957 292 957 q 217 936 237 957 q 197 880 197 915 l 163 880 q 194 959 163 928 q 271 989 224 989 q 365 952 310 989 q 449 914 420 914 q 499 936 479 914 q 520 994 520 958 z "},"ò":{"ha":688,"x_min":47,"x_max":626,"o":"m 81 342 l 81 316 q 151 103 81 188 q 338 19 222 19 q 472 59 414 19 q 562 165 531 98 q 593 316 593 233 l 593 342 q 522 552 593 467 q 336 638 450 638 q 201 598 260 638 q 112 490 142 557 q 81 342 81 423 m 47 316 l 47 342 q 128 580 47 488 q 337 671 208 671 q 546 580 466 671 q 626 342 626 488 l 626 316 q 546 78 626 170 q 337 -14 466 -14 q 128 78 208 -14 q 47 316 47 170 m 254 981 l 388 823 l 387 819 l 340 819 l 198 979 l 199 981 l 254 981 z "},"ó":{"ha":688,"x_min":47,"x_max":626,"o":"m 81 342 l 81 316 q 151 103 81 188 q 338 19 222 19 q 472 59 414 19 q 562 165 531 98 q 593 316 593 233 l 593 342 q 522 552 593 467 q 336 638 450 638 q 201 598 260 638 q 112 490 142 557 q 81 342 81 423 m 47 316 l 47 342 q 128 580 47 488 q 337 671 208 671 q 546 580 466 671 q 626 342 626 488 l 626 316 q 546 78 626 170 q 337 -14 466 -14 q 128 78 208 -14 q 47 316 47 170 m 343 846 l 459 1008 l 499 1008 l 380 846 l 343 846 z "},"ô":{"ha":688,"x_min":47,"x_max":625,"o":"m 80 342 l 80 316 q 151 103 80 188 q 337 19 221 19 q 472 59 413 19 q 561 165 530 98 q 592 316 592 233 l 592 342 q 521 552 592 467 q 336 638 450 638 q 201 598 260 638 q 111 490 142 557 q 80 342 80 423 m 47 316 l 47 342 q 127 580 47 488 q 336 671 208 671 q 545 580 465 671 q 625 342 625 488 l 625 316 q 545 78 625 170 q 336 -14 465 -14 q 127 78 208 -14 q 47 316 47 170 m 506 857 l 465 857 l 351 977 l 237 857 l 199 857 l 199 866 l 339 1012 l 363 1012 l 506 863 l 506 857 z "},"õ":{"ha":688,"x_min":47,"x_max":626,"o":"m 81 342 l 81 316 q 151 103 81 188 q 338 19 222 19 q 472 59 414 19 q 562 165 531 98 q 593 316 593 233 l 593 342 q 522 552 593 467 q 336 638 450 638 q 201 598 260 638 q 112 490 142 557 q 81 342 81 423 m 47 316 l 47 342 q 128 580 47 488 q 337 671 208 671 q 546 580 466 671 q 626 342 626 488 l 626 316 q 546 78 626 170 q 337 -14 466 -14 q 128 78 208 -14 q 47 316 47 170 m 519 994 l 552 994 q 522 912 552 944 q 445 880 491 880 q 384 899 417 880 q 320 938 351 918 q 269 957 290 957 q 216 936 235 957 q 196 880 196 915 l 162 880 q 192 959 162 928 q 269 989 222 989 q 363 952 309 989 q 448 914 418 914 q 498 936 477 914 q 519 994 519 958 z "},"ö":{"ha":688,"x_min":47,"x_max":626,"o":"m 81 342 l 81 316 q 151 103 81 188 q 338 19 222 19 q 472 59 414 19 q 562 165 531 98 q 593 316 593 233 l 593 342 q 522 552 593 467 q 336 638 450 638 q 201 598 260 638 q 112 490 142 557 q 81 342 81 423 m 47 316 l 47 342 q 128 580 47 488 q 337 671 208 671 q 546 580 466 671 q 626 342 626 488 l 626 316 q 546 78 626 170 q 337 -14 466 -14 q 128 78 208 -14 q 47 316 47 170 m 244 935 q 239 930 244 935 q 220 925 234 925 q 196 935 205 925 q 186 959 186 945 q 196 983 186 973 q 220 993 205 993 q 244 983 234 993 q 254 959 254 972 q 244 935 254 945 m 526 959 q 526 952 526 959 q 515 935 526 945 q 491 925 505 925 q 468 935 477 925 q 458 959 458 945 q 468 983 458 972 q 491 993 477 993 q 515 983 505 993 q 526 959 526 972 z "},"÷":{"ha":707,"x_min":45,"x_max":654,"o":"m 385 238 l 385 163 l 327 163 l 327 238 l 385 238 m 654 467 l 654 435 l 45 435 l 45 467 l 654 467 m 385 713 l 385 639 l 327 639 l 327 713 l 385 713 z "},"ø":{"ha":684,"x_min":54,"x_max":633,"o":"m 54 334 q 91 504 54 429 q 193 621 127 579 q 338 663 259 663 q 480 629 417 663 l 531 734 l 570 734 l 509 610 q 601 495 568 567 q 633 333 633 424 l 633 308 q 597 137 633 212 q 494 20 561 62 q 344 -22 427 -22 q 216 7 277 -22 l 164 -98 l 126 -98 l 186 24 q 88 141 123 66 q 54 309 54 216 l 54 334 m 343 10 q 527 95 456 10 q 598 313 598 179 l 599 333 q 571 472 599 408 q 492 577 543 536 l 229 37 q 343 10 279 10 m 86 327 l 86 307 q 116 160 86 227 q 199 56 146 94 l 463 597 q 342 630 410 630 q 158 545 229 630 q 86 327 86 459 z "},"ù":{"ha":684,"x_min":91,"x_max":570,"o":"m 309 -14 q 147 59 203 -14 q 91 282 91 133 l 91 659 l 124 659 l 124 281 q 172 84 124 150 q 307 19 220 19 q 464 67 408 19 q 536 203 520 116 l 536 659 l 570 659 l 570 -1 l 542 -1 l 537 117 q 309 -14 472 -14 m 256 983 l 391 824 l 389 821 l 343 821 l 201 980 l 202 983 l 256 983 z "},"ú":{"ha":684,"x_min":91,"x_max":570,"o":"m 309 -14 q 147 59 203 -14 q 91 282 91 133 l 91 659 l 124 659 l 124 281 q 172 84 124 150 q 307 19 220 19 q 464 67 408 19 q 536 203 520 116 l 536 659 l 570 659 l 570 -1 l 542 -1 l 537 117 q 309 -14 472 -14 m 346 848 l 462 1010 l 502 1010 l 382 848 l 346 848 z "},"û":{"ha":684,"x_min":91,"x_max":570,"o":"m 309 -14 q 147 59 203 -14 q 91 282 91 133 l 91 659 l 124 659 l 124 281 q 172 84 124 150 q 307 19 220 19 q 464 67 408 19 q 536 203 520 116 l 536 659 l 570 659 l 570 -1 l 542 -1 l 537 117 q 309 -14 472 -14 m 509 857 l 468 857 l 354 977 l 241 857 l 202 857 l 202 866 l 342 1012 l 367 1012 l 509 863 l 509 857 z "},"ü":{"ha":684,"x_min":91,"x_max":570,"o":"m 309 -14 q 147 59 203 -14 q 91 282 91 133 l 91 659 l 124 659 l 124 281 q 172 84 124 150 q 307 19 220 19 q 464 67 408 19 q 536 203 520 116 l 536 659 l 570 659 l 570 -1 l 542 -1 l 537 117 q 309 -14 472 -14 m 247 936 q 242 931 247 936 q 222 926 237 926 q 199 936 208 926 q 189 960 189 946 q 199 984 189 975 q 222 994 208 994 q 247 984 237 994 q 257 960 257 974 q 247 936 257 946 m 528 960 q 528 953 528 960 q 518 936 528 946 q 494 926 508 926 q 470 936 480 926 q 460 960 460 946 q 470 984 460 974 q 494 994 480 994 q 518 984 508 994 q 528 960 528 974 z "},"ý":{"ha":597,"x_min":24,"x_max":574,"o":"m 218 -252 q 208 -264 218 -252 q 170 -286 197 -275 q 108 -296 142 -296 q 57 -290 75 -296 l 62 -258 q 104 -264 80 -264 q 189 -233 157 -264 q 247 -134 221 -202 l 287 -26 l 24 631 l 60 631 l 277 90 l 301 24 l 305 24 l 537 631 l 574 631 l 280 -140 q 251 -204 264 -180 q 218 -252 238 -229 m 313 848 l 429 1010 l 469 1010 l 350 848 l 313 848 z "},"þ":{"ha":684,"x_min":104,"x_max":610,"o":"m 610 307 l 610 296 q 544 50 610 140 q 363 -41 477 -41 q 229 -11 288 -41 q 138 75 170 20 l 138 -282 l 104 -282 l 104 909 l 138 909 l 138 515 q 230 611 172 577 q 361 644 288 644 q 544 555 478 644 q 610 307 610 467 m 363 -7 l 363 -7 q 522 73 466 -7 q 577 303 577 154 q 520 532 577 452 q 362 612 464 612 q 220 569 278 612 q 137 445 163 526 l 137 136 q 221 30 163 67 q 363 -7 279 -7 z "},"ÿ":{"ha":597,"x_min":24,"x_max":574,"o":"m 218 -252 q 208 -264 218 -252 q 170 -286 197 -275 q 108 -296 142 -296 q 57 -290 75 -296 l 62 -258 q 104 -264 80 -264 q 189 -233 157 -264 q 247 -134 221 -202 l 287 -26 l 24 631 l 60 631 l 277 90 l 301 24 l 305 24 l 537 631 l 574 631 l 280 -140 q 251 -204 264 -180 q 218 -252 238 -229 m 214 936 q 209 931 214 936 q 190 926 204 926 q 166 936 176 926 q 157 960 157 946 q 166 984 157 975 q 190 994 176 994 q 214 984 204 994 q 224 960 224 974 q 214 936 224 946 m 496 960 q 496 953 496 960 q 486 936 496 946 q 461 926 475 926 q 438 936 448 926 q 428 960 428 946 q 438 984 428 974 q 461 994 448 994 q 486 984 475 994 q 496 960 496 974 z "},"Ā":{"ha":747,"x_min":19,"x_max":724,"o":"m 688 0 l 588 266 l 154 266 l 55 0 l 19 0 l 351 888 l 391 888 l 724 0 l 688 0 m 353 799 l 166 298 l 576 298 l 390 799 l 373 849 l 369 849 l 353 799 m 572 1208 l 572 1175 l 189 1175 l 189 1208 l 572 1208 z "},"ā":{"ha":660,"x_min":51,"x_max":564,"o":"m 514 119 q 410 21 479 57 q 249 -16 342 -16 q 103 35 156 -16 q 51 170 51 85 q 129 310 51 254 q 326 366 208 366 l 514 366 l 514 463 q 461 591 514 545 q 316 637 408 637 q 169 594 223 637 q 114 482 114 551 l 86 483 l 85 486 q 145 617 81 564 q 315 670 209 670 q 484 616 420 670 q 547 461 547 562 l 547 130 q 564 -2 547 55 l 527 -2 q 513 111 513 71 l 514 119 m 327 334 q 153 287 223 334 q 83 171 83 239 q 128 60 83 102 q 248 18 174 18 q 413 61 345 18 q 513 185 481 104 l 513 334 l 327 334 m 544 991 l 544 958 l 161 958 l 161 991 l 544 991 z "},"Ă":{"ha":747,"x_min":19,"x_max":724,"o":"m 688 0 l 588 266 l 154 266 l 55 0 l 19 0 l 351 888 l 391 888 l 724 0 l 688 0 m 353 799 l 166 298 l 576 298 l 390 799 l 373 849 l 369 849 l 353 799 m 520 1211 l 553 1211 q 507 1100 553 1141 q 383 1059 461 1059 q 259 1100 305 1059 q 213 1211 213 1141 l 246 1211 q 281 1124 246 1154 q 382 1093 316 1093 q 485 1124 449 1093 q 520 1211 520 1156 z "},"ă":{"ha":660,"x_min":52,"x_max":564,"o":"m 515 119 q 411 21 479 57 q 250 -16 342 -16 q 104 35 157 -16 q 52 170 52 85 q 130 310 52 254 q 326 366 208 366 l 515 366 l 515 463 q 462 591 515 545 q 316 637 409 637 q 169 594 224 637 q 115 482 115 551 l 87 483 l 85 486 q 146 617 82 564 q 315 670 210 670 q 484 616 421 670 q 547 461 547 562 l 547 130 q 564 -2 547 55 l 528 -2 q 514 111 514 71 l 515 119 m 328 334 q 154 287 224 334 q 83 171 83 239 q 129 60 83 102 q 248 18 174 18 q 414 61 346 18 q 514 185 481 104 l 514 334 l 328 334 m 493 994 l 526 994 q 480 883 526 924 q 356 842 434 842 q 232 883 278 842 q 186 994 186 924 l 219 994 q 254 907 219 937 q 355 876 289 876 q 457 907 422 876 q 493 994 493 939 z "},"Ą":{"ha":747,"x_min":20,"x_max":745,"o":"m 374 821 l 168 271 l 578 271 l 374 821 m 612 -178 q 669 -235 612 -235 q 736 -212 704 -235 l 745 -241 q 668 -269 711 -269 q 602 -246 625 -269 q 578 -178 578 -223 q 688 -23 578 -110 l 590 239 l 155 239 l 56 -27 l 20 -27 l 353 862 l 394 861 l 726 -28 q 636 -112 660 -79 q 612 -178 612 -144 z "},"ą":{"ha":660,"x_min":56,"x_max":589,"o":"m 150 252 q 89 140 89 205 q 137 34 89 76 q 260 -7 186 -7 q 418 34 351 -7 q 519 151 485 75 l 519 308 l 367 308 q 150 252 227 308 m 519 94 q 412 -5 479 29 q 257 -40 345 -40 q 112 9 168 -40 q 56 140 56 59 q 138 286 56 231 q 357 342 220 340 l 519 342 l 519 438 q 468 568 519 522 q 322 613 416 613 q 168 567 228 613 q 107 452 107 520 l 74 453 q 145 590 74 534 q 321 646 216 646 q 488 592 426 646 q 553 442 551 539 l 553 126 q 570 -21 553 17 l 570 -27 q 479 -111 503 -79 q 455 -177 455 -144 q 511 -235 455 -235 q 578 -212 547 -235 l 589 -241 q 511 -268 553 -268 q 446 -245 469 -268 q 422 -178 422 -222 l 422 -178 q 531 -25 422 -108 q 519 94 519 16 z "},"Ć":{"ha":810,"x_min":79,"x_max":709,"o":"m 677 271 l 706 271 l 707 267 q 626 59 709 132 q 399 -14 543 -14 q 166 93 254 -14 q 79 376 79 200 l 79 509 q 166 793 79 686 q 398 900 254 900 q 626 827 543 900 q 707 620 709 753 l 706 616 l 677 616 q 604 802 677 736 q 399 867 530 867 q 190 769 269 867 q 111 511 111 671 l 111 376 q 190 117 111 214 q 400 19 269 19 q 605 83 532 19 q 677 271 677 146 m 414 1078 l 530 1240 l 570 1240 l 451 1078 l 414 1078 z "},"ć":{"ha":634,"x_min":52,"x_max":566,"o":"m 85 316 q 146 99 85 180 q 322 19 207 19 q 473 67 412 19 q 534 202 534 115 l 562 202 l 564 198 q 494 45 566 104 q 322 -14 422 -14 q 124 76 197 -14 q 52 316 52 165 l 52 342 q 124 582 52 492 q 321 671 196 671 q 497 610 428 671 q 564 441 566 548 l 562 438 l 534 438 q 474 585 534 532 q 321 638 414 638 q 146 557 208 638 q 85 342 85 477 l 85 316 m 328 846 l 444 1008 l 484 1008 l 365 846 l 328 846 z "},"Č":{"ha":810,"x_min":79,"x_max":709,"o":"m 677 271 l 706 271 l 707 267 q 626 59 709 132 q 399 -14 543 -14 q 166 93 254 -14 q 79 376 79 200 l 79 509 q 166 793 79 686 q 398 900 254 900 q 626 827 543 900 q 707 620 709 753 l 706 616 l 677 616 q 604 802 677 736 q 399 867 530 867 q 190 769 269 867 q 111 511 111 671 l 111 376 q 190 117 111 214 q 400 19 269 19 q 605 83 532 19 q 677 271 677 146 m 574 1238 l 574 1230 l 441 1077 l 405 1077 l 271 1231 l 271 1238 l 306 1238 l 423 1105 l 542 1238 l 574 1238 z "},"č":{"ha":634,"x_min":52,"x_max":566,"o":"m 85 316 q 146 99 85 180 q 322 19 207 19 q 473 67 412 19 q 534 202 534 115 l 562 202 l 564 198 q 494 45 566 104 q 322 -14 422 -14 q 124 76 197 -14 q 52 316 52 165 l 52 342 q 124 582 52 492 q 321 671 196 671 q 497 610 428 671 q 564 441 566 548 l 562 438 l 534 438 q 474 585 534 532 q 321 638 414 638 q 146 557 208 638 q 85 342 85 477 l 85 316 m 488 1005 l 488 997 l 355 844 l 319 844 l 184 998 l 184 1005 l 220 1005 l 337 872 l 456 1005 l 488 1005 z "},"Ď":{"ha":818,"x_min":109,"x_max":722,"o":"m 142 33 l 355 33 q 592 134 495 33 q 688 389 688 235 l 688 500 q 644 682 688 600 q 523 810 599 764 q 355 856 446 856 l 142 855 l 142 33 m 355 0 l 109 0 l 109 888 l 355 888 q 540 839 456 888 q 673 700 624 789 q 722 498 722 610 l 722 390 q 673 188 722 277 q 540 49 624 98 q 355 0 456 0 m 511 1223 l 511 1215 l 378 1063 l 341 1063 l 207 1217 l 207 1223 l 242 1223 l 359 1090 l 478 1223 l 511 1223 z "},"ď":{"ha":776,"x_min":66,"x_max":573,"o":"m 315 671 q 448 636 391 671 q 540 541 505 602 l 540 950 l 573 950 l 573 -2 l 541 -2 l 540 100 q 449 16 507 46 q 315 -15 391 -15 q 133 74 198 -15 q 67 317 67 162 l 66 329 q 132 579 66 488 q 315 671 198 671 m 314 19 q 456 57 399 19 q 540 162 513 95 l 540 471 q 315 638 484 638 q 156 555 212 638 q 100 330 100 471 l 101 317 q 156 98 101 177 q 314 19 211 19 z "},"Đ":{"ha":836,"x_min":37,"x_max":753,"o":"m 395 468 l 395 435 l 174 435 l 174 33 l 380 33 q 626 134 532 33 q 720 395 720 235 l 720 500 q 678 682 720 601 q 559 808 636 762 q 391 856 484 855 l 174 856 l 174 468 l 395 468 m 389 0 l 140 0 l 140 435 l 37 435 l 37 468 l 140 468 l 140 888 l 387 888 q 573 840 490 888 q 705 703 656 791 q 753 505 753 614 l 753 390 q 707 190 753 279 q 576 51 661 101 q 389 0 492 0 z "},"đ":{"ha":703,"x_min":75,"x_max":678,"o":"m 678 814 l 678 781 l 581 781 l 581 -1 l 547 -1 l 547 104 q 455 17 513 48 q 322 -14 397 -14 q 141 77 207 -14 q 75 327 75 168 l 75 336 q 141 583 75 494 q 323 671 207 671 q 547 538 476 671 l 547 781 l 320 781 l 320 814 l 547 814 l 547 936 l 581 936 l 581 814 l 678 814 m 323 638 q 164 558 220 638 q 109 329 109 477 q 164 100 109 181 q 321 20 220 20 q 547 162 490 20 l 547 472 q 323 638 490 638 z "},"Ē":{"ha":711,"x_min":110,"x_max":650,"o":"m 589 479 l 589 447 l 143 447 l 143 33 l 650 33 l 650 0 l 110 0 l 110 888 l 650 888 l 650 856 l 143 856 l 143 479 l 589 479 m 566 1208 l 566 1175 l 184 1175 l 184 1208 l 566 1208 z "},"ē":{"ha":630,"x_min":47,"x_max":575,"o":"m 542 404 l 541 404 q 480 572 541 506 q 321 638 419 638 q 159 568 224 638 q 85 387 94 497 l 87 384 l 542 384 l 542 404 m 324 -14 q 128 77 209 -14 q 47 304 47 169 l 47 343 q 126 578 47 485 q 320 671 205 671 q 505 598 435 671 q 575 401 575 525 l 575 351 l 80 351 l 80 304 q 150 101 80 183 q 324 19 220 19 q 447 39 397 19 q 533 99 497 58 l 551 74 q 324 -14 471 -14 m 537 990 l 537 958 l 155 958 l 155 990 l 537 990 z "},"Ė":{"ha":711,"x_min":109,"x_max":649,"o":"m 587 479 l 587 447 l 142 447 l 142 33 l 649 33 l 649 0 l 109 0 l 109 888 l 649 888 l 649 856 l 142 856 l 142 479 l 587 479 m 421 1136 q 416 1131 421 1136 q 397 1126 411 1126 q 373 1136 382 1126 q 363 1160 363 1146 q 373 1184 363 1174 q 397 1194 382 1194 q 421 1184 411 1194 q 431 1160 431 1174 q 421 1136 431 1146 z "},"ė":{"ha":630,"x_min":47,"x_max":575,"o":"m 542 404 l 541 404 q 480 572 541 506 q 321 638 419 638 q 159 568 224 638 q 85 387 94 497 l 87 384 l 542 384 l 542 404 m 324 -14 q 128 77 209 -14 q 47 304 47 169 l 47 343 q 126 578 47 485 q 320 671 205 671 q 505 598 435 671 q 575 401 575 525 l 575 351 l 80 351 l 80 304 q 150 101 80 183 q 324 19 220 19 q 447 39 397 19 q 533 99 497 58 l 551 74 q 324 -14 471 -14 m 393 919 q 388 914 393 919 q 369 909 383 909 q 345 919 355 909 q 335 943 335 929 q 345 967 335 957 q 369 977 355 977 q 393 967 383 977 q 403 943 403 957 q 393 919 403 929 z "},"Ę":{"ha":711,"x_min":122,"x_max":663,"o":"m 156 414 l 156 6 l 663 6 l 663 -27 l 627 -27 q 537 -112 561 -79 q 513 -177 513 -144 q 570 -235 513 -235 q 637 -212 605 -235 l 646 -241 q 570 -268 612 -268 q 503 -245 527 -268 q 479 -177 479 -222 q 585 -27 479 -109 l 122 -27 l 122 862 l 663 862 l 663 829 l 155 829 l 155 447 l 601 447 l 602 414 l 156 414 z "},"ę":{"ha":630,"x_min":54,"x_max":582,"o":"m 332 616 q 168 545 235 616 q 90 361 101 474 l 549 361 l 549 370 q 521 495 549 437 q 443 584 493 552 q 332 616 392 616 m 54 292 l 54 319 q 90 488 54 412 q 191 606 127 564 q 331 649 254 649 q 512 570 442 649 q 582 363 582 492 l 582 329 l 87 329 l 87 293 q 121 143 87 212 q 214 37 155 75 q 341 -3 273 -3 q 456 19 409 -3 q 539 88 503 41 l 562 72 q 506 14 538 38 l 509 13 q 418 -72 442 -39 q 394 -138 394 -104 q 450 -195 394 -195 q 517 -172 486 -195 l 528 -201 q 451 -229 494 -229 q 384 -205 408 -229 q 360 -135 360 -182 q 422 -26 360 -88 q 343 -36 385 -36 q 196 7 263 -36 q 92 124 130 50 q 54 292 54 199 z "},"Ě":{"ha":711,"x_min":110,"x_max":650,"o":"m 589 479 l 589 447 l 143 447 l 143 33 l 650 33 l 650 0 l 110 0 l 110 888 l 650 888 l 650 856 l 143 856 l 143 479 l 589 479 m 532 1223 l 532 1215 l 399 1063 l 362 1063 l 228 1217 l 228 1223 l 263 1223 l 380 1090 l 499 1223 l 532 1223 z "},"ě":{"ha":630,"x_min":47,"x_max":575,"o":"m 542 404 l 541 404 q 480 572 541 506 q 321 638 419 638 q 159 568 224 638 q 85 387 94 497 l 87 384 l 542 384 l 542 404 m 324 -14 q 128 77 209 -14 q 47 304 47 169 l 47 343 q 126 578 47 485 q 320 671 205 671 q 505 598 435 671 q 575 401 575 525 l 575 351 l 80 351 l 80 304 q 150 101 80 183 q 324 19 220 19 q 447 39 397 19 q 533 99 497 58 l 551 74 q 324 -14 471 -14 m 503 1006 l 503 998 l 370 845 l 333 845 l 199 999 l 199 1006 l 234 1006 l 351 873 l 470 1006 l 503 1006 z "},"Ğ":{"ha":858,"x_min":90,"x_max":736,"o":"m 433 -14 q 184 94 279 -14 q 90 377 90 202 l 90 522 q 181 795 90 690 q 418 900 273 900 q 646 828 562 900 q 730 639 729 756 l 730 635 l 702 635 q 625 805 697 742 q 420 867 553 867 q 206 772 288 867 q 124 524 124 677 l 124 377 q 209 118 124 217 q 433 19 294 19 q 602 46 527 19 q 704 109 677 73 l 704 368 l 432 368 l 432 401 l 736 401 l 736 94 q 623 18 705 51 q 433 -14 541 -14 m 572 1225 l 606 1225 q 559 1115 606 1156 q 435 1074 513 1074 q 311 1115 357 1074 q 265 1225 265 1156 l 298 1225 q 333 1138 298 1168 q 435 1107 368 1107 q 537 1139 501 1107 q 572 1225 572 1170 z "},"ğ":{"ha":686,"x_min":66,"x_max":572,"o":"m 315 642 q 539 512 468 642 l 545 630 l 572 630 l 572 -34 q 507 -229 572 -160 q 329 -297 441 -297 q 131 -259 216 -297 l 141 -227 q 321 -264 228 -264 q 484 -205 429 -264 q 539 -34 539 -146 l 539 71 q 447 -13 505 17 q 314 -43 389 -43 q 132 45 197 -43 q 66 288 66 134 l 66 300 q 132 551 66 459 q 315 642 197 642 m 100 301 l 100 288 q 155 70 100 149 q 313 -9 210 -9 q 455 28 398 -9 q 539 133 513 66 l 539 446 q 315 610 481 610 q 155 527 211 610 q 100 301 100 443 m 484 992 l 517 992 q 471 882 517 923 q 347 841 425 841 q 223 882 269 841 q 177 992 177 923 l 210 992 q 245 905 210 936 q 347 875 280 875 q 449 906 413 875 q 484 992 484 937 z "},"Ģ":{"ha":858,"x_min":91,"x_max":738,"o":"m 434 -14 q 186 94 281 -14 q 91 377 91 202 l 91 522 q 183 795 91 690 q 419 900 275 900 q 647 828 564 900 q 732 639 730 756 l 731 635 l 703 635 q 626 805 699 742 q 422 867 554 867 q 208 772 290 867 q 125 524 125 677 l 125 377 q 210 118 125 217 q 435 19 295 19 q 603 46 528 19 q 705 109 678 73 l 705 368 l 433 368 l 433 401 l 738 401 l 737 94 q 624 18 706 51 q 434 -14 543 -14 z "},"ģ":{"ha":686,"x_min":66,"x_max":572,"o":"m 315 642 q 539 512 468 642 l 545 630 l 572 630 l 572 -34 q 507 -229 572 -160 q 329 -297 441 -297 q 131 -259 216 -297 l 141 -227 q 321 -264 228 -264 q 484 -205 429 -264 q 539 -34 539 -146 l 539 71 q 447 -13 505 17 q 314 -43 389 -43 q 132 45 197 -43 q 66 288 66 134 l 66 300 q 132 551 66 459 q 315 642 197 642 m 100 301 l 100 288 q 155 70 100 149 q 313 -9 210 -9 q 455 28 398 -9 q 539 133 513 66 l 539 446 q 315 610 481 610 q 155 527 211 610 q 100 301 100 443 z "},"Ī":{"ha":326,"x_min":-37,"x_max":345,"o":"m 184 888 l 184 0 l 151 0 l 151 888 l 184 888 m 345 1208 l 345 1175 l -37 1175 l -37 1208 l 345 1208 z "},"ī":{"ha":248,"x_min":-74,"x_max":309,"o":"m 151 661 l 151 0 l 118 0 l 118 661 l 151 661 m 309 976 l 309 943 l -74 943 l -74 976 l 309 976 z "},"Į":{"ha":326,"x_min":28,"x_max":195,"o":"m 62 -170 q 118 -228 62 -228 q 185 -205 153 -228 l 195 -234 q 118 -261 160 -261 q 52 -238 76 -261 q 28 -170 28 -215 q 150 -14 28 -98 l 176 -26 q 86 -104 111 -71 q 62 -170 62 -136 m 176 888 l 176 0 l 143 0 l 143 888 l 176 888 z "},"į":{"ha":258,"x_min":-7,"x_max":160,"o":"m 26 -170 q 83 -228 26 -228 q 150 -205 118 -228 l 160 -234 q 83 -261 125 -261 q 17 -238 41 -261 q -7 -170 -7 -215 q 115 -14 -7 -98 l 141 -26 q 51 -104 75 -71 q 26 -170 26 -136 m 146 661 l 146 0 l 113 0 l 113 661 l 146 661 m 146 952 l 146 868 l 113 868 l 113 952 l 146 952 z "},"İ":{"ha":326,"x_min":125,"x_max":193,"o":"m 166 888 l 166 0 l 133 0 l 133 888 l 166 888 m 183 1136 q 178 1131 183 1136 q 159 1126 173 1126 q 135 1136 144 1126 q 125 1160 125 1146 q 135 1184 125 1174 q 159 1194 144 1194 q 183 1184 173 1194 q 193 1160 193 1174 q 183 1136 193 1146 z "},"ı":{"ha":248,"x_min":111,"x_max":144,"o":"m 144 661 l 144 0 l 111 0 l 111 661 l 144 661 z "},"Ķ":{"ha":793,"x_min":109,"x_max":732,"o":"m 142 434 l 142 0 l 109 0 l 109 888 l 142 888 l 142 467 l 287 467 l 664 888 l 703 888 l 704 886 l 314 446 l 732 3 l 730 0 l 692 0 l 277 434 l 142 434 z "},"ķ":{"ha":591,"x_min":94,"x_max":567,"o":"m 126 338 l 126 0 l 94 0 l 94 952 l 126 952 l 126 370 l 204 370 l 505 661 l 543 661 l 544 656 l 241 359 l 567 3 l 566 0 l 528 0 l 217 338 l 126 338 z "},"Ĺ":{"ha":645,"x_min":109,"x_max":599,"o":"m 143 888 l 143 33 l 599 33 l 599 0 l 109 0 l 109 888 l 143 888 m 109 1021 l 224 1183 l 264 1183 l 145 1021 l 109 1021 z "},"ĺ":{"ha":258,"x_min":98,"x_max":254,"o":"m 135 952 l 135 0 l 102 0 l 102 952 l 135 952 m 98 1105 l 214 1267 l 254 1267 l 135 1105 l 98 1105 z "},"Ļ":{"ha":645,"x_min":109,"x_max":598,"o":"m 142 888 l 142 33 l 598 33 l 598 0 l 109 0 l 109 888 l 142 888 z "},"ļ":{"ha":258,"x_min":102,"x_max":134,"o":"m 134 952 l 134 0 l 102 0 l 102 952 l 134 952 z "},"Ľ":{"ha":645,"x_min":109,"x_max":598,"o":"m 142 888 l 142 33 l 598 33 l 598 0 l 109 0 l 109 888 l 142 888 z "},"ľ":{"ha":349,"x_min":100,"x_max":133,"o":"m 133 952 l 133 0 l 100 0 l 100 952 l 133 952 z "},"Ł":{"ha":648,"x_min":5,"x_max":607,"o":"m 151 888 l 151 483 l 365 551 l 365 516 l 151 448 l 151 33 l 607 33 l 607 0 l 117 0 l 117 437 l 5 401 l 5 437 l 117 472 l 117 888 l 151 888 z "},"ł":{"ha":309,"x_min":10,"x_max":297,"o":"m 174 937 l 174 519 l 297 568 l 297 532 l 174 483 l 174 0 l 142 0 l 142 469 l 10 418 l 10 454 l 142 505 l 142 937 l 174 937 z "},"Ń":{"ha":884,"x_min":110,"x_max":750,"o":"m 750 888 l 750 0 l 718 0 l 147 827 l 144 827 l 144 0 l 110 0 l 110 888 l 144 888 l 713 63 l 718 64 l 718 888 l 750 888 m 444 1064 l 560 1226 l 600 1226 l 481 1064 l 444 1064 z "},"ń":{"ha":684,"x_min":94,"x_max":571,"o":"m 94 661 l 121 661 l 126 524 q 355 673 189 673 q 518 604 465 673 q 571 389 571 536 l 571 0 l 538 0 l 538 390 q 491 581 538 523 q 355 640 444 640 q 196 579 252 640 q 126 412 140 519 l 126 0 l 94 0 l 94 661 m 345 846 l 460 1008 l 500 1008 l 381 846 l 345 846 z "},"Ņ":{"ha":884,"x_min":109,"x_max":749,"o":"m 749 888 l 749 0 l 716 0 l 146 827 l 142 827 l 142 0 l 109 0 l 109 888 l 142 888 l 712 63 l 716 64 l 716 888 l 749 888 z "},"ņ":{"ha":684,"x_min":94,"x_max":571,"o":"m 94 661 l 121 661 l 126 524 q 355 673 189 673 q 518 604 465 673 q 571 389 571 536 l 571 0 l 538 0 l 538 390 q 491 581 538 523 q 355 640 444 640 q 196 579 252 640 q 126 412 140 519 l 126 0 l 94 0 l 94 661 z "},"Ň":{"ha":884,"x_min":109,"x_max":749,"o":"m 749 888 l 749 0 l 716 0 l 146 827 l 142 827 l 142 0 l 109 0 l 109 888 l 142 888 l 712 63 l 716 64 l 716 888 l 749 888 m 603 1223 l 603 1215 l 470 1063 l 433 1063 l 299 1217 l 299 1223 l 334 1223 l 452 1090 l 570 1223 l 603 1223 z "},"ň":{"ha":684,"x_min":94,"x_max":571,"o":"m 94 661 l 121 661 l 126 524 q 355 673 189 673 q 518 604 465 673 q 571 389 571 536 l 571 0 l 538 0 l 538 390 q 491 581 538 523 q 355 640 444 640 q 196 579 252 640 q 126 412 140 519 l 126 0 l 94 0 l 94 661 m 505 1005 l 505 997 l 372 844 l 335 844 l 201 998 l 201 1005 l 236 1005 l 353 872 l 472 1005 l 505 1005 z "},"Ō":{"ha":833,"x_min":73,"x_max":743,"o":"m 710 376 l 710 511 q 631 772 710 677 q 408 867 552 867 q 185 772 264 867 q 106 511 106 677 l 106 376 q 185 114 106 209 q 409 19 264 19 q 632 114 553 19 q 710 376 710 208 m 743 509 l 743 376 q 654 91 743 195 q 408 -14 565 -14 q 162 90 252 -14 q 73 376 73 195 l 73 509 q 162 795 73 691 q 407 900 251 900 q 653 795 564 900 q 743 509 743 690 m 609 1222 l 609 1190 l 227 1190 l 227 1222 l 609 1222 z "},"ō":{"ha":688,"x_min":47,"x_max":626,"o":"m 81 342 l 81 316 q 151 103 81 188 q 338 19 222 19 q 472 59 414 19 q 562 165 531 98 q 593 316 593 233 l 593 342 q 522 552 593 467 q 336 638 450 638 q 201 598 260 638 q 112 490 142 557 q 81 342 81 423 m 47 316 l 47 342 q 128 580 47 488 q 337 671 208 671 q 546 580 466 671 q 626 342 626 488 l 626 316 q 546 78 626 170 q 337 -14 466 -14 q 128 78 208 -14 q 47 316 47 170 m 538 989 l 538 957 l 155 957 l 155 989 l 538 989 z "},"Ő":{"ha":833,"x_min":73,"x_max":743,"o":"m 710 376 l 710 511 q 631 772 710 677 q 408 867 552 867 q 185 772 264 867 q 106 511 106 677 l 106 376 q 185 114 106 209 q 409 19 264 19 q 632 114 553 19 q 710 376 710 208 m 743 509 l 743 376 q 654 91 743 195 q 408 -14 565 -14 q 162 90 252 -14 q 73 376 73 195 l 73 509 q 162 795 73 691 q 407 900 251 900 q 653 795 564 900 q 743 509 743 690 m 459 1066 l 631 1252 l 680 1252 l 504 1066 l 459 1066 m 315 1066 l 460 1252 l 506 1252 l 358 1066 l 315 1066 z "},"ő":{"ha":688,"x_min":47,"x_max":626,"o":"m 81 342 l 81 316 q 151 103 81 188 q 338 19 222 19 q 472 59 414 19 q 562 165 531 98 q 593 316 593 233 l 593 342 q 522 552 593 467 q 336 638 450 638 q 201 598 260 638 q 112 490 142 557 q 81 342 81 423 m 47 316 l 47 342 q 128 580 47 488 q 337 671 208 671 q 546 580 466 671 q 626 342 626 488 l 626 316 q 546 78 626 170 q 337 -14 466 -14 q 128 78 208 -14 q 47 316 47 170 m 388 834 l 559 1020 l 608 1020 l 433 834 l 388 834 m 244 834 l 389 1020 l 435 1020 l 287 834 l 244 834 z "},"Œ":{"ha":1143,"x_min":68,"x_max":1099,"o":"m 386 18 q 559 26 499 18 l 559 858 q 383 866 492 866 q 177 776 254 866 q 100 532 100 686 l 100 349 q 136 177 100 253 q 237 60 172 102 l 238 60 q 386 18 301 18 m 586 -2 q 379 -15 466 -15 q 221 30 293 -15 q 110 157 149 75 q 68 343 70 239 l 68 536 q 108 724 68 642 q 219 853 147 807 q 380 899 292 899 q 587 887 469 899 l 1099 887 l 1099 854 l 591 854 l 591 472 l 1037 472 l 1037 439 l 591 439 l 591 32 l 1099 32 l 1099 -2 l 586 -2 z "},"œ":{"ha":1175,"x_min":56,"x_max":1133,"o":"m 346 20 q 531 104 460 20 q 602 323 602 189 l 602 342 q 568 492 602 424 q 477 600 535 561 q 345 638 419 638 q 160 553 232 638 q 89 336 89 467 l 88 315 q 121 164 88 233 q 212 58 154 96 q 346 20 270 20 m 1099 404 q 1038 573 1099 508 q 880 638 976 638 q 717 568 783 638 q 639 384 650 497 l 1099 384 l 1099 404 m 56 313 l 56 342 q 93 512 56 437 q 195 629 129 587 q 345 671 259 671 q 518 614 446 671 q 621 454 591 557 q 719 612 648 553 q 880 671 789 671 q 1064 597 994 671 q 1133 399 1133 524 l 1133 351 l 638 351 l 638 304 q 670 161 638 227 q 759 57 702 95 q 882 20 817 20 q 1090 100 1023 20 l 1109 74 q 882 -14 1030 -14 q 720 45 792 -14 q 619 201 647 104 q 517 43 590 99 q 346 -14 444 -14 q 196 27 262 -14 q 93 145 130 68 q 56 313 56 221 z "},"Ŕ":{"ha":818,"x_min":107,"x_max":725,"o":"m 140 -2 l 107 -2 l 107 886 l 390 886 q 607 826 532 886 q 682 648 682 765 q 633 511 682 572 q 503 433 585 451 q 639 365 597 418 q 682 226 682 313 l 682 142 q 725 14 682 52 l 725 -1 l 693 -1 q 649 144 649 49 l 649 225 q 587 367 649 316 q 410 417 525 417 l 140 416 l 140 -2 m 140 855 l 140 450 l 384 450 q 582 505 515 450 q 649 655 649 559 q 584 803 649 751 q 390 855 519 855 l 140 855 m 363 1064 l 479 1226 l 519 1226 l 399 1064 l 363 1064 z "},"ŕ":{"ha":418,"x_min":95,"x_max":390,"o":"m 127 0 l 95 0 l 95 661 l 121 661 l 127 546 l 127 523 q 343 673 186 673 q 389 666 366 673 l 386 637 l 343 640 q 201 585 256 640 q 127 433 145 529 l 127 0 m 234 846 l 350 1008 l 390 1008 l 271 846 l 234 846 z "},"Ŗ":{"ha":818,"x_min":106,"x_max":724,"o":"m 138 -2 l 106 -2 l 106 886 l 389 886 q 605 826 530 886 q 680 648 680 765 q 632 511 680 572 q 502 433 583 451 q 638 365 595 418 q 680 226 680 313 l 680 142 q 724 14 680 52 l 724 -1 l 692 -1 q 648 144 648 49 l 648 225 q 586 367 648 316 q 409 417 524 417 l 138 416 l 138 -2 m 138 855 l 138 450 l 382 450 q 581 505 514 450 q 648 655 648 559 q 583 803 648 751 q 389 855 517 855 l 138 855 z "},"ŗ":{"ha":418,"x_min":94,"x_max":389,"o":"m 127 0 l 94 0 l 94 661 l 121 661 l 127 546 l 127 523 q 342 673 185 673 q 389 666 366 673 l 385 637 l 342 640 q 200 585 256 640 q 127 433 144 529 l 127 0 z "},"Ř":{"ha":818,"x_min":106,"x_max":724,"o":"m 138 -2 l 106 -2 l 106 886 l 389 886 q 605 826 530 886 q 680 648 680 765 q 632 511 680 572 q 502 433 583 451 q 638 365 595 418 q 680 226 680 313 l 680 142 q 724 14 680 52 l 724 -1 l 692 -1 q 648 144 648 49 l 648 225 q 586 367 648 316 q 409 417 524 417 l 138 416 l 138 -2 m 138 855 l 138 450 l 382 450 q 581 505 514 450 q 648 655 648 559 q 583 803 648 751 q 389 855 517 855 l 138 855 m 522 1223 l 522 1215 l 389 1063 l 353 1063 l 218 1217 l 218 1223 l 254 1223 l 371 1090 l 490 1223 l 522 1223 z "},"ř":{"ha":418,"x_min":90,"x_max":394,"o":"m 127 0 l 95 0 l 95 661 l 121 661 l 127 546 l 127 523 q 343 673 186 673 q 389 666 366 673 l 386 637 l 343 640 q 201 585 256 640 q 127 433 145 529 l 127 0 m 394 1005 l 394 997 l 261 844 l 224 844 l 90 998 l 90 1005 l 125 1005 l 243 872 l 361 1005 l 394 1005 z "},"Ś":{"ha":739,"x_min":56,"x_max":682,"o":"m 380 20 q 573 73 498 20 q 648 211 648 127 q 588 346 648 296 q 374 437 527 395 q 241 480 294 458 q 152 530 189 501 q 97 595 114 558 q 81 682 81 632 q 162 841 81 781 q 375 900 244 900 q 588 827 506 900 q 667 641 670 755 l 667 637 l 638 637 q 565 803 638 738 q 374 867 492 867 q 185 814 256 867 q 113 684 113 762 q 173 556 113 606 q 383 469 233 507 q 514 426 460 448 q 606 373 567 404 q 682 212 682 315 q 597 47 682 109 q 380 -14 513 -14 q 151 47 241 -14 q 80 130 105 79 q 58 245 56 180 l 58 249 l 86 249 q 110 145 86 190 q 175 73 134 100 q 381 19 259 19 l 380 20 m 386 1078 l 502 1240 l 542 1240 l 422 1078 l 386 1078 z "},"ś":{"ha":622,"x_min":57,"x_max":535,"o":"m 502 159 q 300 323 502 279 q 128 389 179 349 q 77 503 77 429 q 137 624 77 576 q 302 671 198 671 q 470 621 407 671 q 530 486 533 570 l 529 483 l 501 483 q 446 594 501 549 q 299 638 390 638 q 160 600 209 638 q 111 506 111 562 q 153 415 111 450 q 311 353 196 380 q 480 282 426 326 q 535 159 535 237 q 472 34 535 81 q 299 -14 408 -14 q 123 36 190 -14 q 61 163 57 87 l 62 166 l 89 166 q 122 82 92 116 q 303 19 179 19 l 302 18 q 447 60 391 18 q 502 159 502 101 m 304 846 l 420 1008 l 460 1008 l 340 846 l 304 846 z "},"Š":{"ha":739,"x_min":56,"x_max":682,"o":"m 380 20 q 573 73 498 20 q 648 211 648 127 q 588 346 648 296 q 374 437 527 395 q 241 480 294 458 q 152 530 189 501 q 97 595 114 558 q 81 682 81 632 q 162 841 81 781 q 375 900 244 900 q 588 827 506 900 q 667 641 670 755 l 667 637 l 638 637 q 565 803 638 738 q 374 867 492 867 q 185 814 256 867 q 113 684 113 762 q 173 556 113 606 q 383 469 233 507 q 514 426 460 448 q 606 373 567 404 q 682 212 682 315 q 597 47 682 109 q 380 -14 513 -14 q 151 47 241 -14 q 80 130 105 79 q 58 245 56 180 l 58 249 l 86 249 q 110 145 86 190 q 175 73 134 100 q 381 19 259 19 l 380 20 m 546 1238 l 546 1230 l 413 1077 l 376 1077 l 242 1231 l 242 1238 l 277 1238 l 395 1105 l 513 1238 l 546 1238 z "},"š":{"ha":622,"x_min":57,"x_max":535,"o":"m 502 159 q 300 323 502 279 q 128 389 179 349 q 77 503 77 429 q 137 624 77 576 q 302 671 198 671 q 470 621 407 671 q 530 486 533 570 l 529 483 l 501 483 q 446 594 501 549 q 299 638 390 638 q 160 600 209 638 q 111 506 111 562 q 153 415 111 450 q 311 353 196 380 q 480 282 426 326 q 535 159 535 237 q 472 34 535 81 q 299 -14 408 -14 q 123 36 190 -14 q 61 163 57 87 l 62 166 l 89 166 q 122 82 92 116 q 303 19 179 19 l 302 18 q 447 60 391 18 q 502 159 502 101 m 464 1005 l 464 997 l 331 844 l 294 844 l 160 998 l 160 1005 l 195 1005 l 313 872 l 431 1005 l 464 1005 z "},"Ť":{"ha":747,"x_min":30,"x_max":709,"o":"m 709 888 l 709 856 l 386 856 l 386 0 l 353 0 l 353 856 l 30 856 l 30 888 l 709 888 m 534 1218 l 534 1210 l 401 1057 l 364 1057 l 230 1211 l 230 1218 l 265 1218 l 382 1085 l 501 1218 l 534 1218 z "},"ť":{"ha":420,"x_min":15,"x_max":342,"o":"m 137 838 l 171 838 l 171 659 l 333 659 l 333 625 l 171 625 l 171 169 q 271 19 171 19 q 336 24 300 19 l 342 -5 q 273 -14 317 -14 q 171 30 205 -14 q 137 169 137 74 l 137 625 l 15 625 l 15 659 l 137 659 l 137 838 z "},"Ū":{"ha":833,"x_min":100,"x_max":707,"o":"m 674 887 l 707 887 l 707 285 q 625 64 707 142 q 403 -14 543 -14 q 182 64 264 -14 q 100 285 100 142 l 100 887 l 132 887 l 132 285 q 207 90 132 161 q 403 19 281 19 q 600 90 525 19 q 674 285 674 161 l 674 887 m 619 1208 l 619 1175 l 237 1175 l 237 1208 l 619 1208 z "},"ū":{"ha":684,"x_min":91,"x_max":570,"o":"m 309 -14 q 147 59 203 -14 q 91 282 91 133 l 91 659 l 124 659 l 124 281 q 172 84 124 150 q 307 19 220 19 q 464 67 408 19 q 536 203 520 116 l 536 659 l 570 659 l 570 -1 l 542 -1 l 537 117 q 309 -14 472 -14 m 541 991 l 541 959 l 158 959 l 158 991 l 541 991 z "},"Ů":{"ha":833,"x_min":100,"x_max":707,"o":"m 674 887 l 707 887 l 707 285 q 625 64 707 142 q 403 -14 543 -14 q 182 64 264 -14 q 100 285 100 142 l 100 887 l 132 887 l 132 285 q 207 90 132 161 q 403 19 281 19 q 600 90 525 19 q 674 285 674 161 l 674 887 m 514 1143 q 514 1159 514 1143 q 494 1195 514 1175 q 443 1215 474 1215 q 391 1195 411 1215 q 371 1143 371 1175 q 391 1091 371 1110 q 443 1072 411 1072 q 494 1091 474 1072 q 514 1143 514 1110 m 443 1038 q 421 1038 443 1038 q 369 1068 399 1038 q 338 1142 338 1097 q 369 1218 338 1187 q 443 1249 399 1249 q 516 1217 486 1249 q 547 1142 547 1186 q 517 1068 547 1098 q 443 1038 487 1038 z "},"ů":{"ha":684,"x_min":91,"x_max":570,"o":"m 309 -14 q 147 59 203 -14 q 91 282 91 133 l 91 659 l 124 659 l 124 281 q 172 84 124 150 q 307 19 220 19 q 464 67 408 19 q 536 203 520 116 l 536 659 l 570 659 l 570 -1 l 542 -1 l 537 117 q 309 -14 472 -14 m 435 926 q 435 943 435 926 q 415 979 435 959 q 364 999 395 999 q 312 979 332 999 q 292 926 292 959 q 312 874 292 894 q 364 855 332 855 q 415 874 395 855 q 435 926 435 894 m 365 822 q 343 822 365 822 q 290 851 321 822 q 260 926 260 881 q 290 1002 260 971 q 364 1032 321 1032 q 438 1001 408 1032 q 468 926 468 970 q 438 852 468 882 q 365 822 408 822 z "},"Ű":{"ha":833,"x_min":100,"x_max":707,"o":"m 674 887 l 707 887 l 707 285 q 625 64 707 142 q 403 -14 543 -14 q 182 64 264 -14 q 100 285 100 142 l 100 887 l 132 887 l 132 285 q 207 90 132 161 q 403 19 281 19 q 600 90 525 19 q 674 285 674 161 l 674 887 m 469 1052 l 641 1238 l 690 1238 l 514 1052 l 469 1052 m 326 1052 l 470 1238 l 516 1238 l 368 1052 l 326 1052 z "},"ű":{"ha":684,"x_min":91,"x_max":611,"o":"m 309 -14 q 147 59 203 -14 q 91 282 91 133 l 91 659 l 124 659 l 124 281 q 172 84 124 150 q 307 19 220 19 q 464 67 408 19 q 536 203 520 116 l 536 659 l 570 659 l 570 -1 l 542 -1 l 537 117 q 309 -14 472 -14 m 391 836 l 562 1021 l 611 1021 l 435 836 l 391 836 m 247 836 l 391 1021 l 437 1021 l 290 836 l 247 836 z "},"Ų":{"ha":833,"x_min":113,"x_max":722,"o":"m 722 261 q 682 97 722 163 q 572 -4 643 30 q 482 -89 506 -56 q 458 -155 458 -121 q 515 -212 458 -212 q 582 -189 550 -212 l 591 -218 q 515 -245 557 -245 q 448 -222 472 -245 q 425 -155 425 -199 q 502 -28 425 -100 q 417 -37 459 -37 q 195 42 276 -37 q 113 260 113 121 l 113 864 l 146 864 l 146 264 q 219 68 146 140 q 417 -4 293 -4 q 614 68 541 -4 q 687 264 687 140 l 687 864 l 722 863 l 722 261 z "},"ų":{"ha":684,"x_min":102,"x_max":600,"o":"m 467 -177 q 523 -235 467 -235 q 590 -212 559 -235 l 600 -241 q 523 -268 566 -268 q 456 -245 480 -268 q 433 -177 433 -222 q 547 -20 433 -109 l 547 80 q 320 -39 484 -39 q 102 208 106 -39 l 102 633 l 136 633 l 136 207 q 319 -6 139 -6 q 473 39 414 -6 q 547 169 532 83 l 547 633 l 581 633 l 581 -27 q 491 -111 515 -79 q 467 -177 467 -144 z "},"Ÿ":{"ha":747,"x_min":20,"x_max":722,"o":"m 387 0 l 354 0 l 354 338 l 20 888 l 60 888 l 354 395 l 370 364 l 386 395 l 681 888 l 722 888 l 387 338 l 387 0 m 275 1145 q 270 1140 275 1145 q 251 1135 265 1135 q 227 1145 237 1135 q 218 1169 218 1155 q 227 1193 218 1183 q 251 1203 237 1203 q 275 1193 265 1203 q 286 1169 286 1183 q 275 1145 286 1155 m 557 1169 q 557 1162 557 1169 q 547 1145 557 1155 q 523 1135 536 1135 q 499 1145 509 1135 q 489 1169 489 1155 q 499 1193 489 1183 q 523 1203 509 1203 q 547 1193 536 1203 q 557 1169 557 1183 z "},"Ź":{"ha":747,"x_min":52,"x_max":684,"o":"m 684 33 l 684 0 l 52 0 l 52 27 l 618 857 l 76 857 l 76 888 l 664 888 l 664 865 l 96 33 l 684 33 m 371 1064 l 487 1226 l 527 1226 l 408 1064 l 371 1064 z "},"ź":{"ha":597,"x_min":47,"x_max":562,"o":"m 562 33 l 562 0 l 47 0 l 47 27 l 481 627 l 66 627 l 66 661 l 526 661 l 526 631 l 92 33 l 562 33 m 304 848 l 420 1010 l 460 1010 l 341 848 l 304 848 z "},"Ż":{"ha":747,"x_min":52,"x_max":684,"o":"m 684 33 l 684 0 l 52 0 l 52 27 l 618 857 l 76 857 l 76 888 l 664 888 l 664 865 l 96 33 l 684 33 m 422 1136 q 417 1131 422 1136 q 398 1126 412 1126 q 374 1136 384 1126 q 364 1160 364 1146 q 374 1184 364 1174 q 398 1194 384 1194 q 422 1184 412 1194 q 432 1160 432 1174 q 422 1136 432 1146 z "},"ż":{"ha":597,"x_min":47,"x_max":562,"o":"m 562 33 l 562 0 l 47 0 l 47 27 l 481 627 l 66 627 l 66 661 l 526 661 l 526 631 l 92 33 l 562 33 m 355 920 q 350 915 355 920 q 331 910 345 910 q 307 920 317 910 q 297 944 297 930 q 307 968 297 958 q 331 978 317 978 q 355 968 345 978 q 365 944 365 958 q 355 920 365 930 z "},"Ž":{"ha":747,"x_min":52,"x_max":684,"o":"m 684 33 l 684 0 l 52 0 l 52 27 l 618 857 l 76 857 l 76 888 l 664 888 l 664 865 l 96 33 l 684 33 m 531 1223 l 531 1215 l 398 1063 l 361 1063 l 227 1217 l 227 1223 l 262 1223 l 380 1090 l 498 1223 l 531 1223 z "},"ž":{"ha":597,"x_min":47,"x_max":562,"o":"m 562 33 l 562 0 l 47 0 l 47 27 l 481 627 l 66 627 l 66 661 l 526 661 l 526 631 l 92 33 l 562 33 m 465 1007 l 465 999 l 332 846 l 295 846 l 161 1000 l 161 1007 l 196 1007 l 313 874 l 432 1007 l 465 1007 z "},"ƒ":{"ha":393,"x_min":-55,"x_max":406,"o":"m 188 597 l 188 -84 q 143 -242 188 -187 q 14 -296 98 -296 q -55 -284 -20 -296 l -47 -252 q 14 -263 -19 -263 q 118 -217 82 -263 q 155 -84 155 -172 l 155 597 l 40 597 l 40 631 l 155 631 l 155 727 q 200 870 155 819 q 326 921 245 921 q 406 910 372 921 l 400 879 q 328 888 366 888 q 224 845 262 888 q 187 725 187 803 l 187 631 l 362 631 l 363 597 l 188 597 z "},"Ț":{"ha":747,"x_min":31,"x_max":710,"o":"m 710 888 l 710 856 l 387 856 l 387 0 l 354 0 l 354 856 l 31 856 l 31 888 l 710 888 z "},"ț":{"ha":395,"x_min":15,"x_max":342,"o":"m 137 838 l 171 838 l 171 659 l 333 659 l 333 625 l 171 625 l 171 169 q 271 19 171 19 q 336 24 300 19 l 342 -5 q 273 -14 317 -14 q 171 30 205 -14 q 137 169 137 74 l 137 625 l 15 625 l 15 659 l 137 659 l 137 838 z "},"ʼ":{"ha":441,"x_min":161,"x_max":271,"o":"m 267 996 l 271 988 l 190 704 l 161 704 l 222 996 l 267 996 z "},"ˆ":{"ha":486,"x_min":93,"x_max":400,"o":"m 400 857 l 359 857 l 245 977 l 132 857 l 93 857 l 93 866 l 233 1012 l 258 1012 l 400 863 l 400 857 z "},"ˇ":{"ha":467,"x_min":83,"x_max":387,"o":"m 387 1004 l 387 996 l 254 843 l 217 843 l 83 997 l 83 1004 l 118 1004 l 235 871 l 354 1004 l 387 1004 z "},"ˉ":{"ha":495,"x_min":50,"x_max":433,"o":"m 433 984 l 433 951 l 50 951 l 50 984 l 433 984 z "},"˘":{"ha":523,"x_min":90,"x_max":430,"o":"m 397 991 l 430 991 q 384 881 430 922 q 260 840 338 840 q 136 881 182 840 q 90 991 90 922 l 123 991 q 158 904 123 935 q 259 873 193 873 q 361 905 326 873 q 397 991 397 936 z "},"˙":{"ha":258,"x_min":95,"x_max":163,"o":"m 153 920 q 148 915 153 920 q 129 910 143 910 q 105 920 115 910 q 95 944 95 930 q 105 968 95 958 q 129 978 115 978 q 153 968 143 978 q 163 944 163 958 q 153 920 163 930 z "},"˚":{"ha":357,"x_min":70,"x_max":278,"o":"m 245 926 q 245 943 245 926 q 225 979 245 959 q 174 999 205 999 q 122 979 142 999 q 102 926 102 959 q 122 874 102 894 q 174 855 142 855 q 225 874 205 855 q 245 926 245 894 m 175 822 q 153 822 175 822 q 100 851 131 822 q 70 926 70 881 q 100 1002 70 971 q 174 1032 131 1032 q 248 1001 218 1032 q 278 926 278 970 q 248 852 278 882 q 175 822 218 822 z "},"˛":{"ha":288,"x_min":43,"x_max":210,"o":"m 77 -170 q 133 -228 77 -228 q 200 -205 168 -228 l 210 -234 q 133 -261 175 -261 q 67 -238 91 -261 q 43 -170 43 -215 q 165 -14 43 -98 l 191 -26 q 101 -104 125 -71 q 77 -170 77 -136 z "},"˜":{"ha":498,"x_min":55,"x_max":445,"o":"m 412 985 l 445 985 q 414 904 445 936 q 338 872 384 872 q 277 891 310 872 q 213 929 243 910 q 162 949 183 949 q 109 928 128 949 q 89 872 89 907 l 55 872 q 85 951 55 920 q 162 981 115 981 q 256 944 201 981 q 341 906 311 906 q 391 928 370 906 q 412 985 412 949 z "},"˝":{"ha":478,"x_min":89,"x_max":453,"o":"m 233 836 l 404 1021 l 453 1021 l 277 836 l 233 836 m 89 836 l 233 1021 l 279 1021 l 132 836 l 89 836 z "},"π":{"ha":744,"x_min":38,"x_max":729,"o":"m 690 660 l 690 627 l 559 627 l 559 165 q 582 61 559 94 q 658 28 605 28 q 724 33 682 28 l 729 2 q 660 -5 711 -5 q 557 34 588 -5 q 525 161 526 73 l 525 627 l 190 627 l 190 -1 l 157 -1 l 157 627 l 38 627 l 38 660 l 690 660 z "},"ऀ":{"ha":0,"x_min":-529,"x_max":-138,"o":"m -364 960 l -364 1059 l -317 1059 l -317 960 l -364 960 m -340 1149 q -439 1130 -397 1149 q -517 1069 -480 1111 l -529 1097 q -343 1181 -459 1181 q -138 1093 -227 1181 l -150 1064 l -151 1064 q -340 1149 -238 1149 z "},"ँ":{"ha":0,"x_min":-555,"x_max":-164,"o":"m -353 1017 q -254 1037 -296 1017 q -176 1097 -213 1056 l -164 1070 q -350 985 -234 985 q -555 1074 -467 985 l -543 1103 l -543 1103 q -353 1017 -455 1017 m -330 1207 l -330 1107 l -377 1107 l -377 1207 l -330 1207 z "},"ं":{"ha":0,"x_min":-203,"x_max":-153,"o":"m -153 1113 l -153 1012 l -203 1012 l -203 1113 l -153 1113 z "},"ः":{"ha":348,"x_min":98,"x_max":151,"o":"m 151 205 l 151 125 l 98 125 l 98 205 l 151 205 m 151 636 l 151 557 l 98 557 l 98 636 l 151 636 z "},"ऄ":{"ha":929,"x_min":56,"x_max":949,"o":"m 479 295 q 416 141 479 199 q 256 84 353 84 q 56 127 159 84 l 61 161 q 252 117 149 117 q 392 168 338 117 q 446 299 446 218 q 402 424 446 368 q 276 491 358 479 q 153 477 218 477 l 153 510 q 422 694 422 514 q 376 798 422 757 q 256 838 330 838 q 101 798 165 838 l 96 833 q 252 871 163 871 q 397 821 340 871 q 454 692 454 770 q 423 582 454 630 q 326 507 392 533 q 425 441 384 489 l 723 441 l 723 831 l 548 831 l 548 864 l 723 864 l 723 905 q 698 1000 723 972 q 627 1028 673 1028 q 544 1012 610 1028 q 448 996 478 996 q 388 1006 418 996 q 320 1043 358 1016 l 331 1069 q 389 1036 363 1045 q 444 1026 415 1026 q 541 1043 473 1026 q 631 1060 608 1060 q 722 1024 688 1060 q 756 911 756 987 l 756 864 l 949 864 l 949 831 l 756 831 l 756 0 l 723 0 l 725 409 l 450 409 q 479 295 479 357 z "},"अ":{"ha":929,"x_min":56,"x_max":949,"o":"m 479 295 q 416 141 479 199 q 256 84 353 84 q 56 127 159 84 l 61 161 q 252 117 149 117 q 392 168 338 117 q 446 299 446 218 q 402 424 446 368 q 276 491 358 479 q 153 477 218 477 l 153 510 q 422 694 422 514 q 376 798 422 757 q 256 838 330 838 q 101 798 165 838 l 96 833 q 252 871 163 871 q 397 821 340 871 q 454 692 454 770 q 423 582 454 630 q 326 507 392 533 q 425 441 384 489 l 723 441 l 723 831 l 548 831 l 548 864 l 949 864 l 949 831 l 756 831 l 756 0 l 723 0 l 725 409 l 450 409 q 479 295 479 357 z "},"आ":{"ha":1284,"x_min":56,"x_max":1304,"o":"m 479 295 q 416 141 479 199 q 256 84 353 84 q 56 127 159 84 l 61 161 q 252 117 149 117 q 392 168 338 117 q 446 299 446 218 q 402 424 446 368 q 276 491 358 479 q 153 477 218 477 l 153 510 q 422 694 422 514 q 376 798 422 757 q 256 838 330 838 q 101 798 165 838 l 96 833 q 252 871 163 871 q 397 821 340 871 q 454 692 454 770 q 423 582 454 630 q 326 507 392 533 q 425 441 384 489 l 723 441 l 723 831 l 548 831 l 548 864 l 1304 864 l 1304 831 l 1111 831 l 1111 0 l 1078 0 l 1078 831 l 756 831 l 756 0 l 723 0 l 725 409 l 450 409 q 479 295 479 357 z "},"इ":{"ha":672,"x_min":-20,"x_max":692,"o":"m 157 56 q 137 63 157 56 q 118 94 118 71 q 130 129 118 117 q 161 141 142 141 q 260 74 209 141 q 309 71 280 71 q 475 117 411 71 q 539 242 539 164 q 494 341 539 304 q 380 378 448 378 q 290 363 334 378 q 218 327 245 349 l 212 327 q 123 387 161 340 q 85 492 85 433 q 141 604 85 563 q 298 646 197 646 l 465 646 l 465 831 l -20 831 l -20 864 l 692 864 l 692 831 l 499 831 l 499 612 l 298 612 q 164 580 210 612 q 119 489 119 548 q 144 411 119 446 q 210 361 170 376 q 290 397 243 384 q 379 411 336 411 q 518 364 464 411 q 573 242 573 317 q 499 93 573 149 q 310 37 426 37 q 298 38 306 37 q 287 38 290 38 l 397 -116 l 372 -132 l 248 40 q 157 56 195 41 z "},"ई":{"ha":672,"x_min":-20,"x_max":692,"o":"m 157 56 q 137 63 157 56 q 118 94 118 71 q 130 129 118 117 q 161 141 142 141 q 260 74 209 141 q 309 71 280 71 q 475 117 411 71 q 539 242 539 164 q 494 341 539 304 q 380 378 448 378 q 290 363 334 378 q 218 327 245 349 l 212 327 q 123 387 161 340 q 85 492 85 433 q 141 604 85 563 q 298 646 197 646 l 465 646 l 465 831 l -20 831 l -20 864 l 454 864 q 412 1024 412 962 q 448 1124 412 1087 q 538 1160 485 1160 q 631 1147 591 1160 l 627 1118 q 544 1129 585 1129 q 474 1101 503 1129 q 446 1014 446 1072 q 491 864 446 955 l 692 864 l 692 831 l 499 831 l 499 612 l 298 612 q 164 580 210 612 q 119 489 119 548 q 144 411 119 446 q 210 361 170 376 q 290 397 243 384 q 379 411 336 411 q 518 364 464 411 q 573 242 573 317 q 499 93 573 149 q 310 37 426 37 q 298 38 306 37 q 287 38 290 38 l 397 -116 l 372 -132 l 248 40 q 157 56 195 41 z "},"उ":{"ha":603,"x_min":-20,"x_max":623,"o":"m 254 55 l 254 57 q 154 70 201 57 q 44 109 107 82 l 50 142 q 259 90 159 90 q 412 142 359 90 q 466 286 466 195 q 406 416 466 362 q 237 474 346 470 q 142 467 196 467 l 136 467 l 136 500 l 139 500 q 344 546 279 500 q 408 682 408 591 q 254 832 408 823 l -20 832 l -20 865 l 623 865 l 623 832 l 362 832 q 441 679 441 783 q 316 492 441 541 q 450 414 401 473 q 499 279 499 355 q 435 115 499 174 q 254 55 371 55 z "},"ऊ":{"ha":892,"x_min":-20,"x_max":913,"o":"m 254 55 l 254 56 q 154 68 201 56 q 44 107 107 81 l 50 141 q 259 89 159 89 q 412 141 359 89 q 466 284 466 193 q 406 415 466 361 q 237 473 346 469 q 142 466 196 466 l 136 466 l 136 499 l 139 499 q 344 544 279 499 q 408 681 408 589 q 254 831 408 822 l -20 831 l -20 864 l 913 864 l 913 831 l 362 831 q 441 677 441 781 q 316 491 441 540 q 402 455 363 480 q 608 528 492 528 q 753 471 694 528 q 812 319 812 414 q 790 208 812 258 q 726 98 768 157 l 690 106 q 779 322 779 220 q 729 448 779 401 q 608 496 680 496 q 512 482 554 496 q 427 437 469 468 q 499 279 499 373 q 435 115 499 174 q 254 55 371 55 z "},"ऋ":{"ha":1038,"x_min":-20,"x_max":1059,"o":"m 346 513 q 191 575 250 575 q 57 536 132 575 l 50 569 q 192 610 121 610 q 375 537 264 610 l 499 456 l 499 830 l -20 830 l -20 863 l 1059 863 l 1059 830 l 532 830 l 532 438 q 747 486 664 441 q 727 525 727 509 q 742 552 727 541 q 779 563 757 563 q 815 552 802 563 q 829 524 829 541 q 804 483 829 502 q 922 267 922 367 q 882 164 922 201 q 782 127 842 127 q 726 132 748 127 l 724 160 q 768 156 745 156 q 857 184 825 156 q 889 261 889 213 q 858 364 889 309 q 775 463 827 418 q 532 406 684 410 l 532 0 l 499 0 l 497 381 l 152 174 l 133 201 l 495 417 l 346 513 z "},"ऌ":{"ha":935,"x_min":-21,"x_max":954,"o":"m 780 4 q 664 43 709 4 q 618 145 618 83 q 664 245 618 207 q 788 283 709 283 l 805 283 q 812 370 812 325 q 767 504 812 454 q 652 555 721 555 q 531 495 583 555 q 479 333 479 436 l 479 250 l 446 250 l 446 352 q 382 501 436 449 q 261 553 328 553 q 149 503 194 553 q 104 370 104 453 q 138 215 104 287 q 248 56 172 144 l 218 42 q 105 210 139 136 q 71 376 71 285 q 123 527 71 468 q 250 587 175 587 q 380 549 325 587 q 463 442 435 512 q 537 548 486 510 q 656 587 589 587 q 728 573 694 587 l 728 831 l -21 831 l -21 864 l 954 864 l 954 831 l 761 831 l 761 555 q 824 479 801 526 q 846 371 846 432 q 832 254 846 309 l 792 254 q 687 224 722 254 q 652 145 652 195 q 687 65 652 96 q 780 34 722 34 q 867 47 818 34 l 871 18 q 781 5 827 5 l 780 4 z "},"ऍ":{"ha":728,"x_min":-20,"x_max":749,"o":"m 130 497 l 130 831 l -20 831 l -20 864 l 749 864 l 749 831 l 555 831 l 555 574 q 529 431 555 486 q 446 337 503 375 l 422 364 q 500 450 478 399 q 522 585 522 500 l 522 831 l 163 831 l 163 494 q 183 323 163 397 q 250 191 203 249 q 562 44 340 77 l 547 12 q 220 173 315 50 q 151 314 172 235 q 130 497 130 393 m 340 1017 q 438 1037 397 1017 q 516 1097 479 1056 l 528 1070 q 342 985 458 985 q 138 1074 226 985 l 149 1103 l 150 1103 q 340 1017 237 1017 z "},"ऎ":{"ha":728,"x_min":-20,"x_max":748,"o":"m 129 497 l 129 831 l -20 831 l -20 864 l 522 864 l 522 905 q 496 1000 522 972 q 425 1028 471 1028 q 342 1012 408 1028 q 247 996 277 996 q 186 1006 216 996 q 119 1043 157 1016 l 130 1069 q 188 1036 162 1045 q 243 1026 214 1026 q 339 1043 272 1026 q 429 1060 406 1060 q 521 1024 487 1060 q 555 911 555 987 l 555 864 l 748 864 l 748 831 l 555 831 l 555 574 q 529 431 555 486 q 445 337 503 375 l 422 364 q 499 450 477 399 q 522 585 522 500 l 522 831 l 162 831 l 162 494 q 182 323 162 397 q 249 191 203 249 q 561 44 340 77 l 546 12 q 219 173 315 50 q 150 314 171 235 q 129 497 129 393 z "},"ए":{"ha":728,"x_min":-20,"x_max":748,"o":"m 129 497 l 129 831 l -20 831 l -20 864 l 748 864 l 748 831 l 555 831 l 555 574 q 529 431 555 486 q 445 337 503 375 l 422 364 q 499 450 477 399 q 522 585 522 500 l 522 831 l 162 831 l 162 494 q 182 323 162 397 q 249 191 203 249 q 561 44 340 77 l 546 12 q 219 173 315 50 q 150 314 171 235 q 129 497 129 393 z "},"ऐ":{"ha":728,"x_min":-20,"x_max":748,"o":"m 129 497 l 129 831 l -20 831 l -20 864 l 510 864 l 254 1164 l 281 1181 l 551 864 l 748 864 l 748 831 l 555 831 l 555 574 q 529 431 555 486 q 445 337 503 375 l 422 364 q 499 450 477 399 q 522 585 522 500 l 522 831 l 162 831 l 162 494 q 182 323 162 397 q 249 191 203 249 q 561 44 340 77 l 546 12 q 219 173 315 50 q 150 314 171 235 q 129 497 129 393 z "},"ऑ":{"ha":1284,"x_min":56,"x_max":1305,"o":"m 480 295 q 417 141 480 199 q 257 84 353 84 q 56 127 160 84 l 62 161 q 253 117 150 117 q 393 168 339 117 q 447 299 447 218 q 403 424 447 368 q 277 491 359 479 q 153 477 219 477 l 153 510 q 422 694 422 514 q 376 798 422 757 q 256 838 330 838 q 102 798 166 838 l 96 833 q 252 871 163 871 q 398 821 341 871 q 455 692 455 770 q 424 582 455 630 q 326 507 393 533 q 425 441 385 489 l 724 441 l 724 831 l 549 831 l 549 864 l 1305 864 l 1305 831 l 1112 831 l 1112 0 l 1078 0 l 1078 831 l 757 831 l 757 0 l 724 0 l 726 409 l 450 409 q 480 295 480 357 m 928 1017 q 1027 1037 985 1017 q 1105 1097 1068 1056 l 1117 1070 q 931 985 1047 985 q 726 1074 814 985 l 738 1103 l 739 1103 q 928 1017 826 1017 z "},"ऒ":{"ha":1284,"x_min":56,"x_max":1304,"o":"m 479 295 q 416 141 479 199 q 256 84 353 84 q 56 127 159 84 l 61 161 q 252 117 149 117 q 392 168 338 117 q 446 299 446 218 q 402 424 446 368 q 276 491 358 479 q 153 477 218 477 l 153 510 q 422 694 422 514 q 376 798 422 757 q 256 838 330 838 q 101 798 165 838 l 96 833 q 252 871 163 871 q 397 821 340 871 q 454 692 454 770 q 423 582 454 630 q 326 507 392 533 q 425 441 384 489 l 723 441 l 723 831 l 548 831 l 548 864 l 1078 864 l 1078 905 q 1053 1000 1078 972 q 981 1028 1027 1028 q 899 1012 964 1028 q 803 996 833 996 q 743 1006 772 996 q 675 1043 713 1016 l 686 1069 q 744 1036 718 1045 q 799 1026 770 1026 q 895 1043 828 1026 q 985 1060 962 1060 q 1077 1024 1043 1060 q 1111 911 1111 987 l 1111 864 l 1304 864 l 1304 831 l 1111 831 l 1111 0 l 1078 0 l 1078 831 l 756 831 l 756 0 l 723 0 l 725 409 l 450 409 q 479 295 479 357 z "},"ओ":{"ha":1284,"x_min":56,"x_max":1304,"o":"m 479 295 q 416 141 479 199 q 256 84 353 84 q 56 127 159 84 l 61 161 q 252 117 149 117 q 392 168 338 117 q 446 299 446 218 q 402 424 446 368 q 276 491 358 479 q 153 477 218 477 l 153 510 q 422 694 422 514 q 376 798 422 757 q 256 838 330 838 q 101 798 165 838 l 96 833 q 252 871 163 871 q 397 821 340 871 q 454 692 454 770 q 423 582 454 630 q 326 507 392 533 q 425 441 384 489 l 723 441 l 723 831 l 548 831 l 548 864 l 1067 864 l 812 1164 l 839 1181 l 1108 864 l 1304 864 l 1304 831 l 1111 831 l 1111 0 l 1078 0 l 1078 831 l 756 831 l 756 0 l 723 0 l 725 409 l 450 409 q 479 295 479 357 z "},"औ":{"ha":1284,"x_min":56,"x_max":1304,"o":"m 479 295 q 416 141 479 199 q 256 84 353 84 q 56 127 159 84 l 61 161 q 252 117 149 117 q 392 168 338 117 q 446 299 446 218 q 402 424 446 368 q 276 491 358 479 q 153 477 218 477 l 153 510 q 422 694 422 514 q 376 798 422 757 q 256 838 330 838 q 101 798 165 838 l 96 833 q 252 871 163 871 q 397 821 340 871 q 454 692 454 770 q 423 582 454 630 q 326 507 392 533 q 425 441 384 489 l 723 441 l 723 831 l 548 831 l 548 864 l 1034 864 l 696 1105 l 715 1130 l 1075 871 l 924 1206 l 955 1216 l 1112 864 l 1304 864 l 1304 831 l 1111 831 l 1111 0 l 1078 0 l 1078 831 l 756 831 l 756 0 l 723 0 l 725 409 l 450 409 q 479 295 479 357 z "},"क":{"ha":996,"x_min":-20,"x_max":1016,"o":"m 512 0 l 479 0 l 479 251 q 279 178 402 178 q 129 238 192 178 q 65 398 65 298 q 123 553 65 498 q 264 608 181 608 q 479 547 385 608 l 479 831 l -20 831 l -20 864 l 1016 864 l 1016 831 l 512 831 l 512 527 q 701 585 595 585 q 847 527 787 585 q 907 375 907 470 q 883 252 907 314 q 827 147 859 190 l 791 156 q 850 259 827 197 q 873 378 873 321 q 823 504 873 456 q 701 551 773 551 q 512 491 600 551 l 512 0 m 98 396 q 98 354 98 396 q 152 261 98 311 q 273 211 205 211 q 390 230 342 211 q 479 290 437 250 l 479 511 q 380 559 429 544 q 262 575 331 575 q 146 528 194 575 q 98 396 98 481 z "},"ख":{"ha":1108,"x_min":-21,"x_max":1128,"o":"m 731 279 l 732 279 q 903 345 838 279 l 903 548 q 734 606 833 606 q 611 562 661 606 q 559 443 561 518 q 610 323 558 368 q 731 279 661 279 m 333 602 l 333 831 l -21 831 l -21 864 l 1128 864 l 1128 831 l 935 831 l 935 0 l 901 0 l 901 304 q 734 245 844 245 q 588 299 650 245 q 526 443 526 353 q 587 585 526 532 q 730 638 648 638 q 827 624 782 638 q 902 586 873 609 l 902 831 l 367 831 l 367 600 q 321 441 367 499 q 181 375 275 382 l 473 14 l 446 -2 l 23 522 l 50 537 l 155 407 q 333 602 333 408 z "},"ग":{"ha":776,"x_min":-20,"x_max":796,"o":"m 570 0 l 570 831 l 235 831 l 235 381 q 201 320 235 320 q 157 352 176 320 q 138 422 138 383 q 186 466 138 466 l 201 466 l 201 831 l -20 831 l -20 864 l 796 864 l 796 831 l 603 831 l 603 0 l 570 0 z "},"घ":{"ha":822,"x_min":-20,"x_max":842,"o":"m 358 188 q 616 274 499 188 l 616 830 l 328 830 q 212 797 254 830 q 171 703 171 764 q 219 600 171 642 q 342 559 267 559 l 440 559 l 442 526 l 356 526 q 203 480 261 526 q 144 358 144 434 q 203 235 144 282 q 358 188 262 188 m 616 0 l 616 233 q 496 176 564 198 q 362 155 429 155 q 182 210 253 155 q 111 360 111 266 q 149 474 111 426 q 254 545 186 523 q 168 607 199 564 q 137 707 137 650 q 205 831 137 788 l -20 831 l -20 864 l 842 864 l 842 831 l 649 831 l 649 0 l 616 0 z "},"ङ":{"ha":785,"x_min":-20,"x_max":805,"o":"m 349 37 l 349 36 q 85 111 227 36 l 90 144 q 349 66 216 66 q 509 112 450 66 q 567 238 567 157 q 519 338 567 298 q 401 378 472 378 q 231 327 304 378 l 226 327 q 138 385 176 338 q 99 492 99 432 q 154 604 99 562 q 305 645 208 645 l 485 645 l 485 830 l -20 830 l -20 863 l 805 863 l 805 830 l 519 830 l 519 612 l 304 612 q 178 579 223 612 q 133 489 133 547 q 158 410 133 445 q 224 361 184 375 q 314 400 276 389 q 399 410 351 410 q 542 361 486 410 q 598 237 598 312 q 531 90 598 143 q 349 37 465 37 m 710 529 l 710 422 l 658 422 l 658 529 l 710 529 z "},"च":{"ha":848,"x_min":-20,"x_max":868,"o":"m 430 184 q 257 238 322 184 q 192 379 192 292 q 218 474 192 432 q 291 542 243 517 l 46 542 l 46 575 l 489 575 l 489 542 l 431 542 q 280 495 335 542 q 225 376 225 449 q 279 260 225 304 q 429 217 334 217 q 540 239 484 217 q 642 300 596 262 l 642 831 l -20 831 l -20 864 l 868 864 l 868 831 l 675 831 l 675 0 l 642 0 l 642 259 q 543 205 600 227 q 430 184 487 184 z "},"छ":{"ha":936,"x_min":-20,"x_max":956,"o":"m 420 37 q 204 109 290 37 q 117 288 119 181 q 154 418 117 363 q 258 497 191 473 q 154 569 191 519 q 119 682 118 618 q 143 768 120 729 q 206 831 167 807 l -20 831 l -20 864 l 956 864 l 956 831 l 763 831 l 763 587 q 830 407 830 524 q 715 141 830 246 q 420 37 600 37 m 796 410 q 758 542 796 490 q 660 595 720 595 q 551 564 601 595 l 541 592 q 661 628 589 628 q 729 611 696 628 l 729 831 l 319 831 q 199 786 247 831 q 151 675 151 741 q 203 562 151 608 q 356 515 254 515 l 424 515 l 427 481 l 368 481 q 208 429 266 481 q 151 286 149 377 q 187 176 151 226 q 283 98 222 126 q 416 70 344 70 q 613 113 526 70 q 748 234 699 156 q 796 410 796 311 z "},"ज":{"ha":878,"x_min":-20,"x_max":898,"o":"m 671 0 l 671 546 l 303 546 q 410 458 368 516 q 452 328 452 399 q 388 164 452 224 q 227 104 324 104 q 129 114 170 104 q 42 146 88 123 l 51 177 q 135 145 100 154 q 224 137 170 137 q 363 189 307 137 q 418 327 418 240 q 347 480 418 413 q 180 547 275 547 l 126 547 l 126 580 l 671 580 l 671 831 l -20 831 l -20 864 l 898 864 l 898 831 l 705 831 l 705 0 l 671 0 z "},"झ":{"ha":1035,"x_min":-8,"x_max":1055,"o":"m 169 56 q 150 63 169 56 q 130 94 130 71 q 142 129 130 117 q 174 141 155 141 q 273 74 221 141 q 321 71 292 71 q 487 117 423 71 q 551 242 551 164 q 506 341 551 304 q 393 378 460 378 q 302 363 347 378 q 230 327 257 349 l 224 327 q 135 387 173 340 q 98 492 98 433 q 153 604 98 563 q 311 646 209 646 l 477 646 l 477 831 l -8 831 l -8 864 l 1055 864 l 1055 831 l 861 831 l 861 0 l 828 0 l 828 294 l 577 294 q 585 242 585 270 q 512 93 585 149 q 322 37 438 37 q 310 38 318 37 q 299 38 302 38 l 410 -116 l 384 -132 l 260 40 q 169 56 208 41 m 829 328 l 829 831 l 512 831 l 512 612 l 311 612 q 177 580 223 612 q 132 489 132 548 q 157 411 132 446 q 222 361 182 376 q 303 397 256 384 q 399 411 349 411 q 493 389 449 411 q 562 328 538 366 l 829 328 z "},"ञ":{"ha":947,"x_min":-20,"x_max":968,"o":"m 494 413 l 494 403 q 430 233 494 296 q 259 171 365 171 q 158 187 208 171 q 42 247 109 203 l 52 278 q 165 219 121 233 q 259 204 210 204 q 408 257 353 204 q 462 402 462 311 q 404 548 462 494 q 253 604 347 602 q 98 562 160 605 l 88 591 q 251 636 155 636 q 411 585 347 636 q 490 448 475 534 l 741 448 l 741 831 l -20 831 l -20 864 l 968 864 l 968 831 l 774 831 l 774 0 l 741 0 l 743 413 l 494 413 z "},"ट":{"ha":662,"x_min":-20,"x_max":683,"o":"m 344 606 l 455 606 l 455 831 l -20 831 l -20 864 l 683 864 l 683 831 l 490 831 l 490 572 l 348 572 q 155 513 227 572 q 83 353 83 454 q 123 220 83 277 q 226 135 163 163 q 373 107 290 107 q 547 136 456 107 l 550 104 q 463 81 502 88 q 365 74 425 74 l 365 74 q 144 146 235 74 q 75 235 100 180 q 50 355 50 289 q 129 538 50 470 q 344 606 208 606 z "},"ठ":{"ha":764,"x_min":-20,"x_max":784,"o":"m 375 106 l 375 107 q 582 171 506 107 q 657 340 657 235 q 552 567 657 473 l 363 567 q 175 510 248 567 q 102 349 102 453 q 177 175 102 244 q 375 106 253 106 m 380 73 l 379 73 q 154 151 240 73 q 68 350 68 229 q 109 488 68 430 q 214 573 149 546 q 361 600 279 600 l 557 600 l 557 831 l -20 831 l -20 864 l 784 864 l 784 831 l 591 831 l 591 581 q 691 345 691 470 q 605 146 691 220 q 380 73 519 73 z "},"ड":{"ha":692,"x_min":-20,"x_max":712,"o":"m 349 37 l 349 36 q 85 111 227 36 l 90 144 q 349 66 216 66 q 509 112 450 66 q 567 238 567 157 q 519 338 567 298 q 401 378 472 378 q 231 327 304 378 l 226 327 q 138 385 176 338 q 99 492 99 432 q 154 604 99 562 q 305 645 208 645 l 485 645 l 485 830 l -20 830 l -20 863 l 712 863 l 712 830 l 519 830 l 519 612 l 304 612 q 178 579 223 612 q 133 489 133 547 q 158 410 133 445 q 224 361 184 375 q 314 400 276 389 q 399 410 351 410 q 542 361 486 410 q 598 237 598 312 q 531 90 598 143 q 349 37 465 37 z "},"ढ":{"ha":694,"x_min":-20,"x_max":714,"o":"m 612 212 q 612 180 612 212 q 550 100 612 147 q 389 52 487 52 q 214 88 291 52 q 92 192 137 124 q 47 347 47 260 q 129 536 47 467 q 344 606 210 606 l 486 606 l 486 831 l -20 831 l -20 864 l 714 864 l 714 831 l 521 831 l 521 572 l 353 572 q 155 511 230 572 q 81 340 81 450 q 169 157 81 229 q 385 85 256 85 q 525 122 471 85 q 579 216 579 159 q 546 292 579 262 q 456 322 513 322 q 296 223 347 322 l 271 241 q 350 327 301 299 q 460 355 399 355 q 567 316 521 355 q 612 212 612 277 z "},"ण":{"ha":952,"x_min":-20,"x_max":972,"o":"m 153 526 q 193 401 153 442 q 303 359 232 359 q 412 401 374 359 q 449 533 449 443 l 449 831 l 153 831 l 153 526 m 746 0 l 746 831 l 482 831 l 482 532 q 438 379 482 432 q 305 326 394 326 q 168 379 216 326 q 120 530 120 432 l 120 831 l -20 831 l -20 864 l 972 864 l 972 831 l 779 831 l 779 0 l 746 0 z "},"त":{"ha":730,"x_min":-20,"x_max":751,"o":"m 524 0 l 524 547 l 338 547 q 174 495 232 547 q 116 357 116 444 q 148 197 116 270 q 261 22 180 124 l 232 8 q 116 192 150 114 q 83 363 83 270 q 151 518 83 457 q 330 580 220 580 l 524 580 l 524 831 l -20 831 l -20 864 l 751 864 l 751 831 l 557 831 l 557 0 l 524 0 z "},"थ":{"ha":838,"x_min":76,"x_max":859,"o":"m 632 0 l 632 264 q 540 213 599 233 q 417 192 481 192 q 209 260 300 192 q 76 457 119 328 l 79 466 q 323 528 241 469 q 406 687 406 588 q 372 784 406 743 q 279 825 337 825 q 189 789 220 825 q 157 698 157 753 q 165 630 157 667 l 138 625 q 125 700 125 662 q 166 812 125 768 q 278 857 207 857 q 394 805 349 857 q 439 684 439 753 q 355 511 439 579 q 117 439 270 444 q 235 280 155 336 q 416 224 315 224 q 534 246 476 224 q 632 307 591 267 l 632 831 l 524 831 l 524 864 l 859 864 l 859 831 l 665 831 l 665 0 l 632 0 z "},"द":{"ha":668,"x_min":-20,"x_max":688,"o":"m 352 127 q 151 196 228 127 q 73 371 73 264 q 147 541 73 477 q 349 604 221 604 l 462 604 l 462 831 l -20 831 l -20 865 l 688 865 l 688 831 l 495 831 l 495 571 l 350 571 q 170 517 234 571 q 106 372 106 463 q 175 221 106 281 q 349 161 243 161 q 442 169 406 161 q 440 195 440 187 q 456 233 440 217 q 496 248 472 248 q 535 235 520 248 q 549 204 549 222 q 480 145 547 169 l 565 -66 l 536 -76 l 451 138 q 352 127 404 127 z "},"ध":{"ha":823,"x_min":92,"x_max":843,"o":"m 362 153 q 178 208 247 153 q 109 360 109 264 q 142 466 109 420 q 237 534 176 511 q 133 603 174 553 q 92 719 92 653 q 135 829 92 785 q 249 873 179 873 q 370 837 319 873 l 364 804 q 255 840 316 841 q 160 805 195 838 q 125 715 125 772 q 182 601 125 648 q 302 553 239 553 l 429 553 l 431 520 l 356 520 q 200 476 258 520 q 143 356 143 431 q 200 234 143 281 q 359 186 256 186 q 616 275 500 186 l 616 831 l 511 831 l 511 864 l 843 864 l 843 831 l 650 831 l 650 0 l 616 -1 l 616 234 q 362 153 498 153 z "},"न":{"ha":715,"x_min":-20,"x_max":736,"o":"m 509 0 l 509 490 l 168 490 l 168 394 q 140 340 168 340 q 106 381 123 340 q 90 476 90 422 q 103 511 90 500 q 149 523 117 523 l 509 523 l 509 831 l -20 831 l -20 864 l 736 864 l 736 831 l 543 831 l 543 0 l 509 0 z "},"ऩ":{"ha":715,"x_min":-20,"x_max":736,"o":"m 218 68 l 218 -33 l 166 -33 l 166 68 l 218 68 m 509 0 l 509 490 l 168 490 l 168 394 q 140 340 168 340 q 106 381 123 340 q 90 476 90 422 q 103 511 90 500 q 149 523 117 523 l 509 523 l 509 831 l -20 831 l -20 864 l 736 864 l 736 831 l 543 831 l 543 0 l 509 0 z "},"प":{"ha":696,"x_min":-20,"x_max":716,"o":"m 304 360 q 490 445 416 360 l 490 831 l 144 831 l 144 549 q 304 360 144 360 m 490 0 l 490 401 q 410 347 458 367 q 306 327 361 327 q 163 384 215 327 q 111 562 111 441 l 111 831 l -20 831 l -20 864 l 716 864 l 716 831 l 523 831 l 523 0 l 490 0 z "},"फ":{"ha":1010,"x_min":-21,"x_max":1030,"o":"m 523 0 l 489 0 l 489 401 q 409 347 458 367 q 305 327 361 327 q 162 384 214 327 q 110 562 110 441 l 110 831 l -21 831 l -21 864 l 1030 864 l 1030 831 l 522 831 l 522 473 q 706 541 602 541 q 843 484 791 541 q 896 329 896 428 q 831 117 896 229 l 795 126 q 844 225 825 170 q 863 334 863 280 q 820 461 863 414 q 706 507 777 507 q 523 434 609 507 l 523 0 m 304 360 q 490 445 416 360 l 490 831 l 144 831 l 144 549 q 304 360 144 360 z "},"ब":{"ha":713,"x_min":-20,"x_max":733,"o":"m 300 599 l 298 600 q 237 591 266 600 l 427 251 q 507 302 471 268 l 507 530 q 300 599 418 599 m 507 0 l 507 262 q 416 211 471 230 q 299 191 360 191 q 133 254 199 191 q 66 415 66 316 q 133 573 66 513 q 296 632 200 632 q 507 572 418 632 l 507 831 l -20 831 l -20 864 l 733 864 l 733 831 l 540 831 l 540 0 l 507 0 m 98 415 q 155 277 98 330 q 296 225 211 225 q 394 239 345 225 l 204 581 q 127 515 155 558 q 98 415 98 472 z "},"भ":{"ha":736,"x_min":-3,"x_max":757,"o":"m 530 0 l 530 433 l 227 433 l 227 381 q 193 320 227 320 q 149 352 168 320 q 130 422 130 383 q 178 466 130 466 l 193 466 l 193 714 q 170 804 193 774 q 114 834 146 834 q 62 825 82 834 q 14 786 41 815 l -3 813 q 112 867 47 868 q 194 827 162 867 q 227 715 227 787 l 227 466 l 530 466 l 530 831 l 425 831 l 425 864 l 757 864 l 757 831 l 564 831 l 564 0 l 530 0 z "},"म":{"ha":757,"x_min":-20,"x_max":777,"o":"m 551 0 l 551 433 l 227 433 l 227 381 q 193 320 227 320 q 149 352 168 320 q 130 422 130 383 q 178 466 130 466 l 193 466 l 193 831 l -20 831 l -20 864 l 777 864 l 777 831 l 584 831 l 584 0 l 551 0 m 551 831 l 227 831 l 227 466 l 551 466 l 551 831 z "},"य":{"ha":761,"x_min":-20,"x_max":781,"o":"m 368 248 q 192 309 275 248 q 66 478 109 370 l 68 484 q 226 544 178 503 q 277 648 275 584 q 257 746 279 698 q 191 831 234 795 l -20 831 l -20 864 l 781 864 l 781 831 l 588 831 l 588 0 l 555 0 l 555 311 q 476 267 526 286 q 368 248 426 248 m 555 831 l 236 831 q 289 750 267 800 q 311 646 311 701 q 256 526 310 576 q 108 461 201 476 q 217 329 146 377 q 368 281 288 281 q 555 351 480 281 l 555 831 z "},"र":{"ha":532,"x_min":-20,"x_max":553,"o":"m 334 602 l 334 831 l -20 831 l -20 864 l 553 864 l 553 831 l 367 831 l 367 600 q 321 441 367 499 q 181 375 275 382 l 473 14 l 446 -2 l 24 522 l 50 537 l 155 407 q 334 602 334 408 z "},"ऱ":{"ha":532,"x_min":-20,"x_max":553,"o":"m 116 68 l 116 -33 l 64 -33 l 64 68 l 116 68 m 334 602 l 334 831 l -20 831 l -20 864 l 553 864 l 553 831 l 367 831 l 367 600 q 321 441 367 499 q 181 375 275 382 l 473 14 l 446 -2 l 24 522 l 50 537 l 155 407 q 334 602 334 408 z "},"ल":{"ha":991,"x_min":-20,"x_max":1011,"o":"m 641 553 q 536 502 578 553 q 494 352 494 450 l 494 250 l 461 250 l 461 353 q 438 444 456 404 q 395 507 420 484 q 277 555 343 555 q 167 505 211 555 q 123 370 123 454 q 154 217 123 286 q 260 56 185 148 l 231 42 q 121 214 153 142 q 90 376 90 285 q 142 527 90 468 q 276 587 195 587 q 394 551 342 587 q 473 450 446 516 q 538 550 493 515 q 633 585 583 585 q 723 568 684 585 q 785 523 762 550 l 785 831 l -20 831 l -20 864 l 1011 864 l 1011 831 l 818 831 l 818 0 l 785 0 l 785 473 q 641 553 741 553 z "},"ळ":{"ha":1018,"x_min":-20,"x_max":1038,"o":"m 890 349 q 890 406 890 349 q 840 521 890 463 q 708 580 791 580 q 574 516 625 580 q 524 344 524 453 q 577 176 524 235 q 710 117 630 117 q 840 176 789 117 q 890 349 890 236 m 118 351 q 118 294 118 351 q 168 177 118 237 q 297 117 218 117 q 430 176 376 117 q 483 345 483 235 q 432 517 483 454 q 298 581 382 581 q 166 522 215 581 q 118 351 118 464 m 294 87 q 144 157 205 87 q 83 351 83 228 q 141 543 83 474 q 296 612 199 612 q 428 566 372 612 q 503 445 484 519 q 577 566 522 519 q 708 612 633 612 q 812 587 766 612 l 812 831 l -20 831 l -20 864 l 1038 864 l 1038 831 l 845 831 l 845 563 q 922 347 922 493 q 862 157 922 227 q 711 87 802 87 l 711 87 q 579 129 634 87 q 504 248 524 172 q 429 129 485 172 q 294 87 373 87 z "},"ऴ":{"ha":1018,"x_min":-20,"x_max":1038,"o":"m 229 0 l 229 -101 l 178 -101 l 178 0 l 229 0 m 890 349 q 890 406 890 349 q 840 521 890 463 q 708 580 791 580 q 574 516 625 580 q 524 344 524 453 q 577 176 524 235 q 710 117 630 117 q 840 176 789 117 q 890 349 890 236 m 118 351 q 118 294 118 351 q 168 177 118 237 q 297 117 218 117 q 430 176 376 117 q 483 345 483 235 q 432 517 483 454 q 298 581 382 581 q 166 522 215 581 q 118 351 118 464 m 294 87 q 144 157 205 87 q 83 351 83 228 q 141 543 83 474 q 296 612 199 612 q 428 566 372 612 q 503 445 484 519 q 577 566 522 519 q 708 612 633 612 q 812 587 766 612 l 812 831 l -20 831 l -20 864 l 1038 864 l 1038 831 l 845 831 l 845 563 q 922 347 922 493 q 862 157 922 227 q 711 87 802 87 l 711 87 q 579 129 634 87 q 504 248 524 172 q 429 129 485 172 q 294 87 373 87 z "},"व":{"ha":699,"x_min":-20,"x_max":733,"o":"m 297 224 l 298 224 q 507 302 427 224 l 507 530 q 300 599 418 599 q 157 548 214 599 q 100 413 100 497 q 156 277 100 329 q 297 224 212 224 m 507 0 l 507 262 q 416 211 471 230 q 299 191 360 191 q 133 254 199 191 q 66 415 66 316 q 133 573 66 513 q 296 632 200 632 q 507 572 418 632 l 507 831 l -20 831 l -20 864 l 733 864 l 733 831 l 540 831 l 540 0 l 507 0 z "},"श":{"ha":913,"x_min":118,"x_max":934,"o":"m 176 310 q 131 349 131 310 q 146 391 131 372 q 183 410 162 410 q 220 397 205 410 q 251 355 235 384 q 411 461 342 380 q 479 629 479 542 q 432 774 479 716 q 310 834 385 832 q 193 793 235 836 q 151 686 151 751 q 159 618 151 653 l 127 614 q 118 688 118 661 q 172 819 118 768 q 311 867 225 870 q 454 798 397 865 q 512 632 512 731 q 440 448 512 533 q 270 328 368 362 l 486 41 l 458 24 l 235 317 q 176 310 204 310 m 707 0 l 707 831 l 596 831 l 596 864 l 934 864 l 934 831 l 741 831 l 741 0 l 707 0 z "},"ष":{"ha":696,"x_min":-20,"x_max":716,"o":"m 304 360 q 477 431 408 360 l 144 828 l 144 549 q 304 360 144 360 m 490 831 l 182 831 l 490 465 l 490 831 m 490 0 l 490 401 q 410 347 458 367 q 306 327 361 327 q 163 384 215 327 q 111 562 111 441 l 111 831 l -20 831 l -20 864 l 716 864 l 716 831 l 523 831 l 523 0 l 490 0 z "},"स":{"ha":872,"x_min":-20,"x_max":892,"o":"m 311 583 l 311 831 l -20 831 l -20 865 l 892 865 l 892 831 l 699 831 l 699 1 l 666 1 l 666 410 l 294 410 q 181 355 254 362 l 411 14 l 383 -2 l 33 522 l 59 537 l 160 387 q 272 438 233 389 q 311 583 311 488 m 345 580 q 317 443 345 496 l 666 443 l 666 831 l 345 831 l 345 580 z "},"ह":{"ha":690,"x_min":-21,"x_max":710,"o":"m 106 172 q 176 344 106 278 q 76 500 76 402 q 124 605 76 566 q 263 644 173 644 l 484 644 l 484 831 l -21 831 l -21 865 l 710 865 l 710 831 l 517 831 l 517 611 l 266 611 q 109 497 109 611 q 130 422 109 454 q 199 363 150 391 q 344 408 262 408 q 510 356 450 408 q 570 229 570 304 q 567 181 570 197 q 555 134 564 165 l 523 139 q 537 229 537 185 q 489 331 537 288 q 350 375 441 374 q 200 318 260 376 q 140 169 140 261 q 234 -7 140 56 q 508 -71 327 -71 l 504 -102 q 209 -28 312 -102 q 106 172 106 47 z "},"ऺ":{"ha":0,"x_min":-193,"x_max":-159,"o":"m -193 1002 l -159 1002 l -159 835 l -193 835 l -193 1002 z "},"ऻ":{"ha":340,"x_min":-20,"x_max":361,"o":"m 134 0 l 134 831 l -20 831 l -20 864 l 148 864 l 148 1002 l 181 1002 l 181 864 l 361 864 l 361 831 l 168 831 l 168 0 l 134 0 z "},"़":{"ha":0,"x_min":-556,"x_max":-505,"o":"m -505 68 l -505 -33 l -556 -33 l -556 68 l -505 68 z "},"ऽ":{"ha":610,"x_min":45,"x_max":484,"o":"m 287 515 q 338 489 287 515 q 436 408 388 463 q 484 275 484 352 q 425 145 484 199 q 270 91 366 91 q 45 149 153 91 l 53 182 q 267 124 156 124 q 399 168 349 124 q 450 283 450 211 q 404 391 450 342 q 256 493 359 439 q 109 596 154 547 q 63 715 63 646 q 118 824 63 785 q 283 864 174 864 l 477 864 l 477 831 l 290 831 q 144 801 189 831 q 98 708 98 770 q 142 612 98 656 q 287 515 186 568 z "},"ा":{"ha":340,"x_min":-20,"x_max":361,"o":"m 134 0 l 134 831 l -20 831 l -20 864 l 361 864 l 361 831 l 168 831 l 168 0 l 134 0 z "},"ि":{"ha":340,"x_min":-20,"x_max":861,"o":"m 134 0 l 134 831 l -20 831 l -20 864 l 134 864 l 134 895 q 182 1013 134 962 q 309 1091 230 1065 q 484 1118 388 1118 q 861 1048 661 1118 l 852 1017 q 490 1084 669 1084 q 259 1030 350 1084 q 168 886 168 977 l 168 864 l 361 864 l 361 831 l 168 831 l 168 0 l 134 0 z "},"ी":{"ha":340,"x_min":-264,"x_max":361,"o":"m -19 831 l -19 864 l 130 864 q 15 1062 76 996 q -119 1128 -47 1128 q -201 1099 -171 1128 q -231 1017 -231 1069 q -176 859 -231 944 l -210 859 q -264 1023 -264 940 q -226 1122 -264 1084 q -121 1160 -188 1160 q 165 864 48 1160 l 361 864 l 361 831 l 168 831 l 168 0 l 134 0 l 136 831 l -19 831 z "},"ु":{"ha":0,"x_min":-516,"x_max":-12,"o":"m -340 -36 q -194 5 -273 5 q -63 -39 -114 5 q -12 -154 -12 -82 q -65 -269 -12 -226 q -199 -311 -118 -312 q -354 -283 -281 -311 q -516 -188 -427 -256 l -502 -158 q -345 -253 -414 -227 q -203 -279 -276 -279 q -87 -245 -130 -279 q -45 -154 -45 -212 q -86 -62 -45 -96 q -198 -28 -128 -28 q -333 -68 -269 -28 l -340 -36 z "},"ू":{"ha":0,"x_min":-380,"x_max":129,"o":"m -203 -300 q -329 -257 -278 -300 q -380 -146 -380 -214 q -329 -36 -380 -79 q -203 5 -278 6 q -30 -48 -111 3 q 129 -216 51 -100 l 107 -238 q -50 -73 25 -120 q -196 -26 -124 -26 q -308 -59 -269 -26 q -348 -149 -348 -92 q -307 -238 -348 -205 q -203 -271 -267 -271 q -98 -259 -155 -271 l -94 -288 q -203 -300 -165 -300 z "},"ृ":{"ha":0,"x_min":-378,"x_max":-106,"o":"m -203 -278 q -330 -238 -282 -278 q -378 -133 -378 -197 q -334 -27 -378 -68 q -208 14 -290 14 l -160 14 l -160 -17 l -205 -17 q -312 -50 -278 -17 q -347 -134 -347 -82 q -307 -218 -347 -185 q -203 -251 -268 -251 q -110 -238 -157 -251 l -106 -264 q -203 -278 -153 -278 z "},"ॄ":{"ha":0,"x_min":-356,"x_max":-106,"o":"m -108 -376 q -196 -391 -146 -391 q -280 -363 -246 -391 q -314 -288 -314 -335 q -271 -214 -314 -240 q -334 -173 -311 -201 q -356 -104 -356 -144 q -315 -19 -356 -51 q -208 14 -274 14 l -160 14 l -160 -17 l -205 -17 q -293 -40 -262 -17 q -323 -105 -323 -64 q -294 -169 -323 -146 q -217 -193 -264 -193 q -131 -185 -170 -193 l -123 -212 q -209 -223 -158 -223 l -213 -223 q -264 -247 -247 -229 q -282 -295 -282 -265 q -256 -345 -282 -324 q -192 -365 -231 -365 q -113 -352 -154 -365 l -106 -378 l -108 -376 z "},"ॅ":{"ha":0,"x_min":-555,"x_max":-164,"o":"m -353 1017 q -254 1037 -296 1017 q -176 1097 -213 1056 l -164 1070 q -350 985 -234 985 q -555 1074 -467 985 l -543 1103 l -543 1103 q -353 1017 -455 1017 z "},"ॆ":{"ha":0,"x_min":-595,"x_max":-159,"o":"m -159 856 l -193 856 l -193 905 q -218 1000 -193 972 q -289 1028 -243 1028 q -372 1012 -306 1028 q -468 996 -437 996 q -528 1006 -498 996 q -595 1043 -557 1016 l -585 1069 q -526 1036 -552 1045 q -471 1026 -500 1026 q -375 1043 -442 1026 q -285 1060 -308 1060 q -193 1024 -227 1060 q -159 911 -159 987 l -159 856 z "},"े":{"ha":0,"x_min":-465,"x_max":-161,"o":"m -161 856 l -202 856 l -465 1164 l -437 1181 l -161 856 z "},"ै":{"ha":0,"x_min":-581,"x_max":-163,"o":"m -233 856 l -581 1105 l -563 1130 l -203 871 l -353 1206 l -323 1216 l -163 856 l -233 856 z "},"ॉ":{"ha":340,"x_min":-50,"x_max":361,"o":"m 135 0 l 135 831 l -20 831 l -20 864 l 361 864 l 361 831 l 168 831 l 168 0 l 135 0 m 153 1018 q 251 1037 210 1018 q 329 1098 292 1057 l 341 1071 q 155 986 271 986 q -50 1074 39 986 l -38 1103 l -37 1103 q 153 1018 50 1018 z "},"ॊ":{"ha":340,"x_min":-255,"x_max":361,"o":"m 134 0 l 134 831 l -20 831 l -20 864 l 148 864 l 148 905 q 123 1000 148 972 q 52 1028 98 1028 q -31 1012 35 1028 q -127 996 -97 996 q -187 1006 -157 996 q -255 1043 -217 1016 l -244 1069 q -186 1036 -212 1045 q -131 1026 -160 1026 q -35 1043 -102 1026 q 56 1060 33 1060 q 147 1024 113 1060 q 181 911 181 987 l 181 864 l 361 864 l 361 831 l 168 831 l 168 0 l 134 0 z "},"ो":{"ha":340,"x_min":-119,"x_max":361,"o":"m 134 0 l 134 831 l -20 831 l -20 864 l 137 864 l -119 1164 l -92 1181 l 178 864 l 361 864 l 361 831 l 168 831 l 168 0 l 134 0 z "},"ौ":{"ha":340,"x_min":-235,"x_max":361,"o":"m 134 0 l 134 831 l -20 831 l -20 864 l 102 864 l -235 1105 l -217 1130 l 143 871 l -7 1206 l 23 1216 l 180 864 l 361 864 l 361 831 l 168 831 l 168 0 l 134 0 z "},"्":{"ha":0,"x_min":-210,"x_max":43,"o":"m -210 -83 l -197 -57 l 43 -180 l 31 -207 l -210 -83 z "},"ॎ":{"ha":340,"x_min":134,"x_max":366,"o":"m 134 0 l 134 851 l 135 851 l 135 864 l 366 864 l 366 831 l 168 831 l 168 0 l 134 0 z "},"ॏ":{"ha":340,"x_min":-279,"x_max":361,"o":"m -20 831 l -20 864 l 106 864 l 92 888 q 46 942 74 920 q -15 964 18 964 q -90 948 -35 964 q -165 932 -144 932 q -279 979 -217 932 l -267 1003 q -169 963 -212 963 q -91 979 -149 963 q -14 995 -33 995 q 62 970 29 995 q 116 909 96 946 l 135 874 l 135 1019 q 117 1072 135 1053 q 68 1092 98 1092 q 7 1081 52 1092 q -69 1071 -39 1071 q -125 1080 -99 1071 q -185 1118 -151 1088 l -174 1143 q -117 1108 -138 1116 q -70 1101 -96 1101 q 5 1112 -45 1101 q 71 1124 56 1124 q 141 1097 115 1124 q 168 1023 168 1070 l 168 864 l 361 864 l 361 831 l 168 831 l 168 0 l 134 0 l 135 831 l -20 831 z "},"ॐ":{"ha":1244,"x_min":136,"x_max":1121,"o":"m 332 117 q 472 167 418 117 q 526 298 526 218 q 482 423 526 367 q 356 490 438 479 q 233 477 298 477 l 233 509 q 502 694 502 513 q 456 797 502 756 q 336 838 410 838 q 181 798 245 838 l 176 832 q 332 871 243 871 q 477 820 420 871 q 534 692 534 770 q 503 581 534 629 q 406 506 472 532 q 518 424 478 483 q 557 294 557 366 q 556 270 557 285 q 601 266 574 266 q 694 301 659 266 q 752 426 730 336 q 804 564 775 515 q 866 630 833 613 q 942 648 898 648 q 1071 581 1021 648 q 1121 396 1121 513 q 1075 251 1121 304 q 943 198 1028 198 q 870 208 910 198 l 872 237 q 939 229 907 229 q 1048 273 1010 229 q 1087 409 1087 318 q 1046 557 1087 499 q 946 616 1005 616 q 850 574 886 616 q 786 424 813 532 q 711 270 758 311 q 662 241 687 250 q 605 233 637 233 q 550 239 574 233 q 473 125 532 167 q 332 83 414 84 l 333 83 q 332 83 332 83 q 231 96 285 83 q 136 127 178 109 l 141 161 q 332 117 229 117 m 785 802 q 884 821 842 802 q 962 882 925 840 l 974 854 q 788 770 904 770 q 583 858 671 770 l 595 887 l 595 887 q 785 802 683 802 m 808 991 l 808 892 l 761 892 l 761 991 l 808 991 z "},"॑":{"ha":0,"x_min":-195,"x_max":-159,"o":"m -195 1118 l -159 1118 l -159 977 l -195 977 l -195 1118 z "},"॒":{"ha":0,"x_min":-597,"x_max":-159,"o":"m -159 -81 l -597 -81 l -597 -52 l -159 -52 l -159 -81 z "},"॓":{"ha":0,"x_min":-342,"x_max":-205,"o":"m -292 1208 l -205 983 l -232 983 l -342 1208 l -292 1208 z "},"॔":{"ha":0,"x_min":-218,"x_max":-81,"o":"m -218 983 l -131 1208 l -81 1208 l -191 983 l -218 983 z "},"ॕ":{"ha":0,"x_min":-583,"x_max":-144,"o":"m -144 965 l -583 965 l -583 994 l -144 994 l -144 965 m -358 1106 q -260 1123 -301 1106 q -182 1177 -218 1141 l -170 1154 q -356 1078 -240 1078 q -560 1156 -472 1078 l -549 1182 l -548 1182 q -358 1106 -459 1106 z "},"ॖ":{"ha":0,"x_min":-378,"x_max":24,"o":"m -174 -155 q -378 -75 -278 -155 l -370 -47 q -175 -124 -279 -124 q -73 -105 -117 -124 q 11 -45 -29 -86 l 24 -71 q -174 -155 -53 -155 z "},"ॗ":{"ha":0,"x_min":-385,"x_max":37,"o":"m -171 -259 q -385 -188 -281 -259 l -376 -163 q -169 -232 -281 -232 q 24 -162 -57 -232 l 37 -184 q -171 -259 -45 -259 m -174 -148 q -378 -75 -277 -148 l -370 -49 q -175 -120 -279 -120 q -73 -103 -117 -120 q 11 -47 -29 -85 l 24 -71 q -174 -148 -54 -148 z "},"क़":{"ha":996,"x_min":-20,"x_max":1016,"o":"m 136 68 l 136 -33 l 85 -33 l 85 68 l 136 68 m 512 0 l 479 0 l 479 251 q 279 178 402 178 q 129 238 192 178 q 65 398 65 298 q 123 553 65 498 q 264 608 181 608 q 479 547 385 608 l 479 831 l -20 831 l -20 864 l 1016 864 l 1016 831 l 512 831 l 512 527 q 701 585 595 585 q 847 527 787 585 q 907 375 907 470 q 883 252 907 314 q 827 147 859 190 l 791 156 q 850 259 827 197 q 873 378 873 321 q 823 504 873 456 q 701 551 773 551 q 512 491 600 551 l 512 0 m 98 396 q 98 354 98 396 q 152 261 98 311 q 273 211 205 211 q 390 230 342 211 q 479 290 437 250 l 479 511 q 380 559 429 544 q 262 575 331 575 q 146 528 194 575 q 98 396 98 481 z "},"ख़":{"ha":1108,"x_min":-21,"x_max":1128,"o":"m 191 68 l 191 -33 l 140 -33 l 140 68 l 191 68 m 731 279 l 732 279 q 903 345 838 279 l 903 548 q 734 606 833 606 q 611 562 661 606 q 559 443 561 518 q 610 323 558 368 q 731 279 661 279 m 333 602 l 333 831 l -21 831 l -21 864 l 1128 864 l 1128 831 l 935 831 l 935 0 l 901 0 l 901 304 q 734 245 844 245 q 588 299 650 245 q 526 443 526 353 q 587 585 526 532 q 730 638 648 638 q 827 624 782 638 q 902 586 873 609 l 902 831 l 367 831 l 367 600 q 321 441 367 499 q 181 375 275 382 l 473 14 l 446 -2 l 23 522 l 50 537 l 155 407 q 333 602 333 408 z "},"ग़":{"ha":776,"x_min":-20,"x_max":796,"o":"m 224 68 l 224 -33 l 173 -33 l 173 68 l 224 68 m 570 0 l 570 831 l 235 831 l 235 381 q 201 320 235 320 q 157 352 176 320 q 138 422 138 383 q 186 466 138 466 l 201 466 l 201 831 l -20 831 l -20 864 l 796 864 l 796 831 l 603 831 l 603 0 l 570 0 z "},"ज़":{"ha":878,"x_min":-20,"x_max":898,"o":"m 167 14 l 167 -87 l 115 -87 l 115 14 l 167 14 m 671 0 l 671 546 l 303 546 q 410 458 368 516 q 452 328 452 399 q 388 164 452 224 q 227 104 324 104 q 129 114 170 104 q 42 146 88 123 l 51 177 q 135 145 100 154 q 224 137 170 137 q 363 189 307 137 q 418 327 418 240 q 347 480 418 413 q 180 547 275 547 l 126 547 l 126 580 l 671 580 l 671 831 l -20 831 l -20 864 l 898 864 l 898 831 l 705 831 l 705 0 l 671 0 z "},"ड़":{"ha":692,"x_min":-20,"x_max":712,"o":"m 394 -55 l 394 -156 l 342 -156 l 342 -55 l 394 -55 m 349 37 l 349 36 q 85 111 227 36 l 90 144 q 349 66 216 66 q 509 112 450 66 q 567 238 567 157 q 519 338 567 298 q 401 378 472 378 q 231 327 304 378 l 226 327 q 138 385 176 338 q 99 492 99 432 q 154 604 99 562 q 305 645 208 645 l 485 645 l 485 830 l -20 830 l -20 863 l 712 863 l 712 830 l 519 830 l 519 612 l 304 612 q 178 579 223 612 q 133 489 133 547 q 158 410 133 445 q 224 361 184 375 q 314 400 276 389 q 399 410 351 410 q 542 361 486 410 q 598 237 598 312 q 531 90 598 143 q 349 37 465 37 z "},"ढ़":{"ha":694,"x_min":-20,"x_max":714,"o":"m 414 -54 l 414 -155 l 363 -155 l 363 -54 l 414 -54 m 612 212 q 612 180 612 212 q 550 100 612 147 q 389 52 487 52 q 214 88 291 52 q 92 192 137 124 q 47 347 47 260 q 129 536 47 467 q 344 606 210 606 l 486 606 l 486 831 l -20 831 l -20 864 l 714 864 l 714 831 l 521 831 l 521 572 l 353 572 q 155 511 230 572 q 81 340 81 450 q 169 157 81 229 q 385 85 256 85 q 525 122 471 85 q 579 216 579 159 q 546 292 579 262 q 456 322 513 322 q 296 223 347 322 l 271 241 q 350 327 301 299 q 460 355 399 355 q 567 316 521 355 q 612 212 612 277 z "},"फ़":{"ha":1010,"x_min":-21,"x_max":1030,"o":"m 217 68 l 217 -33 l 165 -33 l 165 68 l 217 68 m 523 0 l 489 0 l 489 401 q 409 347 458 367 q 305 327 361 327 q 162 384 214 327 q 110 562 110 441 l 110 831 l -21 831 l -21 864 l 1030 864 l 1030 831 l 522 831 l 522 473 q 706 541 602 541 q 843 484 791 541 q 896 329 896 428 q 831 117 896 229 l 795 126 q 844 225 825 170 q 863 334 863 280 q 820 461 863 414 q 706 507 777 507 q 523 434 609 507 l 523 0 m 304 360 q 490 445 416 360 l 490 831 l 144 831 l 144 549 q 304 360 144 360 z "},"य़":{"ha":761,"x_min":-20,"x_max":781,"o":"m 245 68 l 245 -33 l 193 -33 l 193 68 l 245 68 m 368 248 q 192 309 275 248 q 66 478 109 370 l 68 484 q 226 544 178 503 q 277 648 275 584 q 257 746 279 698 q 191 831 234 795 l -20 831 l -20 864 l 781 864 l 781 831 l 588 831 l 588 0 l 555 0 l 555 311 q 476 267 526 286 q 368 248 426 248 m 555 831 l 236 831 q 289 750 267 800 q 311 646 311 701 q 256 526 310 576 q 108 461 201 476 q 217 329 146 377 q 368 281 288 281 q 555 351 480 281 l 555 831 z "},"ॠ":{"ha":1038,"x_min":-22,"x_max":1057,"o":"m 532 0 l 496 0 l 496 382 l 151 174 l 132 202 l 494 418 l 345 514 q 190 576 249 576 q 56 536 130 576 l 49 570 q 191 610 119 610 q 374 538 262 610 l 498 456 l 498 831 l -22 831 l -22 864 l 1057 864 l 1057 831 l 530 831 l 530 439 q 746 487 663 442 q 726 526 726 509 q 741 553 726 542 q 778 564 755 564 q 814 552 800 564 q 828 524 828 541 q 817 496 828 507 q 795 477 805 484 l 895 313 l 892 298 q 772 187 772 263 q 800 125 772 149 q 873 100 827 100 q 928 109 896 100 l 931 80 q 873 71 903 71 q 778 104 814 71 q 741 189 741 137 q 769 263 741 229 q 853 318 797 297 l 766 459 q 532 406 677 410 l 532 0 z "},"ॡ":{"ha":935,"x_min":-22,"x_max":954,"o":"m 888 -106 q 800 -120 850 -120 q 715 -92 749 -120 q 682 -17 682 -64 q 724 57 682 31 q 662 98 684 69 q 640 167 640 127 q 681 252 640 220 q 787 284 722 284 l 804 284 q 812 371 812 326 q 766 505 812 454 q 651 555 720 555 q 530 496 582 555 q 479 334 479 437 l 479 251 l 446 251 l 446 353 q 381 502 435 450 q 260 554 327 554 q 148 504 193 554 q 103 371 103 454 q 137 216 103 288 q 247 56 171 144 l 218 43 q 104 211 138 136 q 70 377 70 286 q 122 528 70 469 q 249 587 174 587 q 379 550 324 587 q 462 443 435 513 q 537 549 485 511 q 656 587 589 587 q 727 574 694 587 l 727 831 l -22 831 l -22 865 l 954 865 l 954 831 l 760 831 l 760 555 q 823 480 800 527 q 846 371 846 433 q 831 254 846 310 l 791 254 q 704 231 734 254 q 673 166 673 208 q 702 102 673 125 q 779 79 732 79 q 865 86 827 79 l 873 59 q 787 48 838 48 l 783 48 q 732 24 749 43 q 714 -23 714 6 q 740 -73 714 -53 q 804 -94 766 -94 q 883 -81 842 -94 l 890 -106 l 888 -106 z "},"ॢ":{"ha":0,"x_min":-384,"x_max":53,"o":"m -1 -191 q -67 -174 -45 -191 q -90 -126 -90 -156 q -68 -79 -90 -97 q -11 -61 -46 -61 l -2 -61 q -1 -39 -1 -50 q -23 17 -1 -7 q -80 41 -46 41 q -136 14 -113 41 q -159 -56 -159 -14 l -159 -96 l -192 -96 l -192 -57 q -219 11 -192 -18 q -278 41 -245 41 q -332 20 -311 41 q -354 -33 -354 -1 q -279 -172 -354 -95 l -309 -178 q -384 -33 -384 -104 q -354 40 -384 11 q -287 69 -325 69 q -222 51 -250 69 q -179 5 -194 33 q -138 50 -165 33 q -81 67 -112 67 q -3 36 -33 67 q 27 -35 27 5 q 23 -86 27 -62 l 1 -86 q -62 -129 -62 -86 q -46 -158 -62 -147 q -8 -169 -31 -170 q 47 -160 14 -168 l 53 -184 q -1 -193 24 -193 l -1 -191 z "},"ॣ":{"ha":0,"x_min":-383,"x_max":56,"o":"m 56 -244 q 4 -251 35 -251 q -44 -237 -26 -251 q -62 -203 -62 -224 q -48 -170 -62 -182 q -77 -149 -67 -162 q -87 -119 -87 -135 q -66 -78 -87 -94 q -8 -63 -44 -63 l -1 -63 q 0 -41 0 -52 q -23 15 0 -9 q -79 39 -45 39 q -135 12 -113 39 q -158 -58 -158 -16 l -158 -98 l -191 -98 l -191 -59 q -218 9 -191 -20 q -277 39 -245 39 q -331 18 -310 39 q -353 -35 -353 -2 q -278 -174 -353 -98 l -309 -180 q -383 -35 -383 -106 q -354 38 -383 9 q -287 67 -324 67 q -221 49 -249 67 q -178 3 -193 31 q -138 48 -164 31 q -81 65 -111 65 q -2 34 -33 65 q 28 -37 28 3 q 24 -88 28 -64 l -5 -88 q -46 -98 -32 -88 q -60 -121 -60 -107 q -46 -143 -60 -134 q -12 -153 -32 -153 q 42 -148 9 -153 l 47 -170 q -5 -176 21 -176 l -9 -176 q -36 -203 -36 -180 q 9 -229 -36 -229 q 52 -224 23 -229 l 56 -244 l 56 -244 z "},"।":{"ha":522,"x_min":244,"x_max":277,"o":"m 277 -106 l 244 -106 l 244 937 l 277 937 l 277 -106 z "},"॥":{"ha":765,"x_min":244,"x_max":521,"o":"m 521 -106 l 488 -106 l 488 937 l 521 937 l 521 -106 m 277 -106 l 244 -106 l 244 937 l 277 937 l 277 -106 z "},"०":{"ha":696,"x_min":98,"x_max":598,"o":"m 130 446 q 130 395 130 446 q 193 281 130 345 q 350 218 256 218 q 504 280 444 218 q 564 445 564 342 q 503 610 564 547 q 345 673 441 673 q 189 610 248 673 q 130 446 130 547 m 529 257 q 494 221 529 257 q 351 185 460 185 q 170 257 243 185 q 98 444 98 330 q 168 633 98 559 q 343 707 237 707 l 343 707 q 474 674 416 707 q 565 582 532 642 q 598 445 598 522 q 529 257 597 330 z "},"१":{"ha":537,"x_min":76,"x_max":471,"o":"m 273 816 q 237 816 273 816 q 155 769 201 816 q 109 651 109 723 q 171 534 109 579 q 343 487 232 489 q 415 573 393 532 q 437 656 437 613 q 391 770 437 725 q 273 816 345 816 m 399 49 l 399 61 q 388 116 399 96 q 349 152 377 136 l 126 282 l 126 298 l 311 458 q 141 517 205 464 q 76 655 76 571 q 131 793 76 739 q 266 848 186 848 q 415 794 359 848 q 471 655 471 740 q 443 556 471 604 q 356 456 416 509 l 171 293 l 364 180 q 417 130 401 157 q 432 64 432 103 l 432 49 l 399 49 z "},"२":{"ha":570,"x_min":73,"x_max":479,"o":"m 158 316 q 118 358 118 316 q 134 398 118 379 q 170 416 150 416 q 204 405 191 416 q 237 364 218 394 q 380 454 315 383 q 445 608 445 526 q 381 760 445 703 q 222 816 317 816 q 80 785 159 816 l 73 819 q 223 848 153 848 q 406 783 333 848 q 479 606 479 718 q 414 440 479 516 q 254 332 348 363 l 455 54 l 426 40 l 222 323 q 158 316 189 316 z "},"३":{"ha":578,"x_min":108,"x_max":464,"o":"m 153 192 q 133 199 153 192 q 114 230 114 207 q 126 265 114 253 q 157 277 138 277 q 256 210 205 277 l 262 210 q 388 249 341 210 q 434 351 434 288 q 389 448 434 404 q 329 485 367 470 q 243 501 292 499 q 191 498 222 498 l 147 498 l 147 530 l 187 530 q 348 570 288 530 q 408 675 408 609 q 362 778 408 741 q 248 814 317 814 q 115 783 178 814 l 108 814 q 240 848 170 848 q 386 801 330 848 q 440 674 441 755 q 408 582 439 622 q 321 519 377 541 q 424 455 384 501 q 464 353 464 409 q 411 228 464 275 q 279 180 357 182 l 394 20 l 368 3 l 243 176 q 153 192 191 177 z "},"४":{"ha":644,"x_min":87,"x_max":580,"o":"m 334 420 q 227 335 260 376 q 193 243 193 294 q 232 160 193 192 q 333 130 271 129 q 433 162 396 130 q 471 249 471 195 q 443 331 471 292 q 334 420 414 370 m 161 251 q 195 346 161 302 q 304 438 229 389 q 142 573 197 505 q 87 724 87 641 q 107 818 87 771 l 138 808 q 120 724 120 769 q 136 642 120 679 q 183 572 152 605 q 332 456 238 514 q 446 532 404 499 q 511 597 489 566 q 541 654 534 628 q 547 720 547 680 q 532 808 547 761 l 561 814 q 580 710 580 761 q 563 618 580 659 q 498 534 546 577 q 361 437 451 490 q 473 340 443 384 q 504 245 504 296 q 457 140 504 182 q 335 97 410 98 l 334 97 q 210 139 259 96 q 161 251 161 181 z "},"५":{"ha":625,"x_min":83,"x_max":599,"o":"m 469 367 l 447 357 q 469 367 456 359 m 437 320 q 319 302 382 302 q 203 326 255 302 q 117 401 151 349 q 83 526 83 454 q 300 849 83 713 l 325 827 q 115 523 115 705 q 172 385 115 434 q 316 335 229 335 q 423 349 374 335 q 419 380 419 361 q 435 414 419 399 q 475 430 451 430 q 514 417 499 430 q 528 388 528 404 q 465 329 526 357 l 599 48 l 572 37 l 437 320 z "},"६":{"ha":588,"x_min":120,"x_max":538,"o":"m 454 224 l 433 214 q 454 224 441 217 m 319 167 q 177 215 234 167 q 120 339 120 263 q 157 447 120 399 q 267 517 193 494 q 164 577 200 535 q 127 673 128 620 q 184 801 127 752 q 325 850 241 850 q 481 821 408 850 l 475 791 q 330 819 408 820 q 207 777 252 817 q 161 676 161 737 q 212 575 161 615 q 365 534 262 536 q 391 534 374 534 l 427 534 l 427 501 l 390 501 q 212 454 271 501 q 153 341 153 407 q 200 238 153 276 q 311 200 246 200 q 408 208 376 200 q 405 239 405 220 q 421 273 405 258 q 461 289 437 289 q 499 276 485 289 q 513 247 514 262 q 496 215 513 231 q 450 189 479 200 l 538 16 l 511 4 l 422 179 q 319 167 375 167 z "},"७":{"ha":726,"x_min":100,"x_max":659,"o":"m 358 493 q 416 368 358 412 q 600 309 474 323 q 626 451 626 375 q 583 577 626 528 q 484 626 540 626 q 393 586 427 626 q 358 493 358 546 m 384 127 l 384 126 q 182 213 260 126 q 121 325 143 256 q 100 479 100 393 q 193 820 100 666 l 227 811 q 133 475 133 666 q 201 240 133 321 q 380 159 270 159 q 502 192 449 159 q 587 281 555 224 q 391 349 458 295 q 325 497 325 404 q 370 612 325 564 q 479 660 415 660 q 607 602 555 660 q 659 453 659 545 q 624 288 659 361 q 526 171 589 214 q 384 127 463 127 z "},"८":{"ha":579,"x_min":94,"x_max":509,"o":"m 126 363 q 185 237 126 286 q 337 188 245 188 q 505 217 429 188 l 509 182 q 332 155 433 155 q 163 213 232 155 q 94 365 94 271 q 120 482 94 428 q 212 599 147 536 l 439 822 l 464 802 l 235 575 q 149 465 172 512 q 126 363 126 418 z "},"९":{"ha":584,"x_min":80,"x_max":492,"o":"m 460 645 q 460 686 460 645 q 412 777 461 727 q 287 827 362 827 q 162 777 211 827 q 113 637 113 726 q 196 466 113 549 l 199 461 q 392 512 326 463 q 460 645 458 562 m 443 49 l 443 79 q 429 163 443 127 q 382 231 416 198 l 189 427 q 107 532 134 481 q 80 642 80 583 q 138 801 80 741 q 286 861 196 861 q 434 803 376 861 q 492 650 492 745 q 424 496 492 554 q 229 433 355 437 l 404 256 q 460 175 445 214 q 476 88 476 135 l 476 49 l 443 49 z "},"॰":{"ha":469,"x_min":57,"x_max":403,"o":"m 370 448 q 370 479 370 448 q 330 549 370 510 q 231 587 291 587 q 130 549 170 587 q 90 448 90 510 q 130 348 90 387 q 229 309 170 309 q 329 347 288 309 q 370 448 370 386 m 403 446 q 403 409 403 446 q 354 324 403 372 q 232 275 304 275 q 108 326 159 275 q 57 451 57 377 q 105 572 57 524 q 227 621 153 621 q 352 570 302 621 q 403 446 403 519 z "},"ॱ":{"ha":466,"x_min":234,"x_max":283,"o":"m 283 876 l 283 774 l 234 774 l 234 876 l 283 876 z "},"ॲ":{"ha":929,"x_min":56,"x_max":950,"o":"m 480 295 q 417 141 480 199 q 257 84 353 84 q 56 127 160 84 l 62 161 q 253 117 150 117 q 393 168 339 117 q 447 299 447 218 q 403 424 447 368 q 277 491 359 479 q 153 477 219 477 l 153 510 q 422 694 422 514 q 376 798 422 757 q 256 838 330 838 q 102 798 166 838 l 96 833 q 252 871 163 871 q 398 821 341 871 q 455 692 455 770 q 424 582 455 630 q 326 507 393 533 q 425 441 385 489 l 724 441 l 724 831 l 549 831 l 549 864 l 950 864 l 950 831 l 757 831 l 757 0 l 724 0 l 726 409 l 450 409 q 480 295 480 357 m 736 1017 q 834 1037 793 1017 q 912 1097 876 1056 l 924 1070 q 738 985 854 985 q 534 1074 622 985 l 545 1103 l 546 1103 q 736 1017 633 1017 z "},"ॳ":{"ha":929,"x_min":56,"x_max":949,"o":"m 479 295 q 416 141 479 199 q 256 84 353 84 q 56 127 159 84 l 61 161 q 252 117 149 117 q 392 168 338 117 q 446 299 446 218 q 402 424 446 368 q 276 491 358 479 q 153 477 218 477 l 153 510 q 422 694 422 514 q 376 798 422 757 q 256 838 330 838 q 101 798 165 838 l 96 833 q 252 871 163 871 q 397 821 340 871 q 454 692 454 770 q 423 582 454 630 q 326 507 392 533 q 425 441 384 489 l 723 441 l 723 831 l 548 831 l 548 864 l 723 864 l 723 1002 l 756 1002 l 756 864 l 949 864 l 949 831 l 756 831 l 756 0 l 723 0 l 725 409 l 450 409 q 479 295 479 357 z "},"ॴ":{"ha":1284,"x_min":56,"x_max":1304,"o":"m 479 295 q 416 141 479 199 q 256 84 353 84 q 56 127 159 84 l 61 161 q 252 117 149 117 q 392 168 338 117 q 446 299 446 218 q 402 424 446 368 q 276 491 358 479 q 153 477 218 477 l 153 510 q 422 694 422 514 q 376 798 422 757 q 256 838 330 838 q 101 798 165 838 l 96 833 q 252 871 163 871 q 397 821 340 871 q 454 692 454 770 q 423 582 454 630 q 326 507 392 533 q 425 441 384 489 l 723 441 l 723 831 l 548 831 l 548 864 l 1078 864 l 1078 1002 l 1111 1002 l 1111 864 l 1304 864 l 1304 831 l 1111 831 l 1111 0 l 1078 0 l 1078 831 l 756 831 l 756 0 l 723 0 l 725 409 l 450 409 q 479 295 479 357 z "},"ॵ":{"ha":1284,"x_min":56,"x_max":1304,"o":"m 480 295 q 417 141 480 199 q 257 84 353 84 q 56 127 160 84 l 62 161 q 253 117 150 117 q 393 168 339 117 q 447 299 447 218 q 403 424 447 368 q 277 491 359 479 q 153 477 219 477 l 153 510 q 422 694 422 514 q 376 798 422 757 q 256 838 330 838 q 102 798 166 838 l 96 833 q 252 871 163 871 q 398 821 341 871 q 455 692 455 770 q 424 582 455 630 q 326 507 393 533 q 425 441 385 489 l 724 441 l 724 831 l 549 831 l 549 864 l 1050 864 l 1036 888 q 989 942 1017 920 q 928 964 962 964 q 853 948 908 964 q 779 932 799 932 q 664 979 726 932 l 676 1003 q 774 963 732 963 q 852 979 795 963 q 929 995 910 995 q 1006 970 972 995 q 1059 909 1039 946 l 1078 874 l 1078 1019 q 1060 1072 1078 1053 q 1011 1092 1042 1092 q 950 1081 996 1092 q 874 1071 905 1071 q 819 1080 844 1071 q 758 1118 793 1088 l 770 1143 q 826 1108 805 1116 q 873 1101 848 1101 q 949 1112 898 1101 q 1015 1124 1000 1124 q 1084 1097 1058 1124 q 1111 1023 1111 1070 l 1111 864 l 1304 864 l 1304 831 l 1111 831 l 1111 0 l 1078 0 l 1078 831 l 756 831 l 756 0 l 723 0 l 726 409 l 450 409 q 480 295 480 357 z "},"ॶ":{"ha":929,"x_min":56,"x_max":949,"o":"m 481 -154 q 277 -74 377 -154 l 285 -46 q 479 -123 375 -123 q 581 -104 537 -123 q 665 -45 625 -85 l 678 -70 q 481 -154 602 -154 m 479 295 q 416 141 479 199 q 256 84 353 84 q 56 127 159 84 l 61 161 q 252 117 149 117 q 392 168 338 117 q 446 299 446 218 q 402 424 446 368 q 276 491 358 479 q 153 477 218 477 l 153 510 q 422 694 422 514 q 376 798 422 757 q 256 838 330 838 q 101 798 165 838 l 96 833 q 252 871 163 871 q 397 821 340 871 q 454 692 454 770 q 423 582 454 630 q 326 507 392 533 q 425 441 384 489 l 723 441 l 723 831 l 548 831 l 548 864 l 949 864 l 949 831 l 756 831 l 756 0 l 723 0 l 725 409 l 450 409 q 479 295 479 357 z "},"ॷ":{"ha":929,"x_min":56,"x_max":949,"o":"m 475 -258 q 261 -187 366 -258 l 270 -162 q 477 -231 366 -231 q 670 -161 589 -231 l 683 -184 q 475 -258 601 -258 m 473 -147 q 269 -74 370 -147 l 277 -48 q 471 -119 368 -119 q 573 -102 529 -119 q 657 -47 617 -85 l 670 -70 q 473 -147 593 -147 m 479 295 q 416 141 479 199 q 256 84 353 84 q 56 127 159 84 l 61 161 q 252 117 149 117 q 392 168 338 117 q 446 299 446 218 q 402 424 446 368 q 276 491 358 479 q 153 477 218 477 l 153 510 q 422 694 422 514 q 376 798 422 757 q 256 838 330 838 q 101 798 165 838 l 96 833 q 252 871 163 871 q 397 821 340 871 q 454 692 454 770 q 423 582 454 630 q 326 507 392 533 q 425 441 384 489 l 723 441 l 723 831 l 548 831 l 548 864 l 949 864 l 949 831 l 756 831 l 756 0 l 723 0 l 725 409 l 450 409 q 479 295 479 357 z "},"ॸ":{"ha":702,"x_min":-27,"x_max":722,"o":"m 496 74 q 574 276 574 184 q 527 411 574 368 q 390 454 479 454 q 227 417 300 454 l 227 361 q 193 300 227 300 q 149 332 168 300 q 130 402 130 363 q 178 446 130 446 l 193 446 l 193 831 l -27 831 l -27 865 l 722 865 l 722 831 l 227 831 l 227 454 q 398 490 302 490 q 551 436 493 490 q 610 279 610 382 q 531 63 610 176 l 496 74 z "},"ॹ":{"ha":878,"x_min":-20,"x_max":898,"o":"m 229 -60 l 229 -161 l 178 -161 l 178 -60 l 229 -60 m 389 33 l 389 -68 l 338 -68 l 338 33 l 389 33 m 65 33 l 65 -68 l 14 -68 l 14 33 l 65 33 m 671 0 l 671 546 l 303 546 q 410 458 368 516 q 452 328 452 399 q 388 164 452 224 q 227 104 324 104 q 129 114 170 104 q 42 146 88 123 l 51 177 q 135 145 100 154 q 224 137 170 137 q 363 189 307 137 q 418 327 418 240 q 347 480 418 413 q 180 547 275 547 l 126 547 l 126 580 l 671 580 l 671 831 l -20 831 l -20 864 l 898 864 l 898 831 l 705 831 l 705 0 l 671 0 z "},"ॺ":{"ha":761,"x_min":-20,"x_max":781,"o":"m 555 831 l 242 831 l 555 367 l 555 831 m 368 248 q 192 309 275 248 q 66 478 109 370 l 68 484 q 226 544 178 503 q 277 648 275 584 q 257 746 279 698 q 191 831 234 795 l -20 831 l -20 864 l 781 864 l 781 831 l 588 831 l 588 0 l 555 0 l 555 311 q 476 267 526 286 q 368 248 426 248 m 368 281 q 536 335 467 281 l 309 675 q 311 646 311 657 q 256 526 310 576 q 108 461 201 476 q 217 329 146 377 q 368 281 288 281 z "},"ॻ":{"ha":776,"x_min":-20,"x_max":796,"o":"m 162 0 l 162 33 l 570 33 l 570 831 l 235 831 l 235 381 q 201 320 235 320 q 157 352 176 320 q 138 422 138 383 q 186 466 138 466 l 201 466 l 201 831 l -20 831 l -20 864 l 796 864 l 796 831 l 603 831 l 603 0 l 162 0 z "},"ॼ":{"ha":878,"x_min":-20,"x_max":898,"o":"m 47 0 l 47 33 l 671 33 l 671 546 l 303 546 q 410 458 368 516 q 452 328 452 399 q 388 164 452 224 q 227 104 324 104 q 129 114 170 104 q 42 146 88 123 l 51 177 q 135 145 100 154 q 224 137 170 137 q 363 189 307 137 q 418 327 418 240 q 347 480 418 413 q 180 547 275 547 l 126 547 l 126 580 l 671 580 l 671 831 l -20 831 l -20 864 l 898 864 l 898 831 l 705 831 l 705 0 l 47 0 z "},"ॽ":{"ha":552,"x_min":106,"x_max":481,"o":"m 188 0 l 188 435 l 216 435 q 380 493 313 435 q 446 638 446 550 q 390 779 446 727 q 251 830 334 830 q 115 798 169 830 l 106 831 q 257 865 163 865 q 416 802 351 865 q 481 638 481 740 q 445 515 481 570 q 350 432 409 461 q 221 401 291 404 l 221 0 l 188 0 z "},"ॾ":{"ha":692,"x_min":-20,"x_max":712,"o":"m 581 -56 l 581 -89 l 108 -89 l 108 -56 l 581 -56 m 349 37 l 349 36 q 85 111 227 36 l 90 144 q 349 66 216 66 q 509 112 450 66 q 567 238 567 157 q 519 338 567 298 q 401 378 472 378 q 231 327 304 378 l 226 327 q 138 385 176 338 q 99 492 99 432 q 154 604 99 562 q 305 645 208 645 l 485 645 l 485 830 l -20 830 l -20 863 l 712 863 l 712 830 l 519 830 l 519 612 l 304 612 q 178 579 223 612 q 133 489 133 547 q 158 410 133 445 q 224 361 184 375 q 314 400 276 389 q 399 410 351 410 q 542 361 486 410 q 598 237 598 312 q 531 90 598 143 q 349 37 465 37 z "},"ॿ":{"ha":713,"x_min":-22,"x_max":731,"o":"m 113 1 l 113 33 l 505 33 l 505 263 q 414 211 469 231 q 297 192 358 192 q 131 254 197 192 q 64 415 64 317 q 131 573 64 514 q 294 633 198 633 q 505 572 416 633 l 505 831 l -22 831 l -22 865 l 731 865 l 731 831 l 538 831 l 538 1 l 113 1 m 300 599 l 298 600 q 237 591 266 600 l 427 251 q 507 302 471 268 l 507 530 q 300 599 418 599 m 98 415 q 155 277 98 330 q 296 225 211 225 q 394 239 345 225 l 204 581 q 127 515 155 558 q 98 415 98 472 z "},"​":{"ha":0,"x_min":0,"x_max":0,"o":""},"‌":{"ha":0,"x_min":-16,"x_max":18,"o":"m 18 -237 l -16 -237 l -16 1101 l 18 1101 l 18 -237 z "},"‍":{"ha":0,"x_min":-182,"x_max":184,"o":"m 18 -236 l -16 -236 l -16 859 l -149 723 l -176 752 l -27 904 l -182 1063 l -155 1091 l 1 932 l 156 1091 l 184 1063 l 28 904 l 177 752 l 148 724 l 18 858 l 18 -236 z "},"–":{"ha":862,"x_min":93,"x_max":689,"o":"m 689 519 l 689 489 l 93 489 l 93 519 l 689 519 z "},"—":{"ha":1021,"x_min":94,"x_max":827,"o":"m 827 519 l 827 489 l 94 489 l 94 519 l 827 519 z "},"―":{"ha":1187,"x_min":0,"x_max":0,"o":""},"‘":{"ha":311,"x_min":119,"x_max":192,"o":"m 119 686 l 119 787 l 161 952 l 192 952 l 152 789 l 152 686 l 119 686 z "},"’":{"ha":311,"x_min":119,"x_max":192,"o":"m 192 952 l 192 851 l 149 686 l 119 686 l 159 849 l 159 952 l 192 952 z "},"‚":{"ha":183,"x_min":28,"x_max":117,"o":"m 116 40 l 117 40 q 52 -123 113 -58 l 28 -104 q 83 27 77 -42 l 83 127 l 116 127 l 116 40 z "},"“":{"ha":420,"x_min":119,"x_max":302,"o":"m 119 686 l 119 787 l 161 952 l 192 952 l 152 789 l 152 686 l 119 686 m 229 686 l 229 787 l 271 952 l 302 952 l 262 789 l 262 686 l 229 686 z "},"”":{"ha":422,"x_min":119,"x_max":303,"o":"m 192 952 l 192 851 l 149 686 l 119 686 l 159 849 l 159 952 l 192 952 m 303 952 l 303 851 l 260 686 l 230 686 l 270 849 l 270 952 l 303 952 z "},"„":{"ha":294,"x_min":28,"x_max":220,"o":"m 116 40 l 117 40 q 52 -123 113 -58 l 28 -104 q 83 27 77 -42 l 83 127 l 116 127 l 116 40 m 220 127 l 220 40 q 156 -123 218 -56 l 133 -104 q 186 27 182 -41 l 187 127 l 220 127 z "},"†":{"ha":687,"x_min":40,"x_max":644,"o":"m 644 661 l 644 625 l 363 625 l 363 0 l 330 0 l 330 625 l 40 625 l 40 661 l 330 661 l 330 888 l 363 888 l 363 661 l 644 661 z "},"‡":{"ha":696,"x_min":50,"x_max":654,"o":"m 654 5 l 654 -28 l 360 -28 l 360 -282 l 327 -282 l 327 -28 l 50 -28 l 50 5 l 327 5 l 327 599 l 50 599 l 50 632 l 327 632 l 327 861 l 360 861 l 360 632 l 654 632 l 654 599 l 360 599 l 360 5 l 654 5 z "},"•":{"ha":388,"x_min":95,"x_max":298,"o":"m 95 466 l 95 509 q 122 579 95 552 q 196 606 150 606 q 270 579 242 606 q 298 509 298 551 l 298 466 q 271 396 298 423 q 197 370 243 370 q 123 396 151 370 q 95 466 95 422 z "},"…":{"ha":766,"x_min":118,"x_max":625,"o":"m 165 71 l 165 0 l 118 0 l 118 71 l 165 71 m 400 71 l 400 0 l 353 0 l 353 71 l 400 71 m 625 71 l 625 0 l 578 0 l 578 71 l 625 71 z "},"‰":{"ha":1242,"x_min":71,"x_max":1166,"o":"m 564 214 l 564 169 q 600 61 564 103 q 696 20 636 20 q 791 62 755 20 q 827 172 827 104 l 827 216 q 792 326 827 285 q 695 366 756 366 q 599 325 634 366 q 564 214 564 284 m 861 214 l 861 169 q 897 61 861 103 q 993 20 933 20 q 1089 62 1053 20 q 1124 172 1124 104 l 1124 216 q 1089 326 1124 286 q 992 366 1054 366 q 896 325 931 366 q 861 214 861 283 m 694 399 q 787 370 747 399 q 845 292 827 341 q 906 370 865 341 q 1000 399 947 399 q 1119 347 1072 399 q 1166 212 1166 295 l 1166 169 q 1119 38 1166 90 q 1001 -14 1072 -14 q 907 15 949 -14 q 846 93 865 44 q 788 15 827 43 q 697 -14 748 -14 q 578 38 626 -14 q 531 172 531 90 l 530 216 q 577 347 530 295 q 694 399 624 399 m 689 773 l 255 79 l 228 98 l 662 792 l 689 773 m 104 712 l 104 669 q 140 562 104 604 q 237 520 177 520 q 332 563 296 520 q 368 673 368 605 l 368 716 q 332 825 368 783 q 236 867 296 867 q 140 824 176 867 q 104 712 104 782 m 71 673 l 71 716 q 117 848 71 795 q 236 900 164 900 q 354 847 307 900 q 401 713 401 795 l 401 669 q 355 539 401 591 q 237 487 308 487 q 118 539 165 487 q 71 673 71 591 z "},"‹":{"ha":369,"x_min":66,"x_max":289,"o":"m 289 586 l 109 354 l 289 123 l 246 123 l 66 349 l 66 360 l 246 586 l 289 586 z "},"›":{"ha":369,"x_min":64,"x_max":287,"o":"m 64 585 l 107 585 l 287 353 l 287 342 l 107 116 l 64 116 l 243 347 l 64 585 z "},"⁄":{"ha":553,"x_min":40,"x_max":501,"o":"m 501 783 l 67 89 l 40 108 l 473 802 l 501 783 z "},"€":{"ha":684,"x_min":44,"x_max":630,"o":"m 479 389 l 479 355 l 202 355 l 202 325 q 280 99 202 178 q 496 19 357 19 q 630 39 567 19 l 630 5 q 496 -14 567 -14 q 256 76 342 -14 q 169 326 169 166 l 169 355 l 44 355 l 44 389 l 169 389 l 169 505 l 44 505 l 44 539 l 169 539 l 169 565 q 256 811 170 723 q 494 899 342 899 q 630 880 554 899 l 630 845 q 494 867 559 867 q 278 788 354 867 q 202 564 203 710 l 202 539 l 479 539 l 479 505 l 202 505 l 202 389 l 479 389 z "},"₹":{"ha":826,"x_min":107,"x_max":701,"o":"m 249 439 q 427 485 361 439 q 496 613 492 530 l 107 613 l 107 646 l 496 646 q 431 778 490 725 q 279 831 372 831 l 107 831 l 107 864 l 701 864 l 701 831 l 414 831 q 496 754 465 803 q 532 646 527 705 l 700 646 l 700 613 l 532 613 q 453 463 526 518 q 267 407 380 407 l 237 407 l 593 6 l 592 0 l 552 0 l 182 419 l 184 439 l 249 439 z "},"₺":{"ha":587,"x_min":35,"x_max":514,"o":"m 481 473 l 514 473 l 514 394 q 423 106 514 213 q 180 -1 332 -1 l 146 0 l 146 462 l 35 417 l 35 454 l 146 498 l 146 602 l 35 557 l 35 594 l 146 638 l 146 888 l 180 888 l 180 651 l 321 708 l 321 672 l 180 615 l 180 511 l 321 568 l 321 532 l 180 475 l 180 32 q 400 129 319 32 q 481 393 481 226 l 481 473 z "},"₽":{"ha":775,"x_min":24,"x_max":711,"o":"m 180 856 l 180 408 l 425 408 q 612 466 545 408 q 678 630 678 524 q 612 796 678 736 q 425 856 545 856 l 180 856 m 424 278 l 424 245 l 180 245 l 180 0 l 146 0 l 146 245 l 24 245 l 24 278 l 146 278 l 146 376 l 24 376 l 24 408 l 146 408 l 146 888 l 425 888 q 636 820 561 888 q 711 630 711 752 q 638 442 711 508 q 429 376 565 376 l 180 376 l 180 278 l 424 278 z "},"™":{"ha":761,"x_min":68,"x_max":661,"o":"m 627 623 l 627 890 l 528 623 l 496 623 l 395 899 l 395 623 l 362 623 l 362 951 l 404 951 l 511 671 l 619 951 l 661 951 l 661 623 l 627 623 m 309 951 l 309 916 l 205 916 l 205 623 l 172 623 l 172 916 l 68 916 l 68 951 l 309 951 z "},"℮":{"ha":789,"x_min":91,"x_max":712,"o":"m 575 545 q 412 614 503 614 q 245 539 320 614 l 245 370 l 575 370 l 575 545 m 412 -14 q 249 34 323 -14 q 133 161 174 81 q 91 329 91 241 q 135 496 91 417 q 255 623 179 574 q 412 671 330 671 q 562 629 493 671 q 671 513 631 587 q 712 350 711 439 l 712 313 l 243 313 l 243 112 q 410 45 317 45 q 634 119 530 45 l 638 56 q 412 -14 528 -14 z "},"∂":{"ha":715,"x_min":65,"x_max":656,"o":"m 562 509 q 361 590 481 590 q 171 513 242 590 q 99 311 99 435 l 99 292 q 131 153 99 216 q 222 54 163 90 q 355 19 280 19 q 549 122 475 19 q 624 392 624 226 l 624 413 q 562 509 606 467 m 344 899 q 245 883 286 899 q 163 825 205 866 l 145 850 q 347 932 222 932 q 574 805 494 932 q 656 439 654 678 l 656 383 q 618 178 656 269 q 511 36 579 87 q 357 -14 443 -14 q 205 24 271 -14 q 102 133 140 62 q 65 291 65 205 l 65 317 q 102 475 65 406 q 205 584 138 545 q 355 623 272 623 q 507 586 438 623 l 508 586 q 623 477 576 549 q 543 791 614 684 q 344 899 472 899 z "},"∏":{"ha":775,"x_min":110,"x_max":665,"o":"m 665 870 l 665 -184 l 632 -184 l 632 838 l 143 838 l 143 -184 l 110 -184 l 110 870 l 665 870 z "},"∑":{"ha":711,"x_min":35,"x_max":711,"o":"m 711 -150 l 711 -183 l 35 -183 l 35 -157 l 399 343 l 35 844 l 35 870 l 58 870 l 58 869 l 58 870 l 675 870 l 675 838 l 81 838 l 437 351 l 437 336 l 81 -150 l 711 -150 z "},"−":{"ha":712,"x_min":100,"x_max":609,"o":"m 609 522 l 609 489 l 100 489 l 100 522 l 609 522 z "},"√":{"ha":620,"x_min":40,"x_max":572,"o":"m 260 0 l 260 1 l 115 397 l 40 397 l 40 431 l 139 431 l 243 146 l 276 49 l 537 888 l 572 888 l 292 0 l 260 0 z "},"∞":{"ha":1357,"x_min":85,"x_max":1263,"o":"m 988 637 q 816 560 892 637 q 696 341 741 482 l 696 315 l 699 308 q 817 95 742 171 q 986 18 892 18 q 1162 103 1095 18 q 1230 321 1230 188 l 1231 342 q 1200 491 1231 422 q 1114 599 1169 559 q 988 637 1058 637 m 120 334 l 120 313 q 151 164 120 232 q 237 57 182 96 q 365 19 292 19 q 533 97 458 19 q 652 309 609 174 l 654 317 l 654 342 l 653 343 q 534 560 610 481 q 363 638 458 638 q 188 553 256 638 q 120 334 120 469 m 985 -14 q 804 61 884 -14 q 673 278 724 136 q 543 60 621 134 q 363 -14 464 -14 q 163 79 241 -14 q 85 321 85 172 l 85 343 q 121 511 85 435 q 219 629 156 587 q 362 671 283 671 q 544 595 463 671 q 673 379 625 519 q 803 595 722 519 q 986 671 884 671 q 1184 578 1107 671 q 1261 336 1261 484 l 1263 314 q 1227 146 1263 222 q 1128 28 1192 71 q 985 -14 1067 -14 z "},"∫":{"ha":314,"x_min":-97,"x_max":363,"o":"m -28 -296 q -97 -284 -62 -296 l -89 -252 q -28 -263 -61 -263 q 76 -217 40 -263 q 113 -84 113 -172 l 113 725 q 158 870 113 820 q 284 921 203 921 q 363 910 331 921 l 357 879 q 285 888 323 888 q 182 845 219 888 q 145 725 145 803 l 146 -84 q 101 -242 146 -187 q -28 -296 56 -296 z "},"≈":{"ha":705,"x_min":61,"x_max":637,"o":"m 484 299 q 626 391 563 299 l 629 351 q 486 262 567 262 q 397 281 437 262 l 300 332 q 207 351 256 353 q 65 260 128 351 l 61 299 q 205 388 124 388 q 301 368 254 389 l 394 319 q 484 299 437 299 m 491 537 q 633 629 570 537 l 637 588 q 492 499 574 499 q 404 518 444 499 l 307 568 q 214 588 263 589 q 72 496 135 588 l 68 537 q 212 626 131 626 q 308 606 261 627 l 401 557 q 491 537 445 537 z "},"≠":{"ha":697,"x_min":90,"x_max":599,"o":"m 599 309 l 599 277 l 277 277 l 178 103 l 150 118 l 239 277 l 90 277 l 90 309 l 258 309 l 380 525 l 90 525 l 90 558 l 399 558 l 497 730 l 526 716 l 436 558 l 599 558 l 599 525 l 417 525 l 295 309 l 599 309 z "},"≤":{"ha":643,"x_min":35,"x_max":555,"o":"m 545 35 l 545 1 l 35 1 l 35 35 l 545 35 m 555 612 l 152 424 l 79 401 l 79 397 l 152 376 l 555 190 l 555 154 l 45 386 l 45 416 l 555 648 l 555 612 z "},"≥":{"ha":643,"x_min":54,"x_max":572,"o":"m 563 35 l 563 1 l 54 1 l 54 35 l 563 35 m 465 427 l 62 613 l 62 649 l 572 417 l 572 387 l 62 155 l 62 191 l 465 378 l 537 401 l 537 404 l 465 427 z "},"◊":{"ha":632,"x_min":41,"x_max":586,"o":"m 545 444 l 314 849 l 83 444 l 314 38 l 545 444 m 41 444 l 298 888 l 330 888 l 586 444 l 330 0 l 298 0 l 41 444 z "},"◌":{"ha":730,"x_min":83,"x_max":652,"o":"m 368 193 q 408 157 408 193 q 368 120 408 120 q 338 130 348 120 q 328 157 328 140 q 338 183 328 173 q 368 193 348 193 m 189 273 q 229 236 229 273 q 189 200 229 200 q 159 210 170 200 q 149 236 149 220 q 159 263 149 253 q 189 273 170 273 m 548 273 q 578 263 568 273 q 588 236 588 253 q 578 210 588 220 q 548 200 568 200 q 508 236 508 200 q 548 273 508 273 m 611 381 q 572 417 572 381 q 611 454 572 454 q 642 444 631 454 q 652 420 652 435 q 648 398 652 406 q 611 381 638 381 m 123 454 q 153 444 142 454 q 163 417 163 434 q 153 391 163 401 q 123 381 142 381 q 83 417 83 381 q 123 454 83 454 m 189 635 q 229 599 229 635 q 189 563 229 563 q 159 573 170 563 q 149 599 149 583 q 159 626 149 616 q 189 635 170 635 m 548 635 q 578 626 568 635 q 588 599 588 616 q 578 573 588 583 q 548 563 568 563 q 508 599 508 563 q 548 635 508 635 m 408 677 q 368 642 408 642 q 338 652 348 642 q 328 678 328 662 q 368 714 328 714 q 408 677 408 714 z "}}}
